<?xml version="1.0" encoding="utf-8"?>
<!-- Generator: Adobe Illustrator 22.0.1, SVG Export Plug-In . SVG Version: 6.00 Build 0)  -->
<svg version="1.1" id="Layer_1" xmlns="http://www.w3.org/2000/svg" xmlns:xlink="http://www.w3.org/1999/xlink" x="0px" y="0px"
	 viewBox="0 0 337.8 215.8" style="enable-background:new 0 0 337.8 215.8;" xml:space="preserve">
<style type="text/css">
	.st0{fill:#FFFFFF;}
</style>
<path class="st0" d="M0.8,191.3c0.1-0.4-0.7-0.2-0.8-0.3C0.2,191.6,1,191.2,0.8,191.3z"/>
<path class="st0" d="M4.7,197.4l-0.3,0.1c0,0,0.4,0.1,0.8,0.2c0.4,0.1,0.9,0,0.9,0s-0.3,0-0.7-0.1C5,197.5,4.7,197.4,4.7,197.4z"/>
<path class="st0" d="M12,196.8c-0.6-0.3-0.9,0-1.4,0.5c-0.1,0.1-0.2,0.2-0.3,0.4c-0.1,0.1-0.3,0.2-0.4,0.3c-0.2,0.1-0.3,0.2-0.5,0.2
	c-0.2,0-0.4,0.1-0.6,0.1L8.6,198c0,0-0.1,0.3-0.3,0.6c-0.2,0.3-0.4,0.5-0.4,0.5c0.6,0,1.1-0.3,1.5-0.5c0.4-0.2,0.8-0.5,1.1-0.7
	c0.3-0.3,0.6-0.5,0.8-0.7C11.6,197,11.8,196.9,12,196.8z"/>
<path class="st0" d="M16.1,196.7c-0.2-0.1-0.2-0.3-0.2-0.3c0,0,0,0,0,0.1c0,0.1-0.1,0.2-0.3,0.6c0.1,0,0.1,0,0.2,0
	c0,0,0.1-0.1,0.2-0.2C15.9,196.8,16,196.7,16.1,196.7z"/>
<path class="st0" d="M15.7,197"/>
<path class="st0" d="M16.9,195.2l0,0.7c0.3,0.1,0.7-0.3,0.7,0C17.8,195.4,17.5,195.3,16.9,195.2z"/>
<path class="st0" d="M16.5,194.2l0,0.4C16.6,194.6,16.7,194.5,16.5,194.2z"/>
<path class="st0" d="M16.3,195.3l0.1-0.8c-0.2-0.1-0.5-0.3-0.1,0.3C16.1,194.6,16.3,194.9,16.3,195.3z"/>
<path class="st0" d="M16,195.4c-0.4,0.1-0.8,0.3-0.8-0.5C14.6,196,15.4,196.4,16,195.4z"/>
<path class="st0" d="M11.4,195.6c0,0-0.6,0-0.6,0c0,0,0,0.2,0,0.3c0,0.2,0,0.3,0,0.3C10.7,196,11.7,195.9,11.4,195.6z"/>
<path class="st0" d="M19.7,192.9c-0.2-0.2-0.7-0.3-1-0.5l0,0.5C19,192.8,19.4,192.6,19.7,192.9z"/>
<path class="st0" d="M18.7,192.3l0-0.8C18.4,192,18.5,192.2,18.7,192.3z"/>
<polygon class="st0" points="15.5,193.2 15.5,194.6 15.6,193 "/>
<polygon class="st0" points="21.3,191 21.6,191.7 21.2,190.6 "/>
<path class="st0" d="M22.3,189.7c0.2,0.5,0.9,0.3,1,0.7c0.2-0.4,0.1-1,0-1.5C23.2,189.3,22.9,189.6,22.3,189.7z"/>
<path class="st0" d="M23.2,188.1c0,0.2,0,0.5,0.1,0.8C23.3,188.7,23.3,188.4,23.2,188.1z"/>
<path class="st0" d="M19.6,190.8c0.2,0.1,0.6,0.3,0.9,0.1l-0.8-0.3C19.7,190.7,19.6,190.7,19.6,190.8z"/>
<path class="st0" d="M19.7,190.6L19.7,190.6c0.2-0.2,0.4-0.3,0.4-0.4C20.1,190.3,20,190.4,19.7,190.6z"/>
<path class="st0" d="M19.5,190.8L19.5,190.8C19.5,190.8,19.5,190.8,19.5,190.8z"/>
<path class="st0" d="M17.1,192.3c-0.1-0.6,0.1-1.5-0.9-1.3C16.4,191.6,16.9,191.5,17.1,192.3z"/>
<path class="st0" d="M18.6,190.5l-0.6,0.4c0.2,0.1,0.5,0.2,0.5,0.5L18.6,190.5z"/>
<polygon class="st0" points="18.6,190 18.6,190.5 18.8,190.3 "/>
<path class="st0" d="M21.9,188.5c-0.1-0.4,0.1-0.7,0.3-1c-0.4,0.2-0.7,0.5-0.9,0.8C21.4,188.4,21.6,188.8,21.9,188.5z"/>
<path class="st0" d="M20.8,189.5C20.8,189.4,20.8,189.4,20.8,189.5C20.7,189.4,20.7,189.4,20.8,189.5z"/>
<path class="st0" d="M24.5,184.7c0,0-0.1,0-0.1,0C24.4,184.7,24.4,184.7,24.5,184.7L24.5,184.7z"/>
<path class="st0" d="M21.1,188.2c-0.3,0.1-0.3,0.4-0.2,0.7c0.1-0.2,0.2-0.4,0.3-0.6C21.2,188.1,21.1,188.1,21.1,188.2z"/>
<path class="st0" d="M23.6,187.1c-0.2,0-0.4,0.1-0.7,0.1C23.2,187.2,23.7,187.2,23.6,187.1z"/>
<path class="st0" d="M21,189.5C21,189.5,21,189.5,21,189.5C21.2,189.5,21.1,189.5,21,189.5z"/>
<path class="st0" d="M21,189.5c0-0.2-0.1-0.4-0.1-0.6c-0.1,0.2-0.1,0.4-0.1,0.5C20.9,189.4,20.9,189.4,21,189.5z"/>
<path class="st0" d="M21.4,180.7c0.5,0.5,0.5,1.5-0.5,1.5c0,0.9,2.1,2,3.5,2.5c-0.2-0.2-0.5-0.4-0.3-1.2c-0.5-0.1-1.7,0.6-1.8-0.3
	c0.3-0.9,0.7-0.4,1.2-0.5c-0.9-0.3-0.3-1.7-1.4-2.4l-0.1,0.9C21.7,181.1,21.6,180.6,21.4,180.7z"/>
<path class="st0" d="M23.5,185.6l-0.1,0.3c0.3-0.2,0.7-0.2,1.4-0.1c0-0.6-0.1-0.8-0.3-1l-1,1L23.5,185.6z"/>
<path class="st0" d="M22.6,186.8c-0.5-0.7-0.3-1.4-1.2-1.6c-0.5,0.7,0.1,0.9,0.1,1.5C22.1,185.5,21.5,187.2,22.6,186.8
	c-0.1,0.2-0.3,0.4-0.4,0.6c0.2-0.1,0.5-0.2,0.7-0.3c0,0,0,0-0.1,0l0,0l0,0c-0.1,0-0.2,0-0.1-0.1c0,0,0,0,0,0
	C22.7,187,22.6,186.9,22.6,186.8c0.4-0.2,0.2,0.1,0.2,0.2c0,0,0,0.1,0.1,0.1l0,0l0.5-1.3C23.1,186,22.9,186.3,22.6,186.8z"/>
<path class="st0" d="M15.3,189.4c0.1,0,0.1,0.1,0.2,0.1C15.4,189.4,15.4,189.3,15.3,189.4z"/>
<path class="st0" d="M16,189.3c0,0.1,0.2,0.4-0.1,0.6c-0.4,0.1-0.3-0.2-0.5-0.4c0,0.3,0,0.9,0.7,0.7l0-0.1c0.5-0.2,1.7-0.1,1.8,0
	C17.2,189.7,16.8,189.5,16,189.3z"/>
<path class="st0" d="M19.2,187.9l0.4-1.1l-0.9,0L19,187C18.5,187.4,19,187.6,19.2,187.9z"/>
<polygon class="st0" points="24.9,184.9 25.4,185.5 24.9,184.3 "/>
<polygon class="st0" points="25.7,183.7 26.2,184.2 26.1,183.6 "/>
<path class="st0" d="M9.6,31.5l0.2,1.1C9.7,32.1,9.7,31.7,9.6,31.5z"/>
<path class="st0" d="M9.6,24.3l-0.4-0.4C9.5,24.3,9.6,24.6,9.6,24.3z"/>
<path class="st0" d="M95.4,100.2c1.5-0.7,3.3-1.3,2.6-1.7l-0.9-0.2C96.5,99.2,96,99.8,95.4,100.2z"/>
<path class="st0" d="M49.3,45.6c0.1,0.2,0.2,0.3,0.3,0.5c0.4-0.1,0.7-0.1,1-0.1C50.2,45.8,49.8,45.7,49.3,45.6z"/>
<path class="st0" d="M47.4,48.2l-1.3-1.7C46.4,46.9,46.8,47.5,47.4,48.2z"/>
<path class="st0" d="M10.4,71.3l0.8,1.5C11.2,71,10.8,71.6,10.4,71.3z"/>
<path class="st0" d="M54.1,149.3c1.1-0.8,1.8-1.5,2.4-2.1C55.2,148,53.9,148.6,54.1,149.3z"/>
<path class="st0" d="M1.5,23.5c0.1,0.7,0.3,1.1,0.4,1.2C1.8,23.9,1.7,23.5,1.5,23.5z"/>
<path class="st0" d="M58.9,144.3c-0.2,0.1-0.4,0.3-0.6,0.4c-0.5,0.8-1,1.6-1.8,2.4C57.5,146.5,58.5,145.6,58.9,144.3z"/>
<path class="st0" d="M9.8,173.9C9.7,173.9,9.7,173.9,9.8,173.9C9.8,174,9.8,173.9,9.8,173.9z"/>
<path class="st0" d="M1.8,187c0-0.1,0-0.4-0.1-0.6C1.7,186.5,1.7,186.7,1.8,187z"/>
<path class="st0" d="M36.7,171.1"/>
<path class="st0" d="M31.4,172.6c0.1-0.2,0.1-0.4-0.1-0.5C31.4,172.3,31.4,172.4,31.4,172.6z"/>
<path class="st0" d="M61.2,133.9C61.2,133.9,61.2,133.9,61.2,133.9C60.9,134,61,134,61.2,133.9z"/>
<path class="st0" d="M35.5,171.9c0.3-0.2,0.6-0.5,1-0.8C36.3,171.3,36,171.5,35.5,171.9z"/>
<path class="st0" d="M35.9,172c-0.2,0.2-0.4,0.4-0.6,0.6C35.4,172.8,35.5,172.8,35.9,172z"/>
<path class="st0" d="M37.5,170c-0.3,0.4-0.7,0.8-1.1,1.1c0.2-0.1,0.2-0.1,0.2-0.1C36.9,170.9,37.1,170.6,37.5,170z"/>
<path class="st0" d="M7.7,136.8c0,0.1,0,0.1-0.1,0.2C7.9,138,7.9,137.6,7.7,136.8z"/>
<path class="st0" d="M86.7,80c0,0,0.1,0,0.1,0C86.7,80,86.7,80,86.7,80L86.7,80z"/>
<path class="st0" d="M83.7,78.4c1.7,0.1,2.2,0.7,3,1.5l0.5-2.5L83.7,78.4z"/>
<path class="st0" d="M1.8,145.9l0.2-0.6C2.3,146.7,2.1,146.3,1.8,145.9z M40.5,164.9c-0.1,0.3,0,0.4,0.2,0.4c0-0.3,0.4-0.9,1-1.5
	C41.3,163.8,41,164,40.5,164.9z M42.8,162.6C42.9,162.6,42.9,162.6,42.8,162.6C44.1,161.6,43.7,161.9,42.8,162.6z M52.8,50.5
	c-0.5,0-1.1-0.7-1.6-1.6C51.7,49.3,52.3,49.8,52.8,50.5z M11.7,20.4c-0.1,0.1-0.3,0.3-0.4,0.4c-0.1,0.1-0.3,0.1-0.5-0.2
	C10.5,19,11.2,19.8,11.7,20.4z M9.8,48.9l0.7-2c1.2,3.5,0.8,5.3,1.8,3.7c-2.5-1.7-0.3-9.2-2.7-11l0.5-1.2c0,0.4,0.1,0.6,0.1,1
	c1.2-2.3-1.8-3.3-1.4-7c0.2-1.2,0.5-2,0.8-0.9L9,28.1c0-0.9,0.5-0.4,0.4,0.5l-0.2-4.7l0.1,0.1c-0.2-0.4-0.4-1.2-0.7-1.8
	c-0.2-0.4-0.4-0.9-0.5-1.3c0.5-0.4,0.2,0.6,0.5,0.7c0,0-0.1-0.5-0.2-1c0-0.3,0-0.5,0-0.7c0-0.2,0-0.3,0-0.3c0.4,0.1,0.6,0.7,0.7,1.2
	c0.1,0.5,0.1,1.1,0,1.4c0.6,0.2,0.9,0.4,1,0.3c0.1,0,0-0.2,0-0.5c-0.1-0.3-0.1-0.7,0.1-0.9c0.2-0.3,0.7-0.3,1.2,0.4
	c0,0-0.2,0.1-0.3,0.2c-0.1,0.1-0.3,0.3-0.3,0.3c0.7,0.9,0.9,1.2,1.1,1.5c0.1,0.1,0.2,0.2,0.2,0.4c0,0.1,0.1,0.2,0.1,0.3l0,0.2l0,0.1
	c0,0,0.1,0.1,0.2,0.2c-0.2-0.3-0.1-0.5-0.2-0.8c0-0.3-0.1-0.8-0.3-1.2c-0.3-0.9-0.8-1.8-0.3-2c0.2,0.2,0.3,0.4,0.5,0.5
	c0.1,0,0.2,0.1,0.3,0.1c0,0,0,0,0.1,0l0.2,0.1c0.1,0.1,0.3,0.1,0.4,0.1c-0.1,1.1,1.1,1.7,2.5,2.8l-0.2,1.3c1.6,0.8,1.5,0,2.5,0.1
	c1.7,1.5,1.9,2.8,2.2,4c2.7,2.4-1.6-3.2,1.6-0.8c2.2,2.3,3.8,3,6.7,4.5c1.5,1.7-0.4,0.6,0.1,1.4l1.6,0.1c0.3,0.3,0.2,0.5,0.1,0.6
	c1.3,0.6,0.4-1.2,2.3,0c0.8-1,3.4,5.1,6.1,5.4c0.5,0.8-0.5,0.5-0.4,1.2c3.4,1.5,2.9,1.4,5.9,2.2l2,2.6c-1.4-2.2,1.1-1.6,3.2-0.9
	c-0.4-0.9-0.8-1.6-1.1-2.1l3.2,1.8c0.3,0.5-0.1,0.6-0.8,0.7c0.2,0.1,0.5,0.1,0.6,0.2c0.9,1.3,0.1,1.5-0.9,1.5
	c-0.3-0.5-0.5-1.1-0.8-1.6c-1,0.1-1.9,0.4-2,1.2c0.2,0,0.6,0.2,1.1,0.5c-0.3,0-0.4,0.1-0.4,0.3c0.1,0.2,0.4,0.2,1,0.3l0.2,1.8
	l0.3-0.4l3.5,3.9c3.2,0.9,6.4,1,11.1,4.1c-1.5,0-0.9,1.3-1.5,2.3c-0.7-2.1-3.6-2.2-5.7-4.3c1.1,1.1,0.6,1.4,0.3,1.3l4.5,2.2
	c-0.5,0.8,0.6,1.3,1.4,2.5c0-2.3,3.5,1.3,5.4,2.1c-0.2,0.6-0.9,0.9-2.8-0.8c1.5,3,3.9,0.4,5.5,3.1c-0.5-0.4-0.7-0.7-1.1-0.6
	c1.4,0.4,4,3.1,3.1,3L73,68.1c3.1,2.8,9.8,7.9,11.2,7c-0.1,0.2-1.5,1.2-1.9,1.3c0,0,2.2,0.1,4.4,0.2c2.2,0.1,4.5,0.3,4.5,0.3
	c-1.3,0.6-1.3,4.7-4.4,3.2c0.7,0.8,1.5,1.7,3.4,2.6c-0.4-0.6-0.1-2.6,0.7-2.1c0.3,0.7,0.5,1.1,0.6,1.5c0.2,0.3,0.2,0.5,0.3,0.7
	c0.1,0.2,0.2,0.4,0.3,0.7c0.1,0.3,0.2,0.7,0.2,1.3c0-0.4,0.4-0.7,1-0.8c0.3,0,0.6,0,0.9,0.2c0.3,0.2,0.5,0.4,0.7,0.7
	c-0.4-0.1-1.9,0.8-2.2,0.6c0,0,0.2,0.1,0.5,0.3c0.1,0.1,0.3,0.2,0.5,0.3c0.2,0.1,0.3,0.3,0.5,0.4c0.7,0.6,1.2,1.5,1.2,1.5
	c-0.2-0.4-0.6-0.4-1.1-0.3c-0.4,0.2-0.9,0.5-1.2,0.7c0.2-0.1,0.2,0.4,0,1.1c-0.2,0.6-0.6,1.3-0.7,1.6c0,0,0.9-0.8,0.9-0.8
	c-0.3,0.7-0.5,1.2-0.6,1.8c0,0.5-0.2,1.3-0.3,1.9c-0.1,1.3-0.3,2.7-1.8,4.4c0-0.7-1.1-2.7-2.8-1.1c0.1,1.5,0.9,6.8-1.1,10.4l-1,0.2
	l-1.4,2.8c0-2.5,0.9-8.7,1.8-11.8c-1.5,1-0.8-0.1-2.4,1.9c-1,0.3,0.2-1.6,0.7-2.2l-4.1,4.3c1.1,0.6-2,4.3-1.1,4.8l3.2-5.8
	c1.1,0.6,0.3,5.1-2.6,8.2c-1.1,0.5-1.2-2-1.5-2.2c0,0.7-2,3.6-2.4,3.7l0.6-1.8c-1.9,1.5-1.2,4-3.9,5.4c-0.7,0.7-3.1,1.2-2.6,1.8
	c2.1-0.3,5.6,2.2,5.7,3.7c-0.3,0.2-4.3,3.1-5.5,3.5c-1.9,0.5-0.5-3.5-2.1-3.1c0.2,0.3,0,1.2-0.2,1.6c-0.9,0.6-0.5-1-1.8,0.8
	c0.7,1.1-3,3.4,0.1,1.5c-1.1,1.9-1.7,1.6-3.3,3.6c1.1-0.1,0.6,3.5-0.5,5.4c-0.2-0.3-0.8-0.2-1.1-0.1c-2.9,3.3-4.9,4.8-7.6,8
	c-0.5,0.1-2,1.4-1.9,0.4c-0.2,0.6-0.2,1.3-1,2.3c-2.4,1.2,1.7-2.3-0.5-1.7c0.4,0.6-1.4,3.2-2.2,4.9c1.2,0.3,2.9-3.1,3.7-4.8
	c1.2,1,0.4,4.5-1.9,8.2c-1.9,2.9-1.7,0.5-1.9,1.1c-4.4,4.8-1.5,6-5.8,9.4c-2.1,1-1.6-1.2-2.4-1.3c1.5-2.4,3.2-2.9,4.4-4.4l-1.9,1.5
	c0.3-0.9,1.3-2.5,2.2-3.1c-1.8,0.8-7.2,8.3-11,11.6c-0.3,0.9-1,2.3-0.3,2l0.9-1.3c1.5-0.6-1.1,3,0.5,1.7c-0.9,2-1.8,4.4-4.1,6.4
	l-1.2-0.3c0.3,0.2,1.8-1.1,2-1.9c-0.4,1.3-4.1,2.5-3.9,4.5l1.9-1.1c-0.9,2-1.7,4.8-3.7,6.6c1.6-0.2,0.3-0.5,2.5-1.2
	c-2.3,0.2,4.4-5.2,1.4-4.2c2.4-0.5,2.6-2.2,5.2-3.3c-0.3-0.2-1.1,0.2,0.5-1.4c0-0.1,0-0.4,0.1-0.6c0.1,0,0.1-0.1,0.1-0.1
	c0,0-0.1,0-0.1,0.1c0-0.1,0-0.1,0,0c-0.5,0.3-0.9,0.5-1.2,0.5c0.1-1.4,2.3-4.1,2.8-5.3c1-0.9,0,0.7,0.7,0.4l0.6-1.8
	c0.7,0.4,3.3-1.8,1.7,0.9l1.8-2.1c1.4-1,3-2.6,3.6-3.9c1-0.9,1.4-3.1,1.2-1.8l2.4-3.7l0.2,0.1c2.9-3.3,4.7-7.7,9-10.6
	c0.8-1.3,1.5-2.6,3.3-4.3l0.8,0.1c1-1.6,4.1-3.9,4.1-4.9c2.8-0.3,6.1-6.7,8.5-9l-0.6-0.7c1.5-1.7,2.7-3.5,4.2-5.9l-0.7-0.4
	c1-2.3,4.4-4.4,6.8-7.4c0.1,0.4-0.6,1.1-1.2,1.5c4.4-2.3,5.2-8.3,8.9-10.6c0.4-1,1-1.5,1.6-1.9c-0.1,0.1-0.1,0.2-0.1,0.2
	c0.1-0.1,0.2-0.2,0.3-0.3c0.4-0.3,0.8-0.5,1.3-0.8c-0.4,0.2-0.8,0.4-1.1,0.6c0.5-0.6,1.2-1.6,1.8-2.7l1,0.2c0.1-0.1,0.1-0.1,0.2-0.2
	c1-0.7,0.3-1-0.6-0.9c0.1-0.3,0.2-0.5,0.4-0.8c0.1-0.3,0.3-0.6,0.3-0.9c0.9-0.1,1.4-1.1,1.8-2.2c0.3-1.1,0.5-2.2,1.4-2.9
	c-0.2-0.6-0.2-2.7-0.8-4.6c-0.6-1.9-1.8-3.5-2.6-3.4c0.1-0.1,0-0.6,0.4,0.1c-0.6-1.5-1.6-3-3-3.6c0,0,0-0.1,0-0.2
	c0-0.1,0-0.3,0.1-0.4c0.1-0.3,0.1-0.6,0.1-0.6l-3.2-0.7c-1-1.6-1.3-2.4,0.6-2c-4.1-1.6-3-1.8-6.6-3l0.5-0.5c-1-0.8-3.2-1.3-3.5-2.3
	c-1.5-3-11.1-9.1-16.4-14.9c0.2,2.8-2.3-3-3.3-1.7c-0.1-0.7-0.8-1.6,0.3-1.3c-3.2-1.9-4.2-4.3-6.8-4.7c-0.2-0.7,0.9-0.2,0.7-0.7
	c-0.3-0.1-1.1-0.4-1.3-0.9c-0.2-0.5,0.6,0,1.2,0.1c-3.1-2.4-4-1.2-4.7,0c-1.3-1.9-2.1-2.4-3.5-2.4c-0.4-0.9-1.1-2.1,0.8-0.7
	c-1-0.9-6.3-5.9-6.7-4.8c-0.2-0.6-1.5-1.3-1.8-1.4c-2.4-2-2.5-2.2-4.9-4l0.6,0.7c-1.3,0.7-2-1.2-3.9-2.6l0.1-0.1c-4.1-4.5-2-1-6-5.6
	l0.1,1.1c-0.7,1.7-3.6-4.2-6.2-5.4l0.8,1.2c-1.4-0.4-3.4-5.8-4.8-7.1c-0.3-0.4,0.5,0.1,0.9,0.3c-3.5-4.1-0.6,0.9-3.3-1
	c-0.4-1.1,0.8-1.2-1-2.8c-0.7-0.6-3-1.1-5.3-0.5C7,10.4,5.7,11,4.8,11.9c-1,0.8-1.7,1.8-2.3,2.4c0.4-0.2,0.8-0.4,1-0.3
	c0.2,0.1,0.1,0.5-0.1,1.5c-0.2,0.7-0.5,1.5-0.8,2.3C2.3,18.6,2.1,19.2,2,20c-0.3,1.4-0.4,2.9,0.3,4.5c-0.1,0.2-0.2,0.3-0.3,0.2
	c0.4,2.1,0.6,6.4,1.3,7.9c-1.4,0-1.1,3.1-0.7,5.9C3,41.3,3.4,44,2.1,43.2L2.2,49l-0.3-0.3c-0.2,3.5,0.4,5.1,1.1,6.7
	c-0.2,0.7-0.4,0-0.6-0.1c-0.5,5-0.4,5.6,0.9,10.7L2.5,66c0.5,1.4-1.3,7-0.4,12.7c-0.1-0.1-0.3-0.3-0.4-0.7c1,6.2-2.4,13.1,0.7,16.4
	l0.8,4.1c0.2-4.9,1.4,1.2,1.9-0.6c0.2,2-1,4.7-1.1,2.3l0.2-0.3c-1.6-1.4-0.6,6-1.7,5.5c0.1,9.8-0.9,19.1-0.9,28.3l1.3-0.8l-0.1,3.2
	c-0.3,0.8-1,0.9-1-1.4c-0.7,1.1,0.6,4,0.9,4.1c-0.5,4.4-1.5-2-1.5-0.7l0.1,1.9l0.2-0.4c0.5,1.6,1.1,1.8,1,4.6
	c-0.3,1.7-0.8,0.8-0.9,1.4c-0.1,0-0.1,0.2,0,1l-0.1,4l1-1.5c0.5,1.9-0.1,3.8,1.1,2.1c-0.2,0.3-0.4,0.8-0.5,1.4
	c-0.1,0.3-0.1,0.6-0.2,1c0,0.2,0,0.4-0.1,0.5l0,0.3l0,0.1c-0.2,0.5-0.2,1.1-0.2,1.6c0,1.2,0.1,2.3-0.1,2.5c0.8,0.9,0.7,1.7,0.6,2.6
	c0.2-0.2,1.4-0.2,1.2,0.6c-2.4-0.6-1,1.4-2.8,1.9c1.2-0.5,0.3,2.4,1.9,1.6c-0.2,0.7-0.9,0-1.5,0.4c0.9,1.8-0.6,3.6-0.3,5.7
	c0.3,0.1,0.8-0.3,1.3,0.2l-1.6,1c0.2,0.4,1.8,0.5,0.7,1.2c0.3-0.1,0.7-0.2,0.8,0.1c-1.6,4,1.3,8.3-1.7,12.3c0.6-0.5,0.7-0.2,0.7,0.3
	c0.1-0.3,0.8,0,1.2,0l-1.2,1.7c1.2,0.3,0.1,1.8,1.2,2l-0.2-0.5c1.4,0.7,3-1,4.8-0.9c-1.5-0.8,2.3-2.1,0.1-3.4c0.4-0.3,0.6,0.3,1,0.1
	c-0.7-0.3-0.9-0.8-0.6-1.5l0.2,0.1c-0.2-2.1,0.6-2.9,1-5.2l-0.9,0.1c0.1-0.5,0.4-0.6,0.6-0.8c-1.3-0.6-0.1,1.4-1.5,0.8
	c1.8-0.6,0-3.5,2-3.9c0-0.8-1,0.2-1-0.6l0.5-0.2l-0.7-0.2c0.1-0.5,0.8-0.7,1.2-0.7c-0.1,0.1,0.1,0.4,0.2,0.5c0.6-0.6-0.2-1.9,0-2.1
	l-0.3,0.7c-0.5-2.1,0.2-4.6-0.9-6.8l-0.4,0.1c-0.8-1.6,0.4-1.2,0.1-2.9l0.1,0.1c-0.4-0.4-0.6-0.9-0.6-1.3c0.5,0.5,0.9-0.7,1.5-0.1
	c-0.8-1.8-0.6-0.9-2.1-2.2l0.7-0.2c-0.6-0.5-0.9-0.5-1.1-1.4c0.6,0.8,1-0.4,1.8,0.5c0.7-0.8,0.4-1.5,0.1-2.1
	c-0.1-0.3-0.3-0.5-0.2-0.8c0-0.1,0.1-0.2,0.2-0.3c0,0,0.1,0,0.1-0.1l0.1,0l0.1-0.1c0.1-0.1,0.2-0.3,0.3-0.4c-0.5-0.7-0.8-0.8-1-0.5
	c-0.2,0.2-0.3,1.1-0.3,1.1c-0.1,0.4,0,0.9-0.2,0.7c-0.3,0.1-0.7-0.1-0.9-0.4c-0.1-0.2-0.2-0.4-0.3-0.5c0,0,0-0.1,0-0.1
	c0-0.1,0-0.3,0-0.4c0-0.3,0-0.5,0-0.7c0-1.8,2.4-2.7,2.4-7.2c0,0.4,0.1,0.5,0.1,0.9c0.5-1.6-0.6-3.4,0.1-5.3
	c-1.1-1.4,0.1-2.7-1.4-3.3L8,143c-0.4-2.4-2.1-5-1.2-8.7c0.3,0.4,0.7,1.6,0.9,2.4c0.4-1-0.3-2.2,0.2-3.3c1.4,0.7,0.3,5.1,1.4,7.8
	c0.6-1.1-1-4.9,0.5-3.4c-2-2.2,0.3-4.4-1.3-7.7l0.9,0.4c-0.1-0.5-0.5-1.6-0.5-2.5l1.1,1.9c-1-2.7,0.8-4.5,0.3-7c0,4.9-1,0.8-1.7,2.8
	c-1.2-6.4,2.3-2.9,1.8-9.8c0.1,1-0.5,3.3-0.9,1.7c0.2-1.2,0.5-2.9,1-3.5c-0.2-4.6-0.9,0.4-1.4-1.7c1.1-1.2-0.4-2.3-0.8-4.4l0.9,0.3
	c0.6-5-1.8-2-1.1-6.4l1.2,2.4l-0.3-2.5l1,0.8c-0.7-2.9-0.5-3.6-0.3-6.1C9,96.9,8.1,95.6,8,93.3c0.5-1.4,0.8,1.2,0.7-2.1
	c0.5,0.9,1.2,2,0.4,3.1c0.3,0.3,0.6,0.9,0.8,1.2c0.6-1.4,0.1-4.1,0.1-5.3c0,0.4-0.1,1-0.2,1.2l-1.2-5.2C9,85.6,9.3,86.3,9.6,87
	c-0.1-1-0.5-1.8-0.6-3.2c0.7,0.7,1.4,0.9,1.8,3L10,82c0.3-0.2,0.9-1.9,1.1-1.2c0.4-2.3-1.4-6.7-0.8-9.7c-0.1-0.2-0.3-0.6-0.4-1.4
	c0.2-3,1-5.3,0.1-9.4l1.3-1.4c-0.3-3-1.6,2-2.1-3.1c-0.4-3.6,1.1-0.7,1.4-1.7c-0.6-2-2-5.7-0.9-8.2C9.9,47.2,9.7,47.9,9.8,48.9z"/>
<path class="st0" d="M47.6,47.9c-0.1-0.3-0.1-0.5-0.1-0.7C47.3,47.2,47.3,47.4,47.6,47.9z"/>
<path class="st0" d="M10.3,71c0,0,0,0.1,0,0.1c0.1,0.1,0.1,0.1,0.2,0.2L10.3,71z"/>
<path class="st0" d="M66.7,121.9c0.5-0.4,0.9-0.6,1.2-0.7C67.7,121,67.4,121.1,66.7,121.9z"/>
<path class="st0" d="M30.7,178.9l1.1-1.7c-0.6,0.8-1,0.9-1.4,1.2C30.6,178.5,31.1,178.4,30.7,178.9z"/>
<path class="st0" d="M20.1,183.1c0,0.1-0.1,0.2-0.1,0.3l0.3,0.2C20.6,183.3,20.5,182.9,20.1,183.1z"/>
<path class="st0" d="M27.2,178.5c-0.7-0.3-1.3,0.8-2.1,2c0.1-0.1,0.1-0.1,0.2-0.2C25.8,181.3,26.5,179.9,27.2,178.5z"/>
<path class="st0" d="M24.9,180.7c-0.1,0.2-0.3,0.4-0.4,0.5l-0.2,0.3l-0.1,0.1l0,0c0.1,0.1,0.1,0.1,0.1,0.1c0,0,0,0,0.1-0.1
	C24.6,181.4,24.7,181.1,24.9,180.7z"/>
<path class="st0" d="M38.3,168.3c-0.6,0.4,0.4,0.9,0,1C38.5,170.5,40.3,165.1,38.3,168.3z"/>
<polygon class="st0" points="24.6,177.8 25.7,178 25.6,176.9 "/>
<path class="st0" d="M32.5,169.5l-1.7,1.6c0.1,0.1,0,0.4-0.2,0.7C31.6,170.7,32.7,169.6,32.5,169.5z"/>
<path class="st0" d="M30.6,171.8c-0.5,0.6-0.9,1.1-1.1,1.5C29.8,173,30.3,172.3,30.6,171.8z"/>
<polygon class="st0" points="26.4,175.2 27,174.8 28.1,173.6 "/>
<path class="st0" d="M48.5,150.6l1.4-2.1c-0.1-0.4-0.7,0-1.2,0.8C48.5,149.9,48,150.7,48.5,150.6z"/>
<path class="st0" d="M41.7,154.8c0.6-0.4,0.8-0.3,1.2-0.4l-0.8-0.8L41.7,154.8z"/>
<path class="st0" d="M46.2,149c-0.1-0.4,1.7-3.4-0.3-0.9C45.9,148.5,44.5,150.6,46.2,149z"/>
<polygon class="st0" points="71.6,120.9 71.2,121.4 72.7,122.5 "/>
<path class="st0" d="M89.6,92.4c-2.3,2,0.4,1.3-1.7,3c-0.1,0.8,1.8-1.4,1.6-0.6C90.3,93.1,91.1,92.5,89.6,92.4z"/>
<path class="st0" d="M89.5,94.8c-0.1,0.3-0.3,0.6-0.4,0.9C89.3,95.2,89.4,94.9,89.5,94.8z"/>
<polygon class="st0" points="0.8,189.3 0.4,189.9 1,189.5 "/>
<path class="st0" d="M2.2,190.5L1,190.6l1.1,0.4C2,190.8,1.9,190.6,2.2,190.5z"/>
<path class="st0" d="M14.4,25.4l0.1-0.2c-0.2-0.5-0.5-0.8-1.2-1.4L14.4,25.4z"/>
<polygon class="st0" points="10.7,34.6 10.8,34.1 9.7,34.3 "/>
<path class="st0" d="M12.1,56.7c0-0.8-0.2-2-0.1-2.8C12.1,55.8,10.8,56.2,12.1,56.7z"/>
<path class="st0" d="M321.2,196.4c-0.2-0.3-0.7,0.3-0.8,0.3C320.9,197,321.3,196.2,321.2,196.4z"/>
<path class="st0" d="M328.1,198.6l-0.2,0.3c0,0,0.4-0.2,0.8-0.4c0.4-0.2,0.7-0.5,0.7-0.5s-0.3,0.2-0.6,0.4
	C328.4,198.5,328.1,198.6,328.1,198.6z"/>
<path class="st0" d="M333.3,193.4c-0.7,0.2-0.7,0.6-0.8,1.2c0,0.2,0,0.3,0,0.5c0,0.2-0.1,0.4-0.1,0.5c-0.1,0.2-0.1,0.3-0.2,0.5
	c-0.1,0.2-0.2,0.3-0.4,0.4l-0.4,0c0,0,0.1,0.3,0.2,0.6c0.1,0.3,0.1,0.6,0.1,0.6c0.4-0.4,0.6-0.9,0.9-1.3c0.2-0.4,0.3-0.9,0.4-1.3
	c0-0.4,0.1-0.7,0.2-1C333.1,193.9,333.2,193.6,333.3,193.4z"/>
<path class="st0" d="M336.3,190.7c-0.3,0.1-0.4-0.1-0.4-0.1c0,0,0,0,0.1,0.1c0,0.1,0.1,0.2,0.2,0.6c0.1-0.1,0.1-0.1,0.1-0.1
	c0-0.1,0-0.1,0-0.2C336.3,190.9,336.3,190.8,336.3,190.7z"/>
<path class="st0" d="M336.3,191.2"/>
<path class="st0" d="M336,189.1l0.5,0.6c0.3-0.1,0.4-0.7,0.6-0.5C336.8,188.6,336.5,188.7,336,189.1z"/>
<path class="st0" d="M335.1,188.5l0.2,0.3C335.4,188.8,335.4,188.7,335.1,188.5z"/>
<path class="st0" d="M335.7,189.5l-0.4-0.6c-0.2,0.1-0.6,0.1,0.1,0.3C335,189.1,335.4,189.2,335.7,189.5z"/>
<path class="st0" d="M335.5,189.9c-0.3,0.3-0.5,0.8-0.9,0.2C334.7,191.2,335.6,191,335.5,189.9z"/>
<path class="st0" d="M332,193c0,0-0.5,0.4-0.5,0.4c0,0,0.1,0.1,0.2,0.3c0.1,0.1,0.2,0.3,0.2,0.3C331.7,193.7,332.5,193,332,193z"/>
<path class="st0" d="M336.7,185.4c-0.3,0-0.7,0.2-1.1,0.3l0.3,0.4C336.1,185.8,336.3,185.4,336.7,185.4z"/>
<path class="st0" d="M335.6,185.6l-0.5-0.6C335.1,185.6,335.3,185.7,335.6,185.6z"/>
<polygon class="st0" points="333.6,188.4 334.6,189.5 333.6,188.2 "/>
<polygon class="st0" points="336.7,182.9 337.3,183.2 336.4,182.6 "/>
<path class="st0" d="M336.6,181.2c0.5,0.3,0.9-0.4,1.2-0.1c-0.1-0.5-0.5-0.8-1-1.2C337.1,180.3,337,180.7,336.6,181.2z"/>
<path class="st0" d="M336.2,179.4c0.1,0.2,0.4,0.4,0.6,0.6C336.7,179.7,336.5,179.5,336.2,179.4z"/>
<path class="st0" d="M335.2,183.9c0.2-0.1,0.6-0.2,0.8-0.5l-0.8,0.3C335.3,183.7,335.2,183.8,335.2,183.9z"/>
<path class="st0" d="M335.2,183.6L335.2,183.6c0-0.3,0.1-0.5,0.1-0.6C335.3,183.1,335.3,183.3,335.2,183.6z"/>
<path class="st0" d="M335.2,183.9C335.2,183.9,335.2,183.9,335.2,183.9C335.2,183.9,335.1,183.9,335.2,183.9z"/>
<path class="st0" d="M334.3,186.7c-0.4-0.4-0.9-1.2-1.6-0.4C333.3,186.6,333.7,186.2,334.3,186.7z"/>
<path class="st0" d="M334.3,184.3l-0.2,0.7c0.2,0,0.5-0.1,0.7,0L334.3,184.3z"/>
<polygon class="st0" points="334,183.9 334.3,184.3 334.3,184 "/>
<path class="st0" d="M335.5,180.6c-0.3-0.3-0.4-0.6-0.4-1c-0.2,0.4-0.2,0.8-0.2,1.2C335.1,180.8,335.6,181,335.5,180.6z"/>
<path class="st0" d="M335.3,182.1C335.3,182,335.3,182,335.3,182.1C335.2,182,335.2,182.1,335.3,182.1z"/>
<path class="st0" d="M335.1,175.9c0,0-0.1,0-0.1,0.1C335,176,335.1,176,335.1,175.9L335.1,175.9z"/>
<path class="st0" d="M334.7,180.9c-0.1,0.3,0,0.5,0.3,0.6c-0.1-0.2-0.1-0.5-0.1-0.7C334.8,180.8,334.7,180.8,334.7,180.9z"/>
<path class="st0" d="M335.9,178.3c-0.2,0.2-0.3,0.3-0.4,0.5C335.7,178.7,336.1,178.4,335.9,178.3z"/>
<path class="st0" d="M335.5,181.9C335.5,181.9,335.5,181.9,335.5,181.9C335.7,181.8,335.6,181.8,335.5,181.9z"/>
<path class="st0" d="M335.5,181.9c-0.1-0.1-0.3-0.3-0.5-0.4c0.1,0.2,0.1,0.3,0.3,0.5C335.3,182,335.4,181.9,335.5,181.9z"/>
<path class="st0" d="M330.1,175.1c0.7,0,1.4,0.7,0.6,1.5c0.5,0.6,2.9,0.1,4.2-0.6c-0.3,0-0.6,0-1-0.6c-0.4,0.3-0.9,1.6-1.6,1
	c-0.4-0.9,0.3-0.8,0.6-1.2c-0.9,0.4-1.3-1.1-2.6-0.8l0.5,0.8C330.7,175.2,330.3,174.9,330.1,175.1z"/>
<path class="st0" d="M334.9,177.3l0.1,0.3c0.1-0.3,0.4-0.6,1-1c-0.4-0.5-0.6-0.5-0.9-0.6l-0.1,1.4L334.9,177.3z"/>
<path class="st0" d="M335,178.9c-0.8-0.2-1.1-0.8-2-0.4c0.1,0.8,0.7,0.5,1,1C333.8,178.2,334.5,179.9,335,178.9
	c0,0.3,0.1,0.5,0.1,0.7c0.1-0.2,0.2-0.5,0.4-0.7c0,0,0,0,0,0l0,0l0,0c-0.1,0.1-0.2,0.1-0.1,0c0,0,0,0,0,0
	C335.2,178.9,335.1,178.9,335,178.9c0.2-0.4,0.2-0.1,0.3,0c0,0,0.1,0,0.1,0l0,0l-0.4-1.3C334.9,177.9,334.9,178.2,335,178.9z"/>
<path class="st0" d="M331.1,185.7c0.1,0,0.1,0,0.2,0C331.2,185.5,331.1,185.5,331.1,185.7z"/>
<path class="st0" d="M331.5,185.1c0.1,0.1,0.4,0.2,0.3,0.5c-0.2,0.3-0.4,0-0.6,0c0.2,0.2,0.6,0.6,0.9,0.1l-0.1-0.1
	c0.3-0.5,1.2-1.2,1.4-1.2C332.7,184.6,332.2,184.7,331.5,185.1z"/>
<path class="st0" d="M333.1,182l-0.4-1.1l-0.7,0.6l0.4,0C332.3,182.1,332.8,181.9,333.1,182z"/>
<polygon class="st0" points="335.5,175.8 336.3,175.9 335.2,175.3 "/>
<polygon class="st0" points="335.4,174.3 336.1,174.4 335.7,174 "/>
<path class="st0" d="M259.2,73l-0.7,0.8C258.8,73.5,259,73.2,259.2,73z"/>
<path class="st0" d="M264.7,68.6l0-0.4C264.5,68.6,264.5,68.8,264.7,68.6z"/>
<path class="st0" d="M335.1,63.8c0.6-1.8,1.6-4,0.8-3.4l-0.7,0.8C335.3,62.2,335.2,63.1,335.1,63.8z"/>
<path class="st0" d="M309.4,27.3c0.1,0,0.3,0,0.4,0c0.2-0.5,0.4-1,0.6-1.5C310.2,26.3,309.8,26.8,309.4,27.3z"/>
<path class="st0" d="M309.3,31.6l-1.6,0.6C308.1,32.2,308.6,32,309.3,31.6z"/>
<path class="st0" d="M250,96.3l1.4,0.4C250.2,95.2,250.4,96.1,250,96.3z"/>
<path class="st0" d="M335,129.1c0.3-1.4,0.4-2.4,0.5-3.3C335,127.4,334.4,128.8,335,129.1z"/>
<path class="st0" d="M257,64.1c-0.4,0.5-0.5,0.8-0.4,1C257,64.6,257.2,64.2,257,64.1z"/>
<path class="st0" d="M335.5,122c-0.1,0.2-0.1,0.5-0.2,0.7c0.1,0.9,0.2,1.8,0.2,3C335.8,124.5,336,123.1,335.5,122z"/>
<path class="st0" d="M316.7,177.1c0,0,0,0.1,0,0.1C316.8,177.1,316.7,177.1,316.7,177.1z"/>
<path class="st0" d="M319.2,192.5c-0.1-0.1-0.3-0.2-0.4-0.4C318.8,192.2,319,192.4,319.2,192.5z"/>
<path class="st0" d="M335.7,157.3"/>
<path class="st0" d="M332.6,162.3c-0.1-0.2-0.2-0.3-0.4-0.3C332.4,162,332.6,162.1,332.6,162.3z"/>
<path class="st0" d="M330.7,113.7C330.7,113.7,330.7,113.7,330.7,113.7C330.5,114,330.6,113.9,330.7,113.7z"/>
<path class="st0" d="M335.3,158.8c0.1-0.4,0.2-0.8,0.2-1.3C335.5,157.7,335.4,158.1,335.3,158.8z"/>
<path class="st0" d="M335.7,158.5c0,0.3-0.1,0.6-0.1,0.9C335.8,159.5,335.8,159.4,335.7,158.5z"/>
<path class="st0" d="M335.7,155.9c0,0.6,0,1.1-0.1,1.6c0.1-0.2,0.1-0.3,0.1-0.2C335.7,157,335.7,156.6,335.7,155.9z"/>
<path class="st0" d="M291.1,149.8c0,0.1,0.1,0.1,0.1,0.2C292.1,150.5,291.8,150.2,291.1,149.8z"/>
<path class="st0" d="M327.1,43.2C327.2,43.3,327.2,43.3,327.1,43.2C327.2,43.3,327.2,43.2,327.1,43.2L327.1,43.2z"/>
<path class="st0" d="M326.6,40.2c1,0.8,0.9,1.7,0.7,2.9l2.3-2.4L326.6,40.2z"/>
<path class="st0" d="M293.1,161.4l-0.2-0.6C294,161.7,293.6,161.5,293.1,161.4z M334.6,150.1c0.1,0.3,0.2,0.3,0.4,0.1
	c-0.2-0.2-0.2-0.9-0.2-1.8C334.6,148.7,334.4,149.2,334.6,150.1z M335,146.8C335,146.8,334.9,146.7,335,146.8
	C335.3,145.1,335.1,145.7,335,146.8z M313.8,25.9c-0.3,0.7-1,1-1.7,1.2C312.6,26.6,313.2,26.2,313.8,25.9z M272.8,61.6
	c-0.4,0.6-1.2,2-1.9,1.8C271.1,62,271.8,62.1,272.8,61.6z M246,83.9l2.3-0.9c-0.4,0.7-0.8,1.2-1.1,1.7c-0.4,0.5-0.3,0.6-0.4,0.8
	c0,0.3,0.1,0.3,0.7,0.5c-0.2-0.3-0.4-0.4-0.2-0.8c0.1-0.3,0.3-0.6,0.6-1c0.6-0.7,1.4-1.4,2.3-2.1c1.7-1.5,3.4-2.9,2.8-4l1.5-0.5
	c-0.4,0.3-0.3,0.4-0.7,0.7c3-0.9,0.7-2.9,3.9-5c1.2-0.7,2.1-1,1.5-0.1l2-2.4c0.7-0.5,0.8,0,0.1,0.5l3.5-3l0,0.1
	c0.3-0.7,1.2-2.2,1.6-2.9c1.1-0.4-0.3,0.6,0.1,0.7l1.7-2.1c1.1-0.1-0.2,1.8-1.6,2.8c3,0.7,1.3-1.9,6-3.8l-1.7,1.8
	c1.8,0.3,3-1.3,5.5-2.1c-0.7,0-5.1,1.3-3.3-1c0.7-0.3,1.5-0.9,2.5-2.3c0.4,0.8,1.4-0.3,2.8-1.5l0.4,1.2c1.4-1.5,1-2,1.7-3.2
	c1.7-1.3,2.4-0.7,3.1-0.2c2.8-2-2.4,0.1,0.7-2.7c2.4-1.4,3.8-3.1,6.3-6c1.7-0.9,0,1,0.6,0.8l1.1-2.1c0.4-0.3,0.3,0.1,0.3,0.3
	c1.1-1.3-0.3-1.3,1.5-3.1c0.1-1.8,4.4-1.1,6.3-4.5c0.7-0.1-0.1,1,0.2,1.3c2.9-3.6,2.5-2.9,4.8-6.4l2.4-0.9c-1.8,0.3,0-2.5,1.7-4.9
	c-0.7,0-1.3,0-1.6,0.1l2.9-3.1c0.4-0.1,0.2,0.6-0.2,1.5c0.2-0.3,0.4-0.5,0.5-0.7c1.1-0.4,0.7,0.8,0.1,2.1c-0.4,0-0.8,0-1.2,0
	c-0.6,1.4-1.1,2.8-0.8,3.4c0.2-0.3,0.5-0.7,0.9-1.1c-0.2,0.4-0.2,0.7-0.1,0.7c0.1,0.1,0.4-0.5,0.8-1.2l0.9,0.9l0.1-0.7l4-2.1
	c1.3-1.8,2.4-3.8,3.8-5.8c0.7-1,1.5-2,2.3-3.1c0.4-0.5,0.9-1,1.4-1.6c0.5-0.5,1-1,1.6-1.4c-0.6,1-0.7,1.5-0.6,2
	c0.1,0.5,0.2,1,0.1,1.7c-0.2-0.3-0.4-0.2-0.7,0c-0.3,0.3-0.8,0.8-1.3,1.3c-0.9,1.1-2,2.4-3.1,3.2c1.2-0.8,1,0,0.7,0.5
	c0,0,1-1.1,1.9-2.2c0.5-0.6,1-1.1,1.3-1.5c0.2-0.2,0.3-0.4,0.4-0.5c0.1-0.1,0.1-0.1,0.1-0.1c0,1.2,0.5,0.5,1,0.7
	c0-0.6,0.1-1,0.3-1.4c0.2-0.4,0.6-0.6,1.1-0.7c0.5-0.1,1,0,1.4,0.2c0.4,0.2,0.7,0.6,1,0.8c-0.3,0.4-0.6,0.6-0.9,0.7
	c-0.3,0-0.6-0.2-1.2-0.6c0.1,0.6,0.3,0.9,0.5,0.9c0.3,0.1,0.6,0,1-0.1c0.7-0.1,1.4,0.1,0.8,1.7c0-0.3,0-0.5,0-0.6
	c0-0.1-0.1-0.2-0.2-0.1c0.3,0.1,0.3,1.5,0.2,2.5c-0.1,1-0.3,1.9-0.6,1.6l0-0.6c-0.2,4.3,0,12.7,1.5,12.4c-0.2,0.2-1.9,0.6-2.2,0.5
	c0,0,1.3,1.1,2.6,2.2c0.3,0.3,0.6,0.6,1,0.8c0.3,0.3,0.6,0.5,0.8,0.8c0.5,0.4,0.8,0.7,0.8,0.7c-1.2,0-4.4,4.4-5.1,1.3
	c-0.2,1.1-0.4,2.4,0.1,4.3c0.2-0.8,1.9-2.8,2-1.9c-1.5,3.4-0.8,2.2-2.1,6c0.3-1.2,2.4-1.2,2.3,0.5c-0.3-0.1-2.1,1.2-2.3,0.8l2,2.9
	c-0.4-0.8-1.7,0.7-2.3,1.9c0.4-0.6,0,3.5,0.2,4.4l0.5-1.9c-0.3,4.7,2.9,3,2.8,7.6c-0.4-0.3-2.6-0.1-2.9,2.3c0.5,0.3,1.8,0.8,3,1.8
	c1.2,1,2.3,2.4,2.7,4.3l-0.6,1l0.7,2.8c-0.8-0.6-1.9-2-3.1-3.4c-1.2-1.4-2.3-2.9-3-4.1c-0.5,1.9-0.7,0.8-0.7,3.3
	c-0.6,1.1-0.9-1-0.9-1.7l-0.4,6c1.2-0.8,1.2,3.9,2.2,3.3l-1.3-5.8c1.2-0.8,3.5,2.2,3.3,6.5c-0.5,1.3-2.2,0.1-2.6,0.4
	c0.4,0.4,0.8,3.6,0.5,4.1l-0.7-1.5c-0.5,2.5,1.6,3.1,0.5,6.4c-0.1,1-1.6,3.5-0.9,3.4c0.7-1,2.1-2,3.5-2.7c1.4-0.7,2.6-0.9,3.1-0.6
	c-0.1,0.4-1.3,5.6-1.9,6.9c-1.1,2-2.6-1.5-3.5,0.2c0.3-0.1,0.7,0.7,0.9,1c-0.3,1.1-1-0.1-0.9,2.1c1.2-0.1-0.1,4.5,1,0.7
	c0.4,2-0.3,2.4-0.2,4.9c0.8-1.1,2.7,1.4,3.1,3.5c-0.3,0-0.7,0.6-0.9,0.9c-0.1,4.5-0.7,7-0.7,11.2c-0.3,0.5-0.7,2.5-1.2,1.8
	c0.2,0.5,0.6,1,0.7,2.2c-1.1,2.7-0.2-2.8-1.5-0.6c0.7,0,1,3,1.4,4.8c1.1-0.8,0.2-4.3-0.2-6c1.6-0.4,3.1,2.4,3.8,6.7
	c0.4,3.4-1,1.7-0.8,2.3c-0.3,6.6,2.6,5.1,1.6,10.7c-1,2.3-1.9,0.4-2.6,1c-0.4-2.8,0.6-4.4,0.6-6.3l-0.5,2.4
	c-0.3-0.8-0.6-2.7-0.3-3.8c-0.9,1.9-0.2,11-1,16.1c0.3,0.8,0.7,2.3,1.1,1.6l-0.1-1.6c0.8-1.6,1.1,2.9,1.4,0.8c0.5,2.1,1.4,4.4,1,7.4
	l-1.1,0.7c0.3-0.1,0.7-2,0.3-2.8c0.5,1.2-1.5,4.7,0,6l0.8-2.2c0.6,2.1,1.7,4.7,1.4,7.4c1.1-1.3-0.1-0.6,1.1-2.6
	c-1.6,1.8,0.1-6.9-1.6-4.1c1.5-2.1,0.6-3.4,1.9-6.1c-0.4,0.1-0.7,1-0.5-1.3c-0.1-0.1-0.2-0.3-0.3-0.5c0-0.1,0-0.1,0-0.2
	c0,0,0,0.1,0,0.1c-0.1-0.1-0.1-0.1,0,0c-0.2,0.6-0.3,1-0.5,1.2c-0.8-1-0.8-4.6-1.2-5.8c0.2-1.4,0.4,0.5,0.8-0.3l-0.6-1.7
	c0.8-0.3,1.3-3.7,1.8-0.7l0-2.9c0.4-1.7,0.6-4.1,0.3-5.5c0.2-1.4-0.9-3.2-0.3-2.2l-0.5-4.4l0.2-0.1c0.1-4.4-1.3-8.7,0.1-14.1
	c-0.2-1.4-0.5-2.9-0.2-5.4l0.7-0.7c-0.2-1.8,0.7-5.9,0-6.5c1.8-2.6,0.4-9.4,0.7-12.8l-0.9,0.2c0-2.3-0.2-4.4-0.6-7.2l-0.8,0.5
	c-0.6-2.2,0.5-6.5,0.5-10.4c0.3,0.1,0.2,1.2,0,1.9c1.7-5.4-1.3-9.3,0-14c-0.3-0.9-0.2-1.7,0-2.6c0,0.1,0,0.2,0,0.2
	c0-0.1,0-0.3,0-0.4c0.1-0.5,0.3-1.1,0.4-1.7c-0.2,0.5-0.3,1-0.4,1.4c0-0.8-0.1-2-0.3-3.1l0.8-0.9c0-0.1,0-0.2,0-0.3
	c0.3-1.3-0.4-0.8-1,0.2c-0.1-0.5-0.3-1-0.5-1.3c1.3-1.6-0.5-2.9,1-4.9c-0.7-0.5-0.5-5.8-2-5.6c0.2-0.1,0.3-0.5,0.3,0.1
	c0.2-1.4,0.3-2.9-0.1-3.8l1-1.1l-1.4-2.1c0.6-2.1,1-3.1,1.8-1.8c-1.2-3.6-0.5-3.2-1.7-6.1l0.7-0.2c0-1.3-0.9-2.8-0.4-3.9
	c0.6-1.8,0.7-5.4,0.7-9.6c0-0.5,0-1.1,0-1.6l0-0.8c0-0.3-0.1-0.7-0.2-1c-0.3-1.3-0.8-2.6-1.5-3.7c-0.8-1.1-2-1.9-3.2-2.3
	c-1.3-0.4-2.5-0.3-3.6-0.2c0.7,0.9-0.2,0.9-1.5,1.1c-0.3,0.1-0.6,0.2-1,0.2c-0.2,0.1-0.4,0.2-0.6,0.4c-0.4,0.3-0.7,0.6-0.7,1.1
	c-0.4-0.3-1.2,0.1-0.3-1.2c-2.9,2.9-4.6,2.8-6.5,5.9c-0.4-0.3,0.5-1.3,0.2-1.4c-0.2,0.3-0.9,1.2-1.3,1.2c-0.4-0.1,0.4-0.8,0.8-1.4
	c-3.1,2.6-3.1,4.4-3.1,6.1c-1.7,0.5-2.4,1.2-3.3,3.1c-0.6-0.1-1.6,0.1,0.2-1.6c-1.1,0.8-6.7,4.5-6.5,5.8c-0.4,0-1.5,1.1-1.8,1.5
	c-2.4,1.8-2.6,1.9-4.9,3.9l0.7-0.3c-0.5,2.1-1.8,1.9-3.7,3.5l0-0.2c-4.6,2.5-1.7,2-6.3,4.3l0.5,0.6c0.3,2.1-4.1,2-6.4,4.6l1.1-0.2
	c-1.1,1.7-4.8,0.6-6.2,1.5c-0.4,0.1,0.4-0.6,0.7-1.1c-4.1,1.9,0,1.4-2.6,3.8c-0.8-0.2,0-1.9-1.9-0.6c-1.1,0.3-4.3,6-7.3,6.9
	c0.8,0,1.5,0,0.5,1.3c-1.8,1.6-6,2.6-7,5.2c-0.3,0.1-0.5,0.1-0.5,0c-1.2,1.5-4.4,4.3-4.8,5.7c-1.5-0.7-3.6,1.4-5.4,3.4
	c-1.8,2-3.5,3.8-4.3,2.7c0,0-0.3,0.2-0.7,0.6c-0.3,0.3-1.2,1-1.8,1.7c-0.6,0.7-1.2,1.5-1.5,2.1c-0.2,0.3-0.3,0.6-0.4,0.7
	c-0.1,0.2-0.1,0.3-0.1,0.3l-0.2-0.3c-1.2,2.2-1.3,3.9-1.2,5.1c0.1,0.6,0.2,1.1,0.4,1.6c0.2,0.5,0.4,0.8,0.6,1.2
	c0,1.1-0.4,0.4-0.6,0.3c0.3,3.4,1.5,5.2,2.7,6.5c1,0.9,2,1.6,4,2.9l-0.4,0.9c1.2,0.6,3.8,6.7,7.9,10c-0.1,0-0.3,0.1-0.7-0.2
	c4.5,3.7,6.9,12.2,10.8,11.7l3.1,2.4c-3-3.9,1.6-0.4,0.7-2.3c1.4,1.4,2.5,4.5,0.8,2.8l-0.1-0.4c-1.9,0.4,3.5,5.1,2.5,5.7
	c6.3,7.4,11.6,15.2,17.4,22.2l0.4-1.7l2,2.5c0.3,0.8-0.1,1.5-1.5-0.2c0.2,1.4,2.9,2.5,3.2,2.4c2.4,3.7-2.3-0.3-1.5,0.7l1.3,1.3
	l-0.1-0.4c1.4,0.8,1.9,0.5,3.6,2.7c0.9,1.5-0.1,1.2,0.3,1.8c-0.1,0.1,0,0.3,0.6,0.8l2.5,3.1l-0.2-1.9c1.5,1,2.4,2.9,2.1,0.7
	c0,0.4,0.2,0.9,0.5,1.4c0.1,0.3,0.3,0.6,0.5,0.9c0.1,0.1,0.2,0.3,0.3,0.5l0.1,0.2l0,0.1c0.2,0.5,0.5,1,0.9,1.4
	c0.7,0.9,1.6,1.6,1.5,2c1.1,0.1,1.6,0.7,2.1,1.5c0-0.3,0.8-1.2,1.3-0.5c-2.1,1.3,0.2,1.8-0.8,3.5c0.5-1.2,1.7,1.6,2.4-0.2
	c0.3,0.7-0.7,0.6-0.8,1.4c1.8,0.7,1.9,3.2,3.4,4.6c0.3-0.2,0.4-0.8,1.1-0.7l-0.5,1.9c0.4,0.2,1.7-0.9,1.3,0.4
	c0.1-0.3,0.4-0.6,0.6-0.5c1.4,4.1,6.2,5.5,6.6,10.5c0.1-0.8,0.4-0.6,0.7-0.3c-0.1-0.3,0.6-0.5,0.9-0.8l0.2,2.1
	c1.1-0.5,1.2,1.3,2.2,0.7l-0.5-0.3c1.5-0.3,1.7-2.7,3.1-3.7c-1.7,0.4,0.4-3.1-2.1-2.7c0.1-0.5,0.6-0.2,0.8-0.5
	c-0.8,0.2-1.2,0-1.4-0.8l0.2-0.1c-1.5-1.5-1.5-2.7-2.6-4.8L319,182c-0.2-0.5-0.1-0.7-0.1-1c-1.4,0.4,0.9,1.1-0.6,1.7
	c0.9-1.6-2.3-2.8-1-4.4c-0.5-0.6-0.6,0.8-1.1,0.2l0.3-0.5l-0.7,0.3c-0.2-0.5,0.1-1.1,0.5-1.4c0,0.1,0.3,0.2,0.4,0.3
	c0.1-0.9-1.4-1.3-1.4-1.6l0.2,0.8c-1.8-1.3-2.9-3.8-5-4.6l-0.2,0.4c-1.6-0.7-0.5-1.3-1.8-2.4l0.1,0c-0.5,0-1-0.2-1.3-0.6
	c0.6,0,0.2-1.2,1-1.1c-1.7-0.8-1-0.2-2.9-0.1l0.4-0.6c-0.7,0.1-1,0.3-1.7-0.3c0.9,0.2,0.4-1.1,1.5-1c0-1.2-0.7-1.4-1.3-1.7
	c-0.3-0.1-0.5-0.2-0.6-0.4c-0.1-0.1-0.1-0.2,0-0.4c0,0,0-0.1,0-0.1l0-0.1l0-0.1c0-0.2,0-0.4,0-0.6c-0.8-0.2-1,0-1,0.3
	c0,0.3,0.5,1.1,0.5,1.1c0.2,0.4,0.6,0.7,0.3,0.6c-0.1,0.3-0.5,0.4-0.9,0.4c-0.2,0-0.4-0.1-0.5-0.2c0,0-0.1,0-0.1-0.1
	c-0.1-0.1-0.2-0.2-0.3-0.3c-0.2-0.2-0.3-0.4-0.4-0.6c-1.1-1.4-0.1-3.9-3.1-7.4c0.3,0.4,0.4,0.3,0.7,0.6c-0.7-1.6-2.6-2.1-3.4-4.2
	c-1.6-0.2-1.7-2.1-3-1.5l2.9,3c-1.8-1.6-4.5-2.2-6.4-5.7c0.4,0,1.5,0.7,2.1,1.2c-0.4-1.1-1.6-1.5-2-2.7c1.3-0.7,3.5,3.7,6,4.9
	c-0.3-1.3-3.9-3-1.9-3c-2.7-0.1-2.7-3.6-5.8-5l0.8-0.4c-0.4-0.3-1.4-0.8-1.9-1.5l1.9,0.5c-2.3-1.3-2.4-4.2-4.4-5.7
	c3.2,3.8-0.1,1.5,0.8,3.6c-4.9-4-0.5-4.2-5.3-9.2c0.7,0.6,1.9,3,0.6,2.2c-0.7-1.1-1.6-2.7-1.7-3.6c-3.1-3.4-0.2,1.1-1.9,0
	c-0.2-1.9-1.8-1.5-3.3-2.8l0.7-0.6c-2.9-4.4-2.3,0.1-4.8-3.9l2.2,0.7l-1.8-1.7l1.1-0.3c-2.3-1.6-2.7-2.3-4.1-4.5
	c-0.1,0.9-1.4,0.8-2.9-1c-0.6-1.5,1.2,0.1-1-2.3c0.9,0.2,1.9,0.4,2.2,2c0.3-0.1,0.9,0.2,1.2,0.1c-0.6-1.7-2.6-3.4-3.4-4.3
	c0.3,0.4,0.6,0.8,0.7,1.1l-4-2.9c-0.2-0.8,0.4-0.5,0.9-0.2c-0.7-0.7-1.4-0.9-2.4-2c0.8-0.2,1.3-0.7,2.8,0.6l-3.5-3
	c0-0.4-0.8-2.3-0.3-2c-1.3-2.2-5-3.8-6.7-6.7c-0.2,0-0.5-0.2-1.1-0.7c-0.9-1.3-1.7-2.6-2.6-3.8l-0.3-0.5l-0.2-0.2l-0.1-0.1
	c-0.1-0.2-0.2-0.3-0.4-0.5c-0.3-0.3-0.5-0.6-0.9-1c0,0,0.1-0.1,0.2-0.2c0.1-0.1,0.2-0.3,0.4-0.4c0.1-0.1,0.3-0.3,0.4-0.4
	c0.1-0.1,0.2-0.1,0.2-0.1c-0.1-0.3-0.2-0.4-0.4-0.3c-0.2,0-0.4,0.1-0.6,0.3c-0.2,0.1-0.4,0.2-0.6,0.1c-0.2-0.1-0.4-0.4-0.4-1.1
	c0-1.1,0.4-1.2,0.7-1.1c0.4,0.1,0.8,0.4,1,0.2c-0.1-0.5-0.3-1.2,0-2c0.1-0.2,0.2-0.4,0.3-0.5c0.1-0.1,0.1-0.2,0.2-0.3
	c0.1-0.1,0.3-0.2,0.4-0.3c0.6-0.4,1.2-0.8,2-1.1C247.4,82.9,246.7,83.2,246,83.9z"/>
<path class="st0" d="M309.3,31.1c-0.2,0-0.3-0.2-0.3-0.4C308.8,31.1,308.9,31.3,309.3,31.1z"/>
<path class="st0" d="M249.8,96.2L249.8,96.2c0.1,0.1,0.2,0.1,0.3,0.1L249.8,96.2z"/>
<path class="st0" d="M327.2,102.1c0.1-0.7,0.3-1.1,0.5-1.4C327.5,100.7,327.3,101.1,327.2,102.1z"/>
<path class="st0" d="M336.1,167.3l-0.2-2.1c0,1-0.1,1.4-0.3,1.9C335.8,167,336.1,166.6,336.1,167.3z"/>
<path class="st0" d="M330.7,177.7c0.1,0.1,0,0.2,0.1,0.3l0.4,0C331.2,177.5,330.9,177.3,330.7,177.7z"/>
<path class="st0" d="M333.2,169.4c-0.7,0.2-0.5,1.5-0.3,2.9c0-0.1,0-0.2,0-0.3C333.9,172.5,333.6,170.9,333.2,169.4z"/>
<path class="st0" d="M332.9,172.7c0,0.2,0,0.4,0,0.7l0,0.3l0,0.2l0,0.1c0.1,0,0.2,0,0.2,0c0,0,0,0,0-0.2
	C333.1,173.5,333,173.1,332.9,172.7z"/>
<path class="st0" d="M335.1,154.2c-0.2,0.7,0.9,0.3,0.6,0.7C336.7,155.6,334.6,150.4,335.1,154.2z"/>
<polygon class="st0" points="330.8,170.8 331.7,170.2 331,169.4 "/>
<path class="st0" d="M331.5,159.3l-0.2,2.3c0.1-0.1,0.2,0.2,0.3,0.6C331.6,160.8,331.7,159.2,331.5,159.3z"/>
<path class="st0" d="M331.5,162.2c0,0.7,0,1.4,0.1,1.8C331.7,163.7,331.6,162.8,331.5,162.2z"/>
<polygon class="st0" points="330.5,167.7 330.7,167 330.8,165.3 "/>
<path class="st0" d="M331.6,134.4l-0.3-2.5c-0.3-0.2-0.5,0.5-0.4,1.4C331.2,134,331.3,134.9,331.6,134.4z"/>
<path class="st0" d="M329.2,142.5c0.2-0.7,0.4-0.8,0.7-1.2l-1.1,0.1L329.2,142.5z"/>
<path class="st0" d="M328.9,135.3c-0.3-0.2-0.9-3.4-0.8-0.3C328.4,135.2,328.6,137.6,328.9,135.3z"/>
<path class="st0" d="M330.3,97.1l0,0.6l1.8-0.7c0,0-0.4,0-0.9,0C330.8,97.1,330.3,97.1,330.3,97.1z"/>
<path class="st0" d="M325.9,66c-0.4,3.1,1.1,0.1,0.6,3.1c0.4,0.5,0.5-2.4,0.8-1.9C326.9,65.6,327.1,64.6,325.9,66z"/>
<path class="st0" d="M327.3,67.2c0.1,0.2,0.2,0.5,0.3,0.8C327.5,67.5,327.4,67.3,327.3,67.2z"/>
<polygon class="st0" points="319.9,194.9 320,195.6 320.2,194.9 "/>
<path class="st0" d="M321.7,194.9l-0.8,0.9l1.1-0.4C321.8,195.3,321.6,195.1,321.7,194.9z"/>
<path class="st0" d="M277.9,60.6l0-0.4c-0.4-0.1-0.7,0.1-1.4,0.6L277.9,60.6z"/>
<polygon class="st0" points="258,75.5 258.3,75.2 257.1,74.8 "/>
<path class="st0" d="M246.3,87.4c0.1-0.3,0-0.6,0.2-0.9C246.4,87.1,245,87.2,246.3,87.4z"/>
<path class="st0" d="M330.4,213.3c0,0,0,0.1,0,0.3C330.4,213.5,330.4,213.3,330.4,213.3c0,0.2,0,0.5,0,0.8v0c0,0,0,0,0-0.1
	c0,0,0-0.1,0-0.1c0-0.1,0-0.2,0-0.3C330.4,213.3,330.4,213.2,330.4,213.3z"/>
<polygon class="st0" points="330.4,211.5 330.4,211.8 330.4,211.1 "/>
<path class="st0" d="M330.4,211.5c0-1.3,0,0.2,0-0.3V211l0,1C330.4,211.9,330.4,211.2,330.4,211.5z"/>
<path class="st0" d="M330.4,214.3c0-0.5,0-0.4,0-0.2C330.4,214.2,330.4,214.3,330.4,214.3C330.4,214.3,330.4,214.3,330.4,214.3z"/>
<path class="st0" d="M330.4,214.3"/>
<path class="st0" d="M330.5,214l0,0.5c0,0.3,0,0.4,0,0.6C330.5,214.8,330.5,214.5,330.5,214z"/>
<path class="st0" d="M330.5,213.1l0,0.2C330.5,213.4,330.5,213.4,330.5,213.1z"/>
<path class="st0" d="M330.5,213.7l0-0.4c0-0.2,0-0.6,0,0.1C330.5,213,330.5,213.4,330.5,213.7z"/>
<path class="st0" d="M330.5,213.5c0-0.3,0-0.5,0-0.9C330.5,212.7,330.5,213.7,330.5,213.5z"/>
<path class="st0" d="M330.5,210.2l0-0.4L330.5,210.2C330.4,210,330.5,210.6,330.5,210.2z"/>
<path class="st0" d="M330.5,214.7c0-0.3,0-0.7,0-1.1l0,0.3C330.5,214.1,330.5,214.3,330.5,214.7z"/>
<path class="st0" d="M330.5,213.6l0-0.5C330.5,213.1,330.5,213.3,330.5,213.6z"/>
<polygon class="st0" points="330.5,211.6 330.5,212.6 330.5,211.6 "/>
<polygon class="st0" points="330.5,214.7 330.5,215.4 330.6,214.4 "/>
<path class="st0" d="M330.6,214.6c0,0.5,0,0.9,0,1.2c0-0.1,0-0.5,0-1C330.6,215.1,330.6,215.1,330.6,214.6z"/>
<path class="st0" d="M330.6,214.3c0,0.1,0,0.4,0,0.6C330.6,214.8,330.6,214.6,330.6,214.3z"/>
<path class="st0" d="M330.5,213.3c0,0.2,0,0.6,0,0.8L330.5,213.3L330.5,213.3z"/>
<path class="st0" d="M330.5,213.3L330.5,213.3C330.5,213.3,330.5,213.3,330.5,213.3C330.5,213.3,330.5,213.3,330.5,213.3z"/>
<path class="st0" d="M330.5,213.3L330.5,213.3C330.5,213.2,330.5,213.2,330.5,213.3z"/>
<path class="st0" d="M330.5,212.3c0-0.4,0-0.9,0-1.6C330.5,211.3,330.5,211.7,330.5,212.3z"/>
<path class="st0" d="M330.5,212.3l0-0.2c0,0.2,0,0.5,0,0.7L330.5,212.3z"/>
<polygon class="st0" points="330.5,212.1 330.5,212.3 330.5,212.4 "/>
<path class="st0" d="M330.6,213.6c0-0.3,0-0.4,0-0.4c0-0.2,0-0.2,0-0.2C330.6,213.2,330.6,213.6,330.6,213.6z"/>
<path class="st0" d="M330.6,213.3C330.6,213.3,330.6,213.3,330.6,213.3C330.6,213.2,330.6,213.2,330.6,213.3z"/>
<path class="st0" d="M330.6,213.1c0,0,0-0.1,0-0.1L330.6,213.1L330.6,213.1z"/>
<path class="st0" d="M330.6,212.8c0-0.1,0,0,0,0.3c0-0.1,0-0.1,0-0.1C330.6,212.8,330.6,212.7,330.6,212.8z"/>
<path class="st0" d="M330.6,213.9c0-0.2,0-0.3,0-0.4C330.6,213.7,330.6,214.1,330.6,213.9z"/>
<path class="st0" d="M330.6,213.5C330.6,213.5,330.6,213.5,330.6,213.5C330.6,213.7,330.6,213.6,330.6,213.5z"/>
<path class="st0" d="M330.6,213.5c0-0.1,0-0.3,0-0.5c0,0.1,0,0.1,0,0.3C330.6,213.4,330.6,213.4,330.6,213.5z"/>
<path class="st0" d="M330.5,208.2c0,0.7,0,1.4,0,0.6c0,0.5,0.1,2.9,0.1,4.2c0-0.3,0-0.6,0-1c0-0.4,0-0.9,0-1.6c0-0.4,0,0.3,0,0.6
	c0-0.9,0-1.3-0.1-2.6l0,0.5C330.6,208.7,330.5,208.3,330.5,208.2z"/>
<path class="st0" d="M330.6,212.9L330.6,212.9c0,0.2,0,0.5,0,1.1c0-0.4,0-0.6,0-0.9l0-0.1V212.9z"/>
<path class="st0" d="M330.6,213c0-0.8,0-1.1,0-2c0,0.1,0,0.7,0,1C330.6,211.9,330.6,212.5,330.6,213c0,0,0,0.1,0,0.1
	c0,0.1,0,0.2,0,0.4c0,0,0,0,0,0v0v0c0-0.1,0-0.1,0-0.1c0,0,0,0,0,0C330.6,213.2,330.6,213.1,330.6,213c0,0.2,0,0.2,0,0.3
	c0,0,0,0.1,0,0.1v0L330.6,213C330.6,212.9,330.6,212.9,330.6,213z"/>
<path class="st0" d="M330.5,209.1c0,0.1,0,0.1,0,0.2C330.5,209.2,330.5,209.1,330.5,209.1z"/>
<path class="st0" d="M330.5,209.6c0,0.1,0,0.4,0,0.3c0-0.2,0-0.4,0-0.6c0,0.2,0,0.6,0,0.9v-0.1c0,0.3,0,1.2,0,1.4
	C330.5,210.8,330.5,210.3,330.5,209.6z"/>
<path class="st0" d="M330.5,211.1l0-0.4l0-0.7l0,0.4C330.5,210.3,330.5,210.8,330.5,211.1z"/>
<polygon class="st0" points="330.7,213.5 330.7,214.4 330.7,213.2 "/>
<polygon class="st0" points="330.7,213.4 330.7,214.2 330.7,213.7 "/>
<path class="st0" d="M330.8,208.7L330.8,208.7L330.8,208.7z"/>
<path class="st0" d="M330.8,208.6"/>
<path class="st0" d="M333.3,212.5c0.5,0.5,1.2,1.3,0.7,0.6l-0.5-0.6C333.5,212.7,333.4,212.6,333.3,212.5z"/>
<path class="st0" d="M330.6,208.6C330.5,208.6,330.6,208.6,330.6,208.6c0.1,0,0.3,0.1,0.5,0.1C331,208.7,330.8,208.7,330.6,208.6z"
	/>
<path class="st0" d="M330.5,208.6L330.5,208.6L330.5,208.6z"/>
<path class="st0" d="M330.9,209L330.9,209C330.9,209,330.9,209,330.9,209z"/>
<path class="st0" d="M331.2,213.1c0.1,0.3,0.1,0.4,0.1,0.5C331.2,213.1,331.1,212.5,331.2,213.1z"/>
<path class="st0" d="M331,204.5c-0.1,0.1-0.1,0.3-0.1,0.5C331,204.9,331,204.7,331,204.5z"/>
<path class="st0" d="M331.4,213.6c0-0.1,0-0.1,0-0.2C331.4,213.5,331.4,213.6,331.4,213.6C331.4,213.9,331.5,214.1,331.4,213.6z"/>
<path class="st0" d="M333.4,212.2C333.3,212.2,333.3,212.2,333.4,212.2C333.4,212.2,333.4,212.2,333.4,212.2z"/>
<path class="st0" d="M328.2,206.1C328.2,206.1,328.2,206.1,328.2,206.1C328.1,206.1,328.1,206.1,328.2,206.1z"/>
<path class="st0" d="M330.9,213.8"/>
<path class="st0" d="M330.7,210.7c0-0.1,0-0.2,0-0.4C330.7,210.5,330.7,210.6,330.7,210.7z"/>
<path class="st0" d="M330.6,208.7L330.6,208.7C330.6,208.5,330.6,208.6,330.6,208.7z"/>
<path class="st0" d="M330.9,213.4c0,0.1,0,0.2,0,0.2C330.9,213.6,330.9,213.5,330.9,213.4z"/>
<path class="st0" d="M330.9,213.8C330.9,213.8,330.9,213.7,330.9,213.8C330.9,213.8,330.9,213.9,330.9,213.8z"/>
<path class="st0" d="M330.9,213.7C330.9,213.7,330.9,213.7,330.9,213.7C330.9,213.7,330.9,213.7,330.9,213.7
	C330.9,213.8,330.9,213.7,330.9,213.7z"/>
<path class="st0" d="M332,210.5L332,210.5C332,210.5,332,210.5,332,210.5z"/>
<path class="st0" d="M330.7,208.7L330.7,208.7L330.7,208.7z"/>
<path class="st0" d="M330.7,208.7C330.7,208.7,330.7,208.7,330.7,208.7L330.7,208.7L330.7,208.7z"/>
<path class="st0" d="M328.4,205.9l0.1,0.2C328.7,206.3,328.5,206.1,328.4,205.9z M330.9,212.7l0,0.4c0-0.2,0-0.2,0-0.2
	C330.9,212.6,330.9,212.5,330.9,212.7z M331,213.1C331,213,331,213,331,213.1C331,213.3,331,213.2,331,213.1z M330.6,208.6
	C330.6,208.6,330.6,208.6,330.6,208.6C330.6,208.6,330.6,208.6,330.6,208.6z M330.8,208.6C330.8,208.6,330.8,208.6,330.8,208.6
	C330.8,208.6,330.8,208.6,330.8,208.6z M330.8,208.8L330.8,208.8C330.8,208.8,330.8,208.8,330.8,208.8
	C330.8,208.8,330.8,208.7,330.8,208.8L330.8,208.8L330.8,208.8c0-0.1,0-0.1,0-0.1c0,0,0,0,0,0l0,0c0,0,0,0,0,0l0,0l0,0c0,0,0,0,0,0
	c0,0,0,0,0,0c0,0,0,0,0,0c0,0,0,0,0,0l0,0l0,0c0,0,0,0,0,0c0,0,0,0,0,0c0,0,0,0,0,0h0l0,0c0,0,0,0,0,0c0,0,0,0-0.1,0c0,0,0,0,0,0
	l0,0c0,0,0,0,0,0c0,0,0,0,0,0c0,0,0,0-0.1,0c0,0,0,0,0,0c0,0,0,0,0-0.1l0,0c0,0,0,0,0,0l0,0l0,0l0,0l0.1,0c0.4,0.1,0.8,0.1,1,0.1
	l0.6,0.1c-0.2,0-0.6-0.1-1.1-0.2c0.1,0,0.2,0,0.3,0c-0.2,0-0.5-0.1-0.8-0.1l-0.1,0h0l0,0l0,0l0,0l0,0l0,0l0,0l0,0l0,0l0,0
	c0,0,0,0,0.1,0c-0.1,0,0,0,0,0c0,0,0,0,0,0c0,0,0,0,0,0l0,0c0,0,0,0,0,0c0,0,0,0,0,0c0,0,0,0,0,0c0,0,0,0,0,0l0,0l0,0v0c0,0,0,0,0,0
	h0c0,0,0,0,0,0h0h0L330.8,208.8c0.2,0.1,0.4,0.3,0.6,0.4c0.4,0.3,0.6,0.5,0.6,0.5c-0.3-0.2-0.6-0.5-1-0.8c-0.1-0.1-0.2-0.2-0.4-0.3
	l0,0c0,0,0,0,0,0c0,0,0,0,0,0c0,0,0,0,0,0c0,0,0,0,0,0l0,0l0,0l0,0c0,0,0,0,0,0l0,0c0,0,0,0,0,0c0,0,0,0,0,0l0,0
	c0.1,0.2,0.3,0.5,0.4,0.7c0.1,0.3,0.3,0.5,0.4,0.7c0.2,0.5,0.4,0.8,0.5,1l-0.3-0.5l0.2,0.6c-0.2-0.4-0.4-0.8-0.6-1.3
	c-0.1-0.3-0.2-0.5-0.4-0.8l-0.2-0.4c0-0.1,0-0.1,0-0.1l0,0c0,0,0,0,0,0c0,0,0,0,0,0c0,0,0,0,0,0l0,0c0,0,0,0,0,0l0,0c0,0,0,0,0,0
	c0,0,0,0,0,0c0,0,0,0,0,0l0,0c0,0,0,0,0,0c0,0,0,0,0,0c0.2,0.5,0.7,2.2,0.8,2.6c0-0.1-0.5-1.2-0.7-1.9c-0.1-0.2-0.1-0.4-0.2-0.7v0
	c0,0,0,0,0,0l0,0c0,0,0,0,0,0c0,0,0,0,0,0c0,0,0,0,0,0c0,0,0,0,0,0c0.1,0.5,0.2,1,0.2,1.1c-0.1-0.3-0.1-0.7-0.2-0.9
	c0,0,0-0.2-0.1-0.3c0,0,0,0,0,0c0,0,0,0,0,0c0,0,0,0,0,0c0,0,0,0,0,0c0,0,0,0,0,0c0,0,0,0,0,0.1v0l0,0c0,0,0,0,0,0.1
	c0.1,0.4,0.1,0.7,0.1,1.1c0.1,0.7,0.1,1.3,0.2,1.6c0,0.4-0.1-1-0.1-0.8c-0.1-0.3,0.2,2.7,0.1,1.6c-0.1-1-0.2-1.9-0.2-2.6
	c0-0.4,0.1,0.6,0.1,0.6l0-0.5c0-0.3,0-0.6,0-0.3c-0.1-0.9,0-0.2-0.1-1c0,0.3,0,0.7,0.1,1.1l0-0.1c0,0.8,0.1,1.1,0.1,1.5
	c0,0.6,0.1,1.4,0,1l-0.1-1.1c0,0.3,0,0.7,0,0.3c0,0.5-0.1-1.5,0,0l0,0.8c0,0.6,0,1.7,0,1.4c0,1.1,0-0.1,0.1,1.2
	c-0.1-1.6,0.1,0.1,0-1.6c0.1,1.5,0.1,0.6,0.2,1.9c0-0.4,0-0.7,0-0.5c0-0.1,0-0.2,0-0.3c0,0,0,0,0,0l0,0c0,0,0,0,0,0
	c0-0.2,0-0.4,0-0.6c0-0.8,0-0.8,0-1.3c0,0.2,0,0.4,0.1,0.8l0-0.7c0.1,0.8,0.1,1.4,0.1,1.8l0,0c0.1,0.5,0.1,0.6,0.1,0.3
	c0,0.2,0-0.9,0-0.3v-0.5l0,0.2c0.1,0.1,0-1.4,0.3,0.1c0-0.2,0-0.5,0.1-0.2l0.1,0.7c0-0.2,0.3,0.7,0.1-0.1c0.2,0.9,0.3,1,0.4,0.9
	c0-0.1,0-0.2,0-0.2c0-0.1,0.1-0.1,0.1,0l-0.2-0.9c0.1,0,0.1-0.3,0.1-0.6l-0.3-0.8c-0.2-0.7,0.4,0.5,0.5,0.3c0.1,0.3,0.1,0.2,0,0.1
	c0.4,0.8,0.4,0.5,0.3,0.1c-0.1-0.4-0.3-0.8,0.2-0.3c-0.1-0.3,0-0.2,0.1-0.1c0,0,0,0,0,0c0,0,0,0,0,0c0.1,0.1,0.2,0.2,0.3,0.3
	c-0.1-0.1-0.2-0.3-0.3-0.3c0,0,0-0.2,0-0.4l0.5,0.7c0,0,0,0,0,0c0.3,0.2-0.2-0.4-0.6-0.9c-0.1-0.1-0.1-0.3-0.3-0.5
	c0.9,1.1-0.2-0.4,0.8,0.6c-0.5-0.6-0.1-0.6-1.3-1.7c0.1,0.1,0.2,0.2,0.2,0.2c0.2,0.1,0.3,0.2,0-0.1l0.9,0.7c0,0-0.3-0.3-0.5-0.5
	c-0.3-0.3-0.6-0.5-0.6-0.5c0.6,0.4,1,0.5,1.6,1.1c-0.4-0.5-0.5-0.6-0.6-0.7c-0.1-0.1-0.2-0.2-0.7-0.6l0.6,0.3c0-0.1-0.8-0.6-0.3-0.4
	c0.7,0.2,0.8,0,0.9-0.2c0.1-0.3,0.1-0.2,0.7-0.1c-2.1-0.3,0.9,0.1-0.7-0.1c0.5,0.1,0.8,0.1,1.2,0.2c-0.5-0.1,0.8,0.1-0.6-0.1
	c0.5,0.1,0.7,0.1,1,0.2c-0.1,0-0.4-0.1-0.1,0c0.3,0,0.4,0.1,0.6,0.1c-0.1,0-1.6-0.3-3-0.5c0.7,0.1,0.6,0.1-0.4-0.1
	c0.5,0.1,1,0.1,1.1,0.2c0,0,0.2,0,0.2,0h0v0c0-0.1,0-0.3,0-0.5l0,0c0,0,0,0,0,0c0,0-0.1,0-0.1,0c-0.1,0-0.3,0-0.6,0
	c0.3,0,0.1-0.1-0.1-0.1c0.1-0.1,0.2-0.1,0-0.2l-0.2,0.1c-1.4,0.2-0.3,0-0.5-0.1l0.1,0c0.9-0.4-0.5,0.1,0.6-0.4l-0.8,0.3
	c-1.8,0.6,1-0.4,0.3-0.4c0,0-0.4,0.3-0.4,0.3c-0.3,0.1,0.3-0.2,0.8-0.7c0.6-0.5,1.2-1.2,1.1-1.4c0.1-0.2,0.3-0.1,0.4,0
	c0.3-1.5-1,0.6-1.5,0.3c0.3-0.5,1.2-1,0.9-1.4c0.1-0.3-0.6-0.2-1.1,0c-0.5,0.2-1,0.4-0.9-0.2c-0.1,0.5-0.2,0.9-0.4,1.2
	c-0.1,0.1-0.1-0.4-0.3-0.7c-0.1-0.3-0.3-0.4-0.5,0.3c0-0.1,0-0.3,0-0.4c-0.2,0.4-0.6,0.7-0.5,1.5c-0.2-0.7-0.3-1-0.4-1
	c-0.1,0-0.1,0.2-0.1,0.4c0.1,0.4,0.2,0.8-0.3-0.5l-0.1,0.2l-0.1-0.3c-0.2-0.1,0,0.5,0.3,1.1c-0.1-0.2-0.2-0.4-0.3-0.5
	c-0.4-0.4-0.4-0.3,0.2,0.9l-0.5-0.8c0.3,0.5-0.8-1.2-0.3-0.2c-0.1-0.1-0.1-0.2-0.2-0.3c0.5,0.9-1.5-2,0.3,0.8l0.4,0.7
	c0.2,0.2,0.8,1.2,1.1,1.6c0.1,0.2-0.6-0.8-0.7-0.9l0.1,0.1c-1-1.4-0.4-0.5-1.1-1.4c0,0.1-0.6-0.6-0.7-0.7l0.8,1.1l-0.1-0.1
	c-0.2-0.2-0.6-0.8-0.6-0.8c-0.5-0.6,0.4,0.5,0.5,0.7c-0.4-0.4-0.9-1.2-1-1.3l0.1,0.1l0.1,0.1c0.3,0.4,0.7,0.9,0.6,0.8
	c-0.2-0.2-0.5-0.6-0.5-0.7c-0.1-0.1-0.1-0.1,0,0l-0.1-0.1l0.7,0.8c0.3,0.4,0,0,0.7,0.9c-1.2-1.4-0.4-0.5-0.8-0.9
	c0.5,0.6,0.5,0.6,0.4,0.5c0.1,0.2,0.7,0.9,0.8,1c-1.5-1.9-0.7-0.8-1.8-2.2c0.7,0.9,0.2,0.2,1.2,1.5c-0.1-0.2-0.6-0.7-0.9-1.1
	c0.6,0.7-0.4-0.5-0.2-0.2c0.2,0.2,0.5,0.6,0.8,1l-1-1.2c0.1,0.1,1.2,1.4,0.5,0.6c0.2,0.2,0.4,0.5,0.5,0.6c-1-1.2,0.8,1-1.1-1.2
	c0.4,0.5,0.4,0.5,0.5,0.5c0.1,0.1,0.5,0.6,0.8,0.9l-0.8-0.9c0.8,0.9,0.1,0.1,0.8,1l-0.1-0.2c0.9,1,1.9,2.3,3,3.7
	c-1-1.2,1.5,1.8,0.1,0c0.2,0.3,0.4,0.4,0.6,0.7c-0.5-0.6-0.6-0.7-0.4-0.4l0.1,0.1c-0.1-0.1,0.4,0.4,0.7,0.8l-0.6-0.7
	c0.1,0.1,0.3,0.3,0.4,0.5c-0.8-1,0-0.1-1-1.2c1.1,1.3,0,0,1.3,1.5c0,0-0.6-0.7-0.6-0.8l0.3,0.4l-0.4-0.5c0.1,0.1,0.5,0.6,0.8,1
	c0,0,0.1,0.1,0.1,0.1c0.4,0.5-0.1-0.2,0,0l-0.2-0.3c-0.3-0.4,0.1,0.1-0.6-0.7l-0.3-0.3c-0.5-0.6,0.3,0.3,0.1,0.1l0.1,0.1
	c-0.3-0.3-0.3-0.4-0.4-0.4c0.3,0.4,0.6,0.7,0.9,1.1c-0.5-0.6-0.4-0.5-1.4-1.7l0.4,0.5c-0.4-0.5-0.6-0.7-0.7-0.9
	c0.4,0.5,0.6,0.8,1.1,1.4c0.5,0.6,0.2,0.3,0.1,0.1c0-0.1,0,0-0.2-0.2c-0.5-0.6-0.3-0.3-0.4-0.5c-0.4-0.5-0.6-0.8-0.8-0.9
	c0,0,0.4,0.5,0.8,0.9c0.1,0.1,0.2,0.2,0.3,0.3l0,0c0-0.1-0.1-0.1-0.1-0.1c0,0,0,0,0,0c-0.1-0.1,0,0-0.1-0.2c-0.1-0.1,0,0-0.1-0.1
	l0.1,0.1c-0.1-0.1-0.3-0.4-0.5-0.7c-0.2-0.3-0.4-0.5-0.1-0.1c0.2,0.2,0.4,0.5,0.5,0.6c-0.1-0.1,0,0-0.1-0.1c0.2,0.2,0,0.1,0.2,0.2
	c0,0-0.1-0.1-0.1-0.1c-0.2-0.3,0,0-0.2-0.2l0,0c0,0-0.1-0.1-0.1-0.1l0,0.1c-0.2-0.2-0.1-0.1-0.2-0.2c0,0,0,0.1,0.1,0.1
	c-0.1-0.2-0.2-0.3-0.2-0.3c0,0,0.1,0.1,0,0.1c0,0,0-0.1-0.1-0.1c-0.1-0.1,0,0,0,0c-0.1-0.1-0.1-0.1-0.1-0.1v0c0,0,0,0-0.1-0.1l0,0
	l0,0l0,0c-0.1-0.1,0-0.1-0.1-0.1c0,0,0,0,0,0c0,0,0,0,0,0c0,0,0,0,0,0l0,0c-0.1-0.1-0.1-0.1-0.1-0.1c0,0,0,0,0,0l0-0.1c0,0,0,0,0,0
	c0,0,0,0,0,0c0,0,0,0,0,0l0-0.1c0,0,0,0,0,0c0-0.1,0-0.1-0.1-0.1l0,0C330.9,208.9,330.9,209,330.8,208.8L330.8,208.8
	C330.8,208.9,330.8,208.8,330.8,208.8C330.8,208.8,330.8,208.8,330.8,208.8C330.8,208.8,330.8,208.8,330.8,208.8
	C330.8,208.8,330.8,208.8,330.8,208.8z"/>
<path class="st0" d="M330.5,208.6L330.5,208.6C330.5,208.6,330.5,208.6,330.5,208.6z"/>
<polygon class="st0" points="330.9,209 330.9,209 330.9,209 "/>
<path class="st0" d="M330.6,208.5L330.6,208.5L330.6,208.5z"/>
<path class="st0" d="M330.8,214.2l0-0.2c0,0,0-0.1,0-0.3C330.8,213.9,330.8,214.2,330.8,214.2z"/>
<path class="st0" d="M330.5,208.7c0,0.1,0,0,0,0.1l0,0.4C330.5,209.2,330.5,208.9,330.5,208.7z"/>
<path class="st0" d="M330.7,211.3c0-0.7,0-0.5,0-0.4c0,0,0,0,0,0C330.7,211.9,330.7,211.6,330.7,211.3z"/>
<path class="st0" d="M330.6,210.9C330.6,211,330.6,211,330.6,210.9C330.6,211.4,330.6,211,330.6,210.9z"/>
<path class="st0" d="M330.9,213.2c0-0.2,0.1,0.9,0,0.6C331,214.7,330.9,212.7,330.9,213.2z"/>
<polygon class="st0" points="330.6,208.8 330.6,209.7 330.6,209 "/>
<path class="st0" d="M330.6,209.5l0-0.3C330.6,209.4,330.6,209.5,330.6,209.5C330.6,209.6,330.6,209.8,330.6,209.5z"/>
<path class="st0" d="M330.6,209.6c0,0,0,0,0,0.2C330.6,209.7,330.6,209.7,330.6,209.6z"/>
<polygon class="st0" points="330.6,208.6 330.6,208.7 330.6,208.8 "/>
<path class="st0" d="M330.7,209.7l0-0.3c0-0.3-0.1-0.5,0-0.4C330.7,209.2,330.7,209.4,330.7,209.7z"/>
<path class="st0" d="M330.6,208.1C330.6,208.1,330.6,208.1,330.6,208.1L330.6,208.1L330.6,208.1z"/>
<path class="st0" d="M330.6,208.2C330.6,208.2,330.6,208.3,330.6,208.2C330.6,208.2,330.6,208.2,330.6,208.2z"/>
<polygon class="st0" points="330.6,208.5 330.6,208.5 331.1,210.1 "/>
<polygon class="st0" points="330.7,208.7 330.7,208.7 330.7,208.7 "/>
<path class="st0" d="M330.7,208.7"/>
<polygon class="st0" points="327.6,205.4 327.3,205.1 327.7,205.6 "/>
<path class="st0" d="M328.4,206.5l-0.8-0.9L328.4,206.5C328.3,206.3,328.3,206.2,328.4,206.5z"/>
<polygon class="st0" points="330.8,208.6 330.8,208.6 330.8,208.6 "/>
<polygon class="st0" points="330.8,208.7 330.8,208.7 330.8,208.7 "/>
<path class="st0" d="M330.8,208.8L330.8,208.8C330.8,208.8,330.8,208.8,330.8,208.8z"/>
<path class="st0" d="M5.5,213.3c0,0.1,0,0.7,0,0.8C5.5,213.9,5.5,213.4,5.5,213.3z"/>
<polygon class="st0" points="5.5,211.5 5.5,211.8 5.5,211.1 "/>
<path class="st0" d="M5.5,211.5c0-1.3,0,0.2,0-0.3V211l0,1C5.5,211.9,5.5,211.2,5.5,211.5z"/>
<path class="st0" d="M5.5,214.3c0-0.5,0-0.4,0-0.2C5.5,214.2,5.5,214.3,5.5,214.3C5.5,214.3,5.5,214.3,5.5,214.3z"/>
<path class="st0" d="M5.5,214.3"/>
<path class="st0" d="M5.5,214l0,0.5c0,0.3,0,0.4,0,0.6C5.5,214.8,5.5,214.5,5.5,214z"/>
<path class="st0" d="M5.5,213.1l0,0.2C5.5,213.4,5.5,213.4,5.5,213.1z"/>
<path class="st0" d="M5.5,213.7l0-0.4c0-0.2,0-0.6,0,0.1C5.5,213,5.5,213.4,5.5,213.7z"/>
<path class="st0" d="M5.5,213.5c0-0.3,0-0.5,0-0.9C5.5,212.7,5.5,213.7,5.5,213.5z"/>
<path class="st0" d="M5.5,210.2l0-0.4L5.5,210.2C5.5,210,5.5,210.6,5.5,210.2z"/>
<path class="st0" d="M5.5,214.7c0-0.3,0-0.7,0-1.1l0,0.3C5.5,214.1,5.5,214.3,5.5,214.7z"/>
<path class="st0" d="M5.5,213.6l0-0.5C5.5,213.1,5.5,213.3,5.5,213.6z"/>
<polygon class="st0" points="5.5,211.6 5.5,212.6 5.5,211.6 "/>
<polygon class="st0" points="5.6,214.7 5.6,215.4 5.6,214.4 "/>
<path class="st0" d="M5.6,214.6c0,0.5,0,0.9,0,1.2c0-0.1,0-0.5,0-1C5.6,215.1,5.6,215.1,5.6,214.6z"/>
<path class="st0" d="M5.6,214.3c0,0.1,0,0.4,0,0.6C5.6,214.8,5.6,214.6,5.6,214.3z"/>
<path class="st0" d="M5.6,213.3c0,0.2,0,0.6,0,0.8L5.6,213.3L5.6,213.3z"/>
<path class="st0" d="M5.6,213.3L5.6,213.3C5.6,213.3,5.6,213.3,5.6,213.3C5.6,213.3,5.6,213.3,5.6,213.3z"/>
<path class="st0" d="M5.6,213.3L5.6,213.3C5.6,213.2,5.6,213.2,5.6,213.3z"/>
<path class="st0" d="M5.5,212.3c0-0.4,0-0.9,0-1.6C5.5,211.3,5.5,211.7,5.5,212.3z"/>
<path class="st0" d="M5.5,212.3l0-0.2c0,0.2,0,0.5,0,0.7L5.5,212.3z"/>
<polygon class="st0" points="5.6,212.1 5.5,212.3 5.6,212.4 "/>
<path class="st0" d="M5.6,213.6c0-0.3,0-0.4,0-0.4c0-0.2,0-0.2,0-0.2C5.6,213.2,5.6,213.6,5.6,213.6z"/>
<path class="st0" d="M5.6,213.3C5.6,213.3,5.6,213.3,5.6,213.3C5.6,213.2,5.6,213.2,5.6,213.3z"/>
<path class="st0" d="M5.7,213.1c0,0,0-0.1,0-0.1L5.7,213.1L5.7,213.1z"/>
<path class="st0" d="M5.6,212.8c0-0.1,0,0,0,0.3c0-0.1,0-0.1,0-0.1C5.6,212.8,5.6,212.7,5.6,212.8z"/>
<path class="st0" d="M5.6,213.9c0-0.2,0-0.3,0-0.4C5.6,213.7,5.6,214.1,5.6,213.9z"/>
<path class="st0" d="M5.6,213.5C5.6,213.5,5.6,213.5,5.6,213.5C5.6,213.7,5.6,213.6,5.6,213.5z"/>
<path class="st0" d="M5.6,213.5c0-0.1,0-0.3,0-0.5c0,0.1,0,0.1,0,0.3C5.6,213.4,5.6,213.4,5.6,213.5z"/>
<path class="st0" d="M5.6,208.2c0,0.7,0,1.4,0,0.6c0,0.5,0,2.9,0.1,4.2c0-0.3,0-0.6,0-1c0-0.4,0-0.9,0-1.6c0-0.4,0,0.3,0,0.6
	c0-0.9,0-1.3,0-2.6l0,0.5C5.6,208.7,5.6,208.3,5.6,208.2z"/>
<path class="st0" d="M5.6,212.9L5.6,212.9c0,0.2,0,0.5,0,1.1c0-0.4,0-0.6,0-0.9l0-0.1V212.9z"/>
<path class="st0" d="M5.6,213c0-0.8,0-1.1,0-2c0,0.1,0,0.7,0,1C5.6,211.9,5.6,212.5,5.6,213c0,0,0,0.1,0,0.1c0,0.1,0,0.2,0,0.4
	c0,0,0,0,0,0v0v0c0-0.1,0-0.1,0-0.1c0,0,0,0,0,0C5.6,213.2,5.6,213.1,5.6,213c0,0.2,0,0.2,0,0.3c0,0,0,0.1,0,0.1v0L5.6,213
	C5.6,212.9,5.6,212.9,5.6,213z"/>
<path class="st0" d="M5.5,209.1c0,0.1,0,0.1,0,0.2C5.5,209.2,5.5,209.1,5.5,209.1z"/>
<path class="st0" d="M5.5,209.6c0,0.1,0,0.4,0,0.3c0-0.2,0-0.4,0-0.6c0,0.2,0,0.6,0,0.9l0-0.1c0,0.3,0,1.2,0,1.4
	C5.5,210.8,5.5,210.3,5.5,209.6z"/>
<path class="st0" d="M5.6,211.1l0-0.4l0-0.7l0,0.4C5.6,210.3,5.6,210.8,5.6,211.1z"/>
<polygon class="st0" points="5.7,213.5 5.7,214.4 5.7,213.2 "/>
<polygon class="st0" points="5.7,213.4 5.7,214.2 5.7,213.7 "/>
<path class="st0" d="M5.3,209.1L5.3,209.1L5.3,209.1z"/>
<path class="st0" d="M5.2,209.2L5.2,209.2C5.2,209.2,5.2,209.2,5.2,209.2z"/>
<path class="st0" d="M10.1,210.2c0.7-0.1,1.9-0.4,1-0.5l-0.8,0C10.4,209.9,10.3,210.1,10.1,210.2z"/>
<path class="st0" d="M5.6,208.8c-0.1,0.1-0.1,0.1-0.2,0.2c0.2-0.2,0.4-0.4,0.5-0.5C5.8,208.6,5.7,208.7,5.6,208.8z"/>
<path class="st0" d="M5.2,209.2L5.2,209.2L5.2,209.2z"/>
<path class="st0" d="M5.5,208.8L5.5,208.8C5.5,208.8,5.5,208.8,5.5,208.8z"/>
<path class="st0" d="M6.1,213.1c0,0.3,0.1,0.4,0.1,0.5C6.1,213.1,6.1,212.5,6.1,213.1z"/>
<path class="st0" d="M7.9,205.3c-0.1,0.1-0.2,0.2-0.3,0.4C7.7,205.6,7.8,205.4,7.9,205.3z"/>
<path class="st0" d="M6.3,213.6c0-0.1,0-0.1,0-0.2C6.2,213.5,6.2,213.6,6.3,213.6C6.3,213.9,6.3,214.1,6.3,213.6z"/>
<path class="st0" d="M8.4,208.8C8.4,208.8,8.4,208.8,8.4,208.8C8.4,208.8,8.4,208.8,8.4,208.8z"/>
<path class="st0" d="M2,208.8C2,208.8,2,208.8,2,208.8C1.9,208.8,1.9,208.8,2,208.8z"/>
<path class="st0" d="M5.8,213.8"/>
<path class="st0" d="M5.7,210.7c0-0.1,0-0.2,0-0.4C5.7,210.5,5.7,210.6,5.7,210.7z"/>
<path class="st0" d="M5.7,208.7L5.7,208.7C5.6,208.6,5.7,208.6,5.7,208.7z"/>
<path class="st0" d="M5.8,213.4c0,0.1,0,0.2,0,0.2C5.8,213.6,5.8,213.5,5.8,213.4z"/>
<path class="st0" d="M5.8,213.8C5.8,213.8,5.8,213.7,5.8,213.8C5.8,213.8,5.8,213.9,5.8,213.8z"/>
<path class="st0" d="M5.8,213.7C5.8,213.7,5.8,213.7,5.8,213.7C5.8,213.7,5.8,213.8,5.8,213.7C5.8,213.8,5.8,213.7,5.8,213.7z"/>
<path class="st0" d="M5.6,208.7L5.6,208.7C5.6,208.7,5.6,208.7,5.6,208.7z"/>
<path class="st0" d="M5.6,208.8L5.6,208.8L5.6,208.8z"/>
<path class="st0" d="M5.6,208.8C5.6,208.8,5.6,208.8,5.6,208.8L5.6,208.8L5.6,208.8z"/>
<path class="st0" d="M2.1,207.8l0.2,0C2.5,207.9,2.3,207.9,2.1,207.8z M5.9,212.7l0,0.4c0-0.2,0-0.2,0-0.2
	C5.9,212.6,5.9,212.5,5.9,212.7z M5.9,213.1C5.9,213,5.9,213,5.9,213.1C6,213.4,5.9,213.2,5.9,213.1z M5.3,209.1
	C5.3,209.2,5.3,209.1,5.3,209.1C5.3,209.2,5.2,209.2,5.3,209.1z M5.2,209.3C5.2,209.3,5.2,209.3,5.2,209.3
	C5.2,209.3,5.2,209.3,5.2,209.3z M5.4,208.9L5.4,208.9C5.4,208.9,5.4,208.9,5.4,208.9c-0.1,0.1,0,0-0.1,0.1l0,0l0,0c0,0,0,0.1,0,0.1
	c0,0,0,0,0,0l0,0c0,0,0,0,0,0l0,0v0c0,0,0,0,0,0c0,0,0,0,0,0l0,0c0,0,0,0,0,0c-0.1,0.1,0,0-0.1,0.1l0,0c0,0,0,0-0.1,0.1
	c0,0,0-0.1,0,0c0,0,0,0,0,0c0,0,0,0,0,0l0,0c0,0,0,0,0,0c0,0,0,0,0,0c0,0,0,0,0,0c0,0,0,0,0,0c0,0,0,0,0,0l0,0l0,0l-0.1-0.1l0,0l0,0
	c0,0,0,0,0,0l0,0c0,0,0,0,0,0c0,0,0,0,0,0c0.1,0,0,0,0.1-0.1c0,0,0,0,0,0c0,0,0,0,0.1-0.1l0,0c0,0,0,0,0,0l0,0
	c0.1-0.1,0.3-0.3,0.4-0.4c0.3-0.3,0.6-0.6,0.7-0.7l0.4-0.4c-0.1,0.1-0.4,0.4-0.8,0.8c0.1-0.1,0.1-0.1,0.2-0.2
	c-0.2,0.2-0.6,0.6-0.9,0.9l0,0l0,0l0.1-0.1L5.4,208.9c-0.1,0.1-0.1,0.2-0.2,0.3c0,0,0,0,0,0c0,0,0,0,0,0c0,0,0,0,0,0c0,0,0,0,0,0
	l0,0l0,0l0.1,0c0,0,0,0,0.1,0l0,0C5.4,209,5.4,209.1,5.4,208.9c0.1,0,0.2,0,0.2-0.1c-0.1,0.1-0.1,0.1-0.2,0.2v0l0,0
	c-0.1,0.1-0.1,0.1-0.1,0.1c0,0,0,0,0,0l0.1,0C5.4,209,5.4,209,5.4,208.9C5.5,209,5.5,209,5.4,208.9C5.5,209,5.5,209,5.4,208.9
	c0.1,0,0.1,0,0.1,0c0,0,0,0,0,0c0,0,0,0,0,0l0,0c0,0,0.1-0.1,0.1-0.1l0,0c0,0,0,0,0,0c0.3-0.2,0.6-0.3,0.9-0.4
	c0.4-0.2,0.7-0.4,0.7-0.4c-0.4,0.2-1.3,0.7-1.6,0.8c0,0,0,0,0,0c0,0,0,0,0,0c0,0,0,0,0,0c0,0,0,0,0,0l0,0c0,0,0,0,0,0c0,0,0,0,0,0
	c0,0,0,0,0,0l0,0c0,0,0,0,0,0c0,0,0,0,0,0c0,0,0,0,0,0c0,0,0,0,0,0l0.2,0.1c0.1,0.1,0.2,0.2,0.4,0.3c0.2,0.2,0.5,0.3,0.6,0.5
	c0.4,0.3,0.6,0.7,0.7,0.9l-0.5-0.4c0,0,0.3,0.7,0.3,0.7c-0.2-0.3-0.5-0.7-0.9-1.2c-0.2-0.2-0.4-0.4-0.6-0.6l-0.3-0.3l0,0
	c0,0,0,0,0,0c0,0,0,0,0,0c0,0,0,0,0,0c0,0,0,0,0,0c0,0,0,0,0,0c0,0,0,0,0,0c0,0,0,0,0,0c0,0,0,0,0,0c0,0,0,0,0,0l0,0c0,0,0,0,0,0
	c0,0,0,0,0,0c0.2,0.5,0.7,2.1,0.9,2.4c-0.1-0.1-0.5-1.2-0.7-1.9c0-0.1-0.1-0.3-0.1-0.4l-0.1-0.2l0,0c0,0,0,0,0,0c0,0,0,0,0,0
	c0,0,0,0,0,0s0,0,0,0c0,0,0,0,0,0c0,0,0,0,0,0c0-0.1,0.1,0.4,0.1,0.5c0,0.2,0.1,0.4,0.1,0.5c-0.1-0.3-0.1-0.7-0.2-0.9
	c0,0-0.1-0.3,0-0.2c0,0,0,0,0-0.1c0,0,0-0.1,0,0c0,0,0,0,0-0.1c0-0.1,0,0.1,0,0c0-0.1,0-0.1,0-0.1c0,0.1,0,0.1,0,0.1v0v0v0l0,0.1
	c0,0.4,0.1,0.7,0.1,1.1c0.1,0.7,0.1,1.3,0.1,1.6c0,0.4-0.1-1-0.1-0.8c0-0.3,0.2,2.7,0,1.6c-0.1-1-0.1-1.9-0.2-2.6
	c0-0.4,0.1,0.6,0.1,0.6l0-0.5c0-0.3,0-0.6,0-0.3c-0.1-0.9,0-0.2-0.1-1c0,0.3,0,0.7,0,1.1l0-0.1c0,0.8,0,1.1,0.1,1.5c0,0.6,0,1.4,0,1
	l0-1.1c0,0.3,0,0.7,0,0.3c0,0.5-0.1-1.5,0,0l0,0.8c0,0.6,0,1.7,0,1.4c0,1.1,0-0.1,0,1.2c0-1.6,0,0.1,0-1.6c0.1,1.5,0,0.6,0.1,1.9
	c0-0.4,0-0.7,0-0.5c0-0.1,0-0.2,0-0.3c0,0,0,0,0,0l0,0c0,0,0,0,0,0c0-0.2,0-0.4,0-0.6c0-0.8,0-0.8,0-1.3c0,0.2,0,0.4,0,0.8l0-0.7
	c0,0.8,0.1,1.4,0.1,1.8l0,0c0,0.5,0.1,0.6,0.1,0.3c0,0.2,0-0.9,0-0.3l0-0.5l0,0.2c0.1,0.1,0-1.4,0.2,0.1c0-0.2,0-0.5,0.1-0.2
	l0.1,0.7c0-0.3,0.4,0.7,0.3-0.1c0.5,1.8,0.5,0.3,0.7,0.6l-0.3-0.9c0.1,0,0.1-0.3,0.1-0.6L7,212.1c0-0.4,0.2-0.3,0.5-0.2
	c0.3,0.1,0.7,0.2,0.8,0c0.2,0.3,0,0.3-0.2,0.2c0.8,0.6,1,0,0.9-0.5c0-0.3-0.1-0.5-0.1-0.7c0-0.2,0.1-0.2,0.5-0.2
	c-0.2-0.3,0-0.4,0.2-0.4c0,0,0,0,0,0.1c0,0,0,0,0-0.1c0.2,0,0.3-0.1,0.5-0.1c-0.2,0-0.4,0.1-0.5,0.1c0-0.1,0-0.4-0.1-0.7
	c0,0,0.2,0,0.4,0c0.2,0,0.4,0,0.4,0c0,0,0,0,0-0.1c0.4-0.2-0.4-0.3-1-0.2c-0.1-0.1-0.3-0.2-0.5-0.3c0.7,0,0.6-0.2,0.5-0.3
	c-0.1-0.1-0.2-0.2,0.5-0.5c-0.4,0-0.6-0.3-0.8-0.4c-0.3-0.2-0.6,0-1.4,0.2c0.2-0.1,0.3-0.1,0.3-0.1c0.2-0.1,0.3-0.2-0.1-0.1l1-0.5
	c0,0-0.4,0.1-0.7,0.3c-0.3,0.1-0.7,0.3-0.7,0.3c0.6-0.3,0.9-0.6,1.7-0.9c-1.3,0.4-0.5,0.1-1.7,0.6l0.6-0.4c-0.1,0-0.9,0.5-0.4,0.1
	c0.5-0.4,0.5-0.6,0.4-0.7c-0.1-0.2-0.1-0.1,0.4-0.6c-1.5,1.5,0.7-0.7-0.5,0.5c0.3-0.4,0.5-0.6,0.9-0.9c-0.3,0.3,0.6-0.6-0.4,0.4
	c0.4-0.4,0.5-0.5,0.7-0.7c-0.1,0.1-0.3,0.3-0.1,0.1c0.2-0.2,0.3-0.3,0.4-0.5c-0.1,0.1-1.1,1.2-2.2,2.2c0.5-0.5,0.4-0.4-0.3,0.3
	c0.3-0.3,0.7-0.7,0.8-0.8c0-0.1,0.5-0.5-0.3,0.3c0.2-0.2,0.1-0.1,0,0c0-0.1,0.1-0.1,0-0.1l-0.1,0.1c-1,1-0.2,0.2-0.3,0.3l0.1-0.1
	c0.4-0.4,0.3-0.3,0.2-0.2c0,0-0.1,0.1,0,0c0,0,0,0,0.1-0.1c0,0-0.1-0.1-0.1-0.1l0,0c0,0,0,0,0-0.1c0,0,0.1-0.1,0.1-0.1l-0.6,0.7
	c-1.2,1.4,0.7-0.9,0.2-0.3l-0.3,0.4c-0.4,0.5,1.6-2,1.7-2.2c0.1-0.1,0.2-0.2,0.2-0.3c0.6-0.9-0.7,0.9-0.9,1.1c0.4-0.5,1-1.2,1-1.3
	c0.3-0.4-1.3,1.6-0.6,0.6c-0.3,0.4-0.5,0.8-0.8,1.1c-0.1,0.1,1-1.5,0.1-0.3c0.1-0.1,0.1-0.2,0.2-0.3c-0.2,0.3-0.4,0.5-0.9,1.2
	c1.6-2.5-0.9,1.2,0.6-1.2c0,0-0.2,0-0.2,0.1l0.1-0.2c0-0.2-0.4,0.4-0.7,0.9c0.1-0.2,0.2-0.4,0.3-0.5c0.1-0.6,0-0.5-0.6,0.8l0.3-0.8
	c-0.1,0.2,0-0.1,0-0.4c0-0.3,0-0.5-0.2-0.1c0-0.1,0.1-0.3,0.1-0.4c-0.1,0.1-0.1,0.2-0.1,0.2c0,0-0.1,0-0.1-0.1
	c-0.1-0.2-0.3-0.4-0.4-0.6c-0.3-0.4-0.8-0.4-0.7,1.2c0,0-0.2,0.8-0.2,0.8c0.2,0.1,0.2,0.5,0.3,0.8c0,0.4,0.1,0.8,0.2,1.1
	c0.1,0.2-0.3-0.9-0.3-1.1l0.1,0.2c-0.2-0.8-0.3-1-0.4-1c-0.1,0-0.2,0-0.5-0.5c-0.4,0.2-0.9,0.3-1.5,0.6c-0.1,0.1-0.3,0.1-0.4,0.2
	c-0.1,0-0.1,0.1-0.2,0.1c0,0-0.1,0-0.1,0c-0.1,0.1-0.2,0.1-0.3,0.2l1.2,0.5L3,207.7c-0.3-0.1-1-0.3-0.9-0.4
	c-0.7-0.2,0.5,0.4,0.8,0.5c-0.6,0-1.4-0.6-1.5-0.5l0.1,0.1l0.2,0c0.5,0.2,1,0.4,1,0.5c-0.3,0-0.8-0.2-0.9-0.2c-0.1,0-0.1,0,0,0
	l-0.2,0.2l1,0.1c0.5,0.2-0.1,0.1,1.1,0.3c-1.8-0.3-0.7,0.1-1.2,0c0.8,0.1,0.7,0.1,0.6,0.2c0.2,0,1.4,0.1,1.3,0.1
	c-2.4-0.2-1.1,0-2.8-0.1c1.2,0,0.3,0.1,1.9,0.1c-0.2,0-0.9,0-1.5,0c0.9,0.1-0.6,0-0.3,0.1c0.3,0,0.8,0,1.3,0l-1.6,0
	c0.2,0,1.8,0,0.7,0c0.3,0,0.7,0,0.8,0c-1.6,0.1,1.3,0.1-1.7,0.1c0.6,0,0.7,0,0.7,0c0.1,0,0.8,0,1.2,0l-1.2,0c1.2,0,0.1,0,1.2,0
	l-0.2,0c1.4,0,3,0,4.8,0c-1.5,0,2.3,0,0.1,0c0.4,0,0.6,0,1,0c-0.7,0-0.9,0-0.6,0h0.2c-0.2,0,0.6,0,1,0l-0.9,0c0.1,0,0.4,0,0.6,0
	c-1.3,0-0.1,0-1.5,0c0.9,0,0.9,0,0.9,0c0,0,0,0,0.2,0c0,0-0.1,0-0.1,0c0,0-0.1,0-0.1,0l-0.1,0l0,0c0,0-0.1,0-0.2,0c0,0,0.1,0,0.1,0
	c-0.6,0-0.3,0-0.5,0l0.2,0c-0.5,0-1.1,0-1.6,0l0,0c-0.2,0-0.2,0-0.3,0c0,0,0,0-0.1,0h0c0,0-0.1,0-0.1,0c0,0,0,0,0,0c0,0,0,0-0.1,0
	l0,0c0,0-0.1,0-0.1,0c0,0,0,0,0,0c-0.1,0,0,0-0.2,0c0,0,0.1,0,0.1,0c0,0,0,0-0.1,0c0,0,0,0-0.1,0l0,0c0,0,0,0,0,0c0,0,0,0,0,0l0,0
	c0,0,0,0-0.1,0l0,0c0,0,0,0,0,0c0,0,0,0,0,0c0,0,0,0,0,0c0,0,0,0,0,0l0,0c0,0,0,0,0,0l0,0c0,0,0,0,0,0l0,0c0,0,0,0,0,0c0,0,0,0,0,0
	l0,0c0,0,0,0,0,0c0,0,0,0,0,0c0,0,0,0,0,0l0,0l0,0v0c0,0,0,0,0,0c0,0,0,0,0,0c0,0,0,0,0,0c0,0,0,0,0,0v0c0,0,0,0,0,0l0,0l0,0
	c0,0,0,0,0,0c0,0,0,0,0,0c0,0,0,0,0,0c0,0,0,0,0,0c0,0,0,0,0,0c0,0,0,0,0,0.1l0,0C5.5,208.8,5.5,208.8,5.4,208.9L5.4,208.9
	C5.4,208.9,5.4,208.9,5.4,208.9L5.4,208.9C5.4,208.9,5.4,208.9,5.4,208.9C5.4,208.9,5.4,208.9,5.4,208.9z"/>
<path class="st0" d="M5.2,209.2L5.2,209.2C5.2,209.2,5.2,209.2,5.2,209.2z"/>
<polygon class="st0" points="5.5,208.8 5.5,208.8 5.5,208.8 "/>
<path class="st0" d="M5.7,208.6L5.7,208.6C5.7,208.6,5.7,208.6,5.7,208.6z"/>
<path class="st0" d="M5.7,214.2l0-0.2c0,0,0-0.1,0-0.3C5.7,213.9,5.7,214.2,5.7,214.2z"/>
<path class="st0" d="M5.6,208.7c0,0.1,0,0,0,0.1l0,0.4C5.6,209.2,5.6,208.9,5.6,208.7z"/>
<path class="st0" d="M5.7,211.3c0-0.7,0-0.5,0-0.4c0,0,0,0,0,0C5.7,211.9,5.7,211.6,5.7,211.3z"/>
<path class="st0" d="M5.7,210.9C5.7,211,5.6,211,5.7,210.9C5.7,211.4,5.7,211,5.7,210.9z"/>
<path class="st0" d="M5.8,213.2c0-0.2,0,0.9,0,0.6C5.9,214.8,5.9,212.7,5.8,213.2z"/>
<polygon class="st0" points="5.6,208.8 5.6,209.7 5.6,209 "/>
<path class="st0" d="M5.7,209.5l0-0.3C5.6,209.4,5.6,209.5,5.7,209.5C5.6,209.6,5.7,209.8,5.7,209.5z"/>
<path class="st0" d="M5.6,209.6c0,0,0,0,0,0.1C5.6,209.7,5.6,209.7,5.6,209.6z"/>
<polygon class="st0" points="5.6,208.6 5.6,208.7 5.6,208.8 "/>
<path class="st0" d="M5.7,209.7l0-0.3c0-0.3-0.1-0.5,0-0.4C5.7,209.2,5.7,209.4,5.7,209.7z"/>
<path class="st0" d="M5.6,208C5.6,208,5.6,208,5.6,208L5.6,208L5.6,208z"/>
<path class="st0" d="M5.6,208.2C5.6,208.2,5.6,208.2,5.6,208.2C5.6,208.2,5.6,208.1,5.6,208.2z"/>
<path class="st0" d="M5.7,208.7L5.7,208.7l0.5,1.5c0,0-0.1-0.4-0.3-0.9C5.8,209,5.7,208.8,5.7,208.7z"/>
<polygon class="st0" points="5.7,208.8 5.7,208.8 5.7,208.8 "/>
<path class="st0" d="M5.7,208.8L5.7,208.8L5.7,208.8z"/>
<polygon class="st0" points="1,208.8 0.6,208.8 1.2,208.8 "/>
<path class="st0" d="M2.4,208.8H1.2l1.7,0c-0.3,0-0.6,0-0.7,0C2.2,208.8,2.2,208.8,2.4,208.8z"/>
<path class="st0" d="M5.1,209.3L5.1,209.3C5.1,209.3,5.1,209.3,5.1,209.3L5.1,209.3z"/>
<polygon class="st0" points="5.3,209.1 5.3,209.1 5.3,209.1 "/>
<path class="st0" d="M5.4,208.9L5.4,208.9C5.4,208.9,5.4,208.9,5.4,208.9z"/>
<path class="st0" d="M315.5,213.4c-0.3-0.1-0.2,0.7-0.2,0.8C315.7,214.1,315.5,213.2,315.5,213.4z"/>
<polygon class="st0" points="320,211.7 319.9,212 320.6,211.2 "/>
<path class="st0" d="M324.4,211.5c-0.5-1.3-1.6,0.3-2.4-0.1l-0.1-0.3l-0.3,1.1C322.4,211.9,323.6,211.2,324.4,211.5z"/>
<path class="st0" d="M328.3,204c-0.3,0.4-0.6-0.1,0.2,0.5c0-0.1,0-0.1,0-0.2C328.5,204.3,328.4,204.2,328.3,204z"/>
<path class="st0" d="M328.5,204.4"/>
<path class="st0" d="M327,203l0.7,0.2c0.1-0.3-0.1-0.7,0.2-0.7C327.3,202.1,327.2,202.4,327,203z"/>
<path class="st0" d="M325.9,203.2l0.3,0.1C326.3,203.2,326.3,203.1,325.9,203.2z"/>
<path class="st0" d="M327,203.5l-0.7-0.2c-0.1,0.2-0.4,0.5,0.3,0.1C326.2,203.6,326.6,203.5,327,203.5z"/>
<path class="st0" d="M327.1,203.9c0,0.4,0.1,0.9-0.6,0.7C327.3,205.4,327.9,204.6,327.1,203.9z"/>
<path class="st0" d="M324.5,210.1c0,0-0.1-0.1-0.3-0.2c-0.1-0.1-0.2-0.2-0.2-0.2l-0.4,0.5C323.8,210,324.5,210.6,324.5,210.1z"/>
<path class="st0" d="M325.2,199.8c-0.2,0.1-0.4,0.6-0.7,0.9l0.5,0.1C325,200.5,324.9,200.1,325.2,199.8z"/>
<path class="st0" d="M324.5,200.7l-0.8-0.2C324.1,200.9,324.3,200.9,324.5,200.7z"/>
<polygon class="st0" points="324.7,204 326.2,204.2 324.6,203.9 "/>
<polygon class="st0" points="323.6,197.9 324.4,197.7 323.2,197.9 "/>
<path class="st0" d="M322.5,196.7c0.6-0.1,0.5-0.9,0.9-0.9c-0.4-0.3-0.9-0.3-1.5-0.3C322.3,195.7,322.5,196,322.5,196.7z"/>
<path class="st0" d="M321.1,195.5c0.2,0.1,0.5,0.1,0.8,0.1C321.7,195.5,321.4,195.5,321.1,195.5z"/>
<path class="st0" d="M323.1,199.5c0.1-0.1,0.4-0.5,0.3-0.9l-0.4,0.7C323,199.4,323.1,199.5,323.1,199.5z"/>
<path class="st0" d="M323,199.4L323,199.4c-0.1-0.2-0.3-0.4-0.3-0.5C322.7,199,322.8,199.1,323,199.4z"/>
<path class="st0" d="M323.2,199.6C323.2,199.6,323.1,199.6,323.2,199.6C323.1,199.6,323.1,199.6,323.2,199.6z"/>
<path class="st0" d="M324.2,202.3c-0.6,0-1.4-0.3-1.5,0.7C323.3,202.8,323.3,202.3,324.2,202.3z"/>
<path class="st0" d="M322.6,200.5l0.3,0.6c0.1-0.1,0.3-0.4,0.6-0.4L322.6,200.5z"/>
<polygon class="st0" points="322.2,200.4 322.6,200.5 322.5,200.2 "/>
<path class="st0" d="M321.3,196.9c-0.4,0-0.7-0.2-1-0.5c0.1,0.4,0.3,0.8,0.6,1.1C321.1,197.3,321.6,197.2,321.3,196.9z"/>
<path class="st0" d="M322.1,198.1C322,198.1,322,198.1,322.1,198.1C322,198.2,322,198.2,322.1,198.1z"/>
<path class="st0" d="M318,193.6c0,0,0,0.1-0.1,0.1C318,193.7,318,193.7,318,193.6L318,193.6z"/>
<path class="st0" d="M320.8,197.6c0.1,0.3,0.3,0.3,0.6,0.3c-0.2-0.1-0.4-0.3-0.6-0.5C320.8,197.5,320.7,197.5,320.8,197.6z"/>
<path class="st0" d="M320.2,195c0,0.2,0,0.4,0,0.7C320.3,195.4,320.4,194.9,320.2,195z"/>
<path class="st0" d="M322.1,197.9C322.1,197.9,322.1,197.9,322.1,197.9C322.2,197.7,322.1,197.8,322.1,197.9z"/>
<path class="st0" d="M322.1,197.9c-0.2,0-0.4,0-0.6,0c0.2,0.1,0.3,0.2,0.5,0.2C322,198,322,198,322.1,197.9z"/>
<path class="st0" d="M313.5,196c0.6-0.4,1.6-0.3,1.4,0.8c0.8,0.2,2.4-1.7,3-3c-0.3,0.2-0.5,0.4-1.2,0.1c-0.1,0.4,0.3,1.7-0.6,1.7
	c-0.9-0.4-0.3-0.7-0.3-1.3c-0.5,0.9-1.7,0-2.6,1l0.9,0.3C313.9,195.7,313.5,195.7,313.5,196z"/>
<path class="st0" d="M318.7,194.8l0.2,0.2c-0.1-0.3,0-0.7,0.1-1.4c-0.6-0.1-0.8,0-1,0.1l0.8,1.1L318.7,194.8z"/>
<path class="st0" d="M319.8,195.9c-0.7,0.3-1.4,0-1.8,0.9c0.6,0.6,0.9,0,1.4,0.2C318.4,196.1,320,197,319.8,195.9
	c0.2,0.2,0.4,0.3,0.6,0.5c-0.1-0.2-0.1-0.5-0.2-0.8c0,0,0,0,0,0.1l0,0l0,0c0,0.1-0.1,0.2-0.1,0.1c0,0,0,0,0,0
	C320,195.8,319.9,195.9,319.8,195.9c-0.1-0.4,0.1-0.2,0.3-0.1c0,0,0.1,0,0.1-0.1l0,0L319,195C319.1,195.2,319.3,195.5,319.8,195.9z"
	/>
<path class="st0" d="M321,203.5c0-0.1,0.1-0.1,0.1-0.1C321,203.4,320.9,203.4,321,203.5z"/>
<path class="st0" d="M321,202.8c0.1,0,0.4-0.1,0.6,0.2c0,0.4-0.3,0.2-0.5,0.4c0.3,0,0.9,0.1,0.8-0.6l-0.1,0
	c-0.1-0.6,0.2-1.7,0.3-1.7C321.6,201.7,321.3,202.1,321,202.8z"/>
<path class="st0" d="M320.2,199.5l-1-0.6l-0.2,0.9l0.3-0.3C319.6,200,319.9,199.6,320.2,199.5z"/>
<polygon class="st0" points="318.2,193.3 319,192.9 317.7,193.1 "/>
<polygon class="st0" points="317.3,192.2 317.8,191.8 317.3,191.8 "/>
<path class="st0" d="M47,204.7l1.9-0.2C48,204.5,47.5,204.6,47,204.7z"/>
<path class="st0" d="M33.5,204.6l-0.3,0.4C33.8,204.8,34.1,204.6,33.5,204.6z"/>
<path class="st0" d="M171.2,131.9c-0.9,0-1.9-0.3-2.5-0.5c-0.6-0.2-1-0.3-0.9,0.1c0,0,0.1,0.2,0.3,0.4c0.1,0.2,0.3,0.4,0.3,0.4
	C169.4,132.2,170.4,132,171.2,131.9z"/>
<path class="st0" d="M67.9,141c0.2-0.1,0.5-0.3,0.7-0.5c0.2-0.7,0.4-1.3,0.6-1.9C68.8,139.4,68.3,140.2,67.9,141z"/>
<path class="st0" d="M69.2,144.6l-2.7,2.4C67.1,146.5,68,145.7,69.2,144.6z"/>
<path class="st0" d="M120.9,203.8l2.2-0.8C119.6,203,121.1,203.4,120.9,203.8z"/>
<path class="st0" d="M264.7,129.8c-1.3-2-2.4-3.5-3.4-4.8C262.7,127.4,263.7,129.6,264.7,129.8z"/>
<path class="st0" d="M41.7,213.1c1.1-0.1,1.6-0.3,1.6-0.5C42.1,212.7,41.5,212.9,41.7,213.1z"/>
<path class="st0" d="M256.9,119.8c0.2,0.4,0.4,0.7,0.7,1.1c1.2,1.2,2.4,2.5,3.7,4.1C260.2,123.2,258.8,121.2,256.9,119.8z"/>
<path class="st0" d="M297.8,204.5c0,0,0.1,0.1,0.1,0.1C297.9,204.5,297.9,204.5,297.8,204.5z"/>
<path class="st0" d="M311.3,212.5c-0.1,0-0.4,0-0.6,0.1C310.9,212.6,311,212.6,311.3,212.5z"/>
<path class="st0" d="M298.1,168.8"/>
<path class="st0" d="M301.1,177.3c-0.3-0.2-0.6-0.4-0.7-0.3C300.6,177,300.9,177.1,301.1,177.3z"/>
<path class="st0" d="M242,109.5c0,0-0.1-0.1-0.1-0.1C242.1,109.9,242.1,109.8,242,109.5z"/>
<path class="st0" d="M299.5,171c-0.3-0.6-0.8-1.2-1.3-1.9C298.4,169.5,298.8,170,299.5,171z"/>
<path class="st0" d="M299.5,170.5c0.4,0.5,0.6,0.9,0.9,1.2C300.7,171.8,300.6,171.6,299.5,170.5z"/>
<path class="st0" d="M296.5,166.9c0.7,0.8,1.2,1.5,1.8,2.2c-0.2-0.3-0.2-0.4-0.2-0.4C297.7,168.4,297.3,167.8,296.5,166.9z"/>
<path class="st0" d="M245.1,206.6c0.1,0,0.3,0,0.4,0.1C247.3,206.3,246.5,206.4,245.1,206.6z"/>
<path class="st0" d="M132.7,117c0.1,0,0.1,0.1,0.2,0.1C132.9,117.1,132.8,117,132.7,117L132.7,117z"/>
<path class="st0" d="M127.5,113.6c2.7,0.9,3.8,2,5.3,3.4l-0.2-3.1L127.5,113.6z"/>
<path class="st0" d="M263.8,212.5l-1.2-0.2C265.3,212,264.5,212.3,263.8,212.5z M288.7,159.3c0.5,0.4,0.5,0.3,0.5,0
	c-0.4-0.2-1.3-1.2-2.2-2.4C287.1,157.4,287.4,158,288.7,159.3z M285.2,154.5c0,0-0.1-0.1-0.1-0.1C283.5,152,284.1,152.9,285.2,154.5
	z M75.4,134.6c-0.4,0.9-1.4,2-2.8,3C73.4,136.7,74.3,135.7,75.4,134.6z M20.5,205c0.4-0.1,1-0.2,1.6-0.3c0.5-0.1,0.8-0.1,0.7,0.2
	c-0.8,0.5-1.4,0.6-1.7,0.6C20.8,205.3,20.7,205.1,20.5,205z M79.4,204.4l-4.4-0.7c5.3-1.2,9.2-0.8,5-1.8c-0.6,2.5-17.2,0.3-17.8,2.7
	l-2.9-0.5c0.8,0,1-0.1,1.8-0.1c-5.7-1.2-4.2,1.8-11.5,1.4c-2.5-0.2-4.3-0.5-2.6-0.8l-5.7,0.6c-1.6,0-1.2-0.5,0.4-0.4l-8.6,0.2
	l0.1-0.1c-1.2,0.4-4,1-5.4,1.2c-2.2-0.4,1.1-0.3,0.5-0.6c0,0-1.2,0.1-2.4,0.3c-0.7,0.1-1.5,0.3-1.5,0.3c-0.5-0.3,0-0.6,0.6-0.9
	c0.2-0.1,0.3-0.1,0.5-0.1c0.1,0,0.2,0,0.3-0.1c0.1,0,0.4,0,0.6,0c0.8-0.1,1.7-0.1,2.5-0.1c-1.1-0.6-1.9-0.9-2.7-1
	c-0.5,0-0.4,0-0.6,0c-0.1,0-0.2,0.1-0.4,0.2c-0.3,0.1-0.7,0.3-1.3,0.4c-0.5,0-1.3,0-1.5-0.4c0,0,0.5-0.1,0.9-0.1
	c0.4-0.1,0.8-0.2,0.8-0.2c0.2-0.7,0.3-0.9,0.3-1.1c0-0.1,0-0.1,0.1-0.2c0,0,0.2-0.1,0.4-0.2c0.2-0.1,0.4-0.2,0.6-0.3
	c-0.2,0.1-0.6,0.2-1.1,0.5c-0.7,0.3-0.9,0.6-1.3,0.9c-0.7,0.6-0.9,1.2-2.6,1.4c-0.1-0.1-0.2-0.1-0.3-0.1c-0.1,0-0.1,0-0.2-0.1
	c0,0-0.1,0-0.1-0.1l0.1-0.1c0.2-0.3,0.3-0.6,0.3-0.9c1.6-0.5,1.8-1.1,2.6-2.1c0,0,0.3,0.1,0.7,0.1c0.3,0.1,0.7,0.1,0.7,0.1
	c0-0.3,0-0.6-0.1-0.9c-0.1-0.3-0.4-0.4,0.2-1.5c2.7-3.1,4-3.2,5.2-3.4c4.4-4.9-4,2.6,0.8-3.6c3.9-3.9,6-7.2,9.7-12.7
	c2.8-2.7,0.1,1,1.3,0.1l1.5-3.2c0.6-0.6,0.6-0.2,0.6,0c1.6-2.4-0.7-0.9,1.9-4.6c-0.2-1.8,7.4-5.9,9.8-11.1c1.1-0.8,0.1,1,0.7,0.9
	c4.2-6.5,3.7-5.5,6.7-11.1l4-3.6c-3.2,2.5-0.8-2.1,1.4-6c-1.2,0.8-2.3,1.5-2.9,2l4-5.8c0.7-0.5,0.5,0.3,0.2,1.5
	c0.2-0.4,0.5-0.8,0.6-1.2c1.9-1.7,1.6-0.2,1,1.6c-0.7,0.5-1.5,1-2.2,1.5c-0.6,1.8-1,3.5-0.3,3.7c0.2-0.4,0.7-1.2,1.2-2
	c-0.1,0.5-0.2,0.8,0,0.7c0.2-0.1,0.5-0.8,1-1.9l2-0.4l-0.1-0.6l6.5-6.5c3.2-5.9,5.4-11.5,11.7-19.9c-0.9,2.6,0.8,1.4,1.6,2.3
	c-2.7,1.4-4.8,6.5-8.5,10.5c1.9-2.1,1.9-1.3,1.6-0.6l5.4-8.1c0.6,0.8,1.8-1.1,3.8-2.8c-2.6,0.3,3.7-6.3,5.8-9.7
	c0.6,0.2,0.5,1.3-2.7,4.9c2.2-1.6,2.9-3.2,3.6-4.9c0.3-0.8,0.7-1.7,1.2-2.5c0.3-0.4,0.6-0.8,0.9-1.2c0.3-0.3,0.7-0.6,1.2-0.8
	c-0.3,0.3-0.6,0.5-0.8,0.8c-0.1,0.1-0.2,0.2-0.2,0.3c-0.1,0.1-0.1,0.3-0.1,0.4c0.2-0.3,0.3-0.6,0.5-0.9c0.2-0.3,0.5-0.5,0.8-0.8
	c0.6-0.5,1.3-0.9,2-1.1c1.4-0.4,2.4-0.2,1.8,0.2c0,0-0.2,0-0.4,0.1c-0.2,0.1-0.4,0.1-0.4,0.1c1.3-0.3,3.2-0.3,4.9,0.5
	c0.2,0.1,0.4,0.2,0.6,0.3c0.2,0.1,0.4,0.2,0.6,0.4l0.3,0.2l0.4,0.3l0.8,0.6c1.1,0.8,2.1,1.6,3.1,2.4c4.1,3,7.7,5.3,8.6,5.1
	c-0.1,0.2-2,0.8-2.5,0.8l14.1,4.6c-1.8,0.3-0.1,5.7-5.6,2.2c1.3,1.3,3,2.9,6.3,5c-0.9-0.9-1.3-3.5,0.2-2.5c2.8,4.1,2.1,2.7,5.8,7.3
	c-1.3-1.4,1.6-1.7,3.9,0.2c-0.6,0-1.1,1.8-2.1,1.2l7.1,3.1c-1.7-0.9-1.3,1.1-0.4,2.6c-0.2-0.4,1.1,0.6,2.6,1.9
	c0.8,0.6,1.4,1.2,2.6,2.1c1.1,0.7,2,1.1,2.7,1.4c0,0-0.2-0.1-0.6-0.3c-0.3-0.2-0.8-0.5-1.2-0.8c-0.4-0.3-0.8-0.6-1.1-0.9
	c-0.3-0.3-0.5-0.4-0.5-0.4c2.1,1.7,4.1,2.3,5.7,2.4c1.6,0.1,2.9-0.1,4-0.5c1.2-0.4,2.3-0.9,3.5-1.5c1.3-0.6,2.7-1.3,4.5-2.6
	c-0.3,0.5-0.5,1.4-0.1,1.9c0.2,0.3,0.5,0.4,1.1,0.3c0.7-0.2,1.3-0.4,2.1-1.1c0.9-2,3.6-9.3,8.8-14.6l1.5-0.4l4-4.1
	c-1.8,3.4-7.4,12.2-10.8,16.6c2.8-1.6,1.1,0,4.8-3c1.6-0.6-1.5,2.3-2.5,3.2l8.8-6.6c-1.1-0.6,5.8-6.2,4.8-6.7l-8.5,8.5
	c-1.1-0.6,3.2-7,9.4-11.7c1.8-0.9,0.2,2.6,0.6,2.8c0.5-1,5.2-5.2,6-5.5l-2.2,2.6c3.7-2.4,4.5-5.7,9.3-8c1.4-1.1,5.2-2.1,5-2.9
	c-3.2,0.7-6.3-2.3-5.4-4.3c0.3-0.2,2.3-1.4,4.6-2.6c1.1-0.6,2.2-1.3,3.4-1.8c1.2-0.5,2.2-0.6,2.7-0.6c1.6,0.1,0.6,1-0.1,2
	c-0.3,0.5-0.6,1-0.7,1.4c0,0.4,0.1,0.6,0.6,0.6c-0.1-0.3,0.8-1.2,1.3-1.5c0.7,0,0.6,0.3,0.7,0.5c0.1,0.2,0.4,0.2,1.8,0.2
	c0.1-0.3,0.6-0.4,1.1-0.4c0.5,0.1,1.1,0.3,1.5,0.5c0.4,0.2,0.6,0.4,0.5,0.2c0-0.1-0.2-0.2-0.4-0.4c-0.2-0.2-0.6-0.5-1.2-0.8
	c0.8,0.1,1.4,0.3,1.9,0.6c0.5,0.3,0.8,0.5,1.1,0.9c0.3,0.3,0.6,0.7,1,1.2c0.4,0.5,1,1.3,1.7,2.2c-0.3-1.7,4.8,1.5,7.6,4.3
	c-0.4,0-0.1,1,0,1.4c5.2,6.4,7.6,10.1,12.5,16c0.2,0.7,2.3,3.8,0.9,2.9c0.9,0.7,1.8,1.2,3.4,3c2.1,4.2-3.5-3.9-2.3-0.4
	c0.7-0.2,4.7,4.1,7.2,6.3c0.2-1.5-4.8-6.1-7.3-8.4c1.2-1,6.2,2.5,11.8,8.2c4.4,4.6,1,2.8,1.9,3.5c7.5,9.3,8.6,6.1,14.1,14.4
	c1.8,3.6-1.4,1.4-1.4,2.5c-3.6-3.7-4.6-6.5-6.9-9.2l2.4,3.6c-1.3-1.1-3.7-3.6-4.7-5.2c1.4,3.1,12.8,15.6,18.1,23.2
	c1.3,1,3.4,3,2.8,1.7l-2-2.1c-1.1-2.6,4.4,3.5,2.3,0.4c2.9,2.6,6.4,5.5,9.6,10l-0.2,1.5c0.2-0.3-1.8-3.2-3.1-4.2
	c1.9,1.4,4.3,7.5,7,8.4l-1.9-3.5c3,2.7,7,5.6,9.8,9.6c-0.6-2.4-0.8-0.8-2.1-4.3c0.7,3.3-8-9.6-6.2-4.8c-1.1-3.7-3.5-5.1-5.5-9.5
	c-0.2,0.3,0.5,1.7-2-1.5c-0.2-0.1-0.6-0.3-0.8-0.5c-0.1-0.1-0.1-0.1-0.2-0.2c0,0.1,0.1,0.1,0.1,0.2c-0.2-0.1-0.2-0.1,0,0.1
	c0.5,0.9,0.9,1.6,0.9,2c-2-1-6.1-6-7.9-7.4c-1.4-2,1,0.5,0.4-0.8l-2.6-2.1c0.4-0.8-3.1-5.8,0.9-1.7l-3.3-4c-1.6-2.6-4.1-5.9-6-7.7
	c-1.4-2-4.6-4.1-2.8-2.9l-5.6-5.9l0.1-0.2c-5-6.2-11.6-11.7-16.3-19.7c-1.9-1.9-3.9-3.9-6.6-7.5l0-1.1c-2.4-2.5-6.1-8.4-7.6-9.1
	c-0.2-1-1-2.3-2.1-3.8c-0.5-0.7-1.2-1.5-1.8-2.4c-0.2-0.2-0.3-0.4-0.5-0.6c-0.3-0.3-0.6-0.6-0.9-1c-0.6-0.6-1.3-1.2-2-1.7
	c-1.5-1-3.1-1.8-4.8-2.3c-1.7-0.5-3.5-0.6-5.1-0.6c-3.3,0.1-6.3,1.3-8.3,2.6c0,0,0.1,0.2,0.1,0.5c0.1,0.2,0.1,0.5,0.1,0.5l-0.9,0.7
	l-0.6,0.5l-1.2,1c-0.8,0.7-1.6,1.4-2.4,2.1c-1.6,1.4-3.3,3-5.2,4.8l0.8,0.4c-3.1,3.3-9.3,6.7-14.8,11.2c0.2-0.5,1.6-1.6,2.7-2.3
	c-7.7,3.9-13,12.2-19.9,16c-0.6,0.7-1.3,1.3-1.9,1.7c-0.3,0.2-0.6,0.4-0.9,0.6c-0.1,0.1-0.3,0.2-0.4,0.3l-0.3,0.1
	c0.1-0.1,0.2-0.1,0.2-0.2c-0.1,0.1-0.3,0.2-0.4,0.3c-0.5,0.2-1.1,0.3-1.7,0.4c0.5,0,1.1-0.1,1.4-0.2c-0.8,0.5-2.1,1.2-3.7,1.5
	c0,0-0.2-0.2-0.4-0.4c-0.2-0.2-0.3-0.4-0.3-0.4c-0.1,0-0.2,0-0.3,0c-0.7-0.2-1-0.1-1,0.1c0,0.2,0.2,0.6,0.6,1
	c-0.8,0.1-1.6,0.1-2.2,0.2c-0.4-0.9-1.4-1.1-2.3-1.6l-0.3-0.2l-0.2-0.1l-0.2-0.2c-0.3-0.2-0.6-0.5-0.9-0.7c-0.5-0.5-1-1.1-1.2-1.7
	c-1.6-0.4-8.9-6.5-10.8-6c0.1-0.2-0.4-0.7,0.6,0c-1.8-1.7-3.6-3.3-5.6-4.4l-0.1-1.5l-5.1-2.2c-2.1-2.6-2.9-3.7,0.1-2.4
	c-6.9-3.8-5.2-3.6-11.2-6.7l0.7-0.4c-1.9-1.5-5.4-3.1-6.1-4.4c-0.8-1.1-2.5-2.7-4.7-4.6l-0.2-0.2l-0.3-0.2c-0.2-0.1-0.4-0.3-0.6-0.4
	c-0.4-0.3-0.8-0.5-1.3-0.8c-0.9-0.5-1.9-0.9-3-1.1c-2.1-0.5-4.6-0.5-6.9,0.2c-1.2,0.4-2.3,0.9-3.4,1.6c-1.1,0.7-2,1.5-2.9,2.5
	c-1.3,1.5-2.6,3-3.9,4.5c-2.6,3-5.2,5.8-7.6,8.2c3.3-0.7-4.8,4.2-3.8,5.7c-0.9,0.3-2.3,1.5-1.2-0.4c-4.1,5.6-7.3,7.5-9.3,12
	c-0.9,0.3,0.4-1.6-0.3-1.3c-0.3,0.5-1.1,2-1.8,2.3c-0.7,0.3,0.3-1,0.9-2c-4.5,5.5-3.7,7-2.9,8.3c-2.8,2.3-3.9,3.7-4.8,6.3
	c-1.2,0.6-2.9,1.9-0.2-1.5c-1.6,1.9-10.2,11.1-9.5,12.1c-0.7,0.4-2.3,2.6-2.6,3.2c-3.6,4.2-4,4.5-7.4,8.8l1.1-1
	c-0.3,2.5-2.7,3.7-5.3,7.1l0-0.2c-7.2,7.1-2.4,3.6-9.7,10.5l1,0.1c0.8,1.9-6.5,6-9.6,10.9l1.7-1.3c-0.8,1.4-2.7,2.7-4.6,3.9
	c-0.5,0.3-1,0.6-1.5,0.9c-0.6,0.5-1.3,1-2,1.5c-0.6,0.5-1.3,1.1-1.9,1.6c-0.3,0.3-0.6,0.5-0.8,0.8c-0.2,0.2-0.6,0.5-0.6,0.7
	c-0.1,0.2-0.2,0.2-0.2,0.1c0-0.1,0-0.3,0.3-0.6c0.5-0.6,1.1-1.5,1.6-2.1c-0.6,0.6-1.2,1.2-1.7,1.7c-0.2,0.3-0.5,0.5-0.6,0.7
	c-0.1,0.2-0.2,0.4-0.3,0.5c-0.4,0.6-0.6,1.1-0.7,1.4c-0.2,0.6-0.1,0.7,0.2,0.7c0.5,0,1.3-0.2-0.3,2.8c-0.6,0.6-0.8,0.3-1.2,0.3
	c-0.3,0.1-0.8,0.5-2,2.7c-0.2,0.3-0.4,0.7-0.6,1.2c-0.1,0.2-0.2,0.5-0.4,0.8c-0.1,0.1-0.1,0.3-0.2,0.5l0,0l0,0l0,0
	c-0.1,0,0.8-0.4,0.4-0.2v0c0,0,0,0,0,0.1c0,0,0,0.1,0,0.1l0.1,0.2c0.1,0.2,0.2,0.4,0.4,0.6c0.3,0.2,0.5,0.3,0.9,0.5
	c0.7,0.3,1.5,0.6,2.6,0.8c0.5,0.1,1.1,0.2,1.7,0.3c0.6,0.1,1.3,0.1,2.1,0.1c1.4,0,2.9-0.1,4.3-0.1c1.4,0,2.7,0,4,0
	c0.6,0,1.2,0.1,1.8,0.1c0.3,0,0.6,0.1,0.9,0.1c0.3,0,0.4,0.1,0.6,0.1c-0.2-0.1-0.3-0.1-0.5-0.2c-0.2-0.1-0.4-0.1-0.6-0.2
	c-0.4-0.1-0.6-0.2-0.7-0.3s0.1-0.2,0.5-0.3c0.2-0.1,0.5-0.1,0.8-0.1c0.3,0,0.5-0.1,0.9-0.1c4.4-0.2,11.9,1.8,15.8,0.3
	c0.6,0.1,0.8,0.3,0.8,0.4c3.4-0.4,10.9-0.6,12.9-1.5c3.1,3,20.8-1.5,20.8,1.3l10.3-0.1l-0.3,0.3c6.6,0.2,8.9-0.5,11.2-1.1
	c1.5,0.2,0.4,0.4,0.3,0.6c9.6,0.6,10.6,0.4,18.7-0.9l0.8,0.9c2.2-0.5,13.9,1.4,23.4,0.4c-0.1,0.1-0.3,0.3-1,0.4
	c10.6-1.1,25.4,2.5,29.3-0.8l7-0.8c-9.1-0.3,1.4-1.4-2.4-2c3.6-0.2,9.2,1,4.8,1.2l-0.7-0.2c-1.6,1.7,11.3,0.6,11,1.8
	c17.8-0.1,35.2,0.9,52,0.9l-1.9-1.3l5.8,0.1c1.5,0.3,2.1,1-2.1,1c2.2,0.8,7-0.6,7.1-0.9c8.1,0.5-3.2,1.6-0.7,1.6l3.4-0.1l-0.8-0.2
	c2.8-0.5,3-1.1,8-1.1c3.2,0.3,1.6,0.8,2.9,0.9c0,0.1,0.4,0.1,1.9,0l7.3,0.1l-2.9-1.1c3.3-0.5,6.9,0.1,3.5-1.1
	c0.6,0.2,1.5,0.4,2.6,0.6c0.5,0.1,1.1,0.1,1.8,0.2c0.3,0,0.6,0,1,0.1c0.2,0,0.3,0,0.5,0l0.1,0c0.5,0.2,1.1,0.2,1.6,0.2
	c1.1,0,2.2-0.1,2.5,0.1c0.8-0.8,1.6-0.8,2.5-0.7c-0.2-0.2-0.4-1.4,0.4-1.3c-0.3,2.4,1.5,1.1,2.2,2.8c-0.6-1.2,2.4-0.3,1.4-1.9
	c0.7,0.2,0,0.9,0.6,1.5c1.7-0.9,3.6,0.6,5.7,0.3c0-0.3-0.3-0.8,0.1-1.3l1.1,1.6c0.4-0.2,0.4-1.8,1.1-0.7c-0.1-0.3-0.3-0.7,0-0.8
	c4,1.6,8.2-1.3,12.2,1.7c-0.5-0.6-0.2-0.7,0.2-0.7c-0.3-0.1,0-0.8,0-1.2l1.7,1.2c0.3-1.2,1.8-0.1,2-1.2l-0.5,0.2
	c0.7-1.4-1-3-0.9-4.8c-0.8,1.5-2.1-2.3-3.4-0.1c-0.3-0.4,0.2-0.6,0.1-1c-0.3,0.7-0.7,0.9-1.5,0.6l0.1-0.2c-2.1,0.2-3-0.6-5.4-1
	l0.2,0.9c-0.5-0.1-0.6-0.4-0.9-0.6c-0.6,1.3,1.4,0.1,0.9,1.5c-0.7-1.8-3.6,0-4-2c-0.8,0,0.2,1-0.6,1l-0.2-0.5l-0.2,0.7
	c-0.5-0.1-0.8-0.8-0.8-1.2c0.1,0.1,0.4-0.1,0.5-0.2c-0.7-0.6-1.9,0.2-2.1,0l0.7,0.3c-2.1,0.5-4.7-0.2-6.8,0.9l0.2,0.4
	c-1.6,0.8-1.3-0.4-3-0.1l0.1-0.1c-0.3,0.4-0.8,0.6-1.3,0.6c0.4-0.5-0.8-0.9-0.2-1.5c-1.7,0.8-0.8,0.6-2,2.1l-0.3-0.7
	c-0.4,0.6-0.4,0.9-1.3,1.1c0.7-0.6-0.5-1,0.2-1.8c-0.9-0.7-1.6-0.4-2.1-0.1c-0.3,0.1-0.5,0.3-0.7,0.2c-0.1,0-0.2-0.1-0.3-0.2
	c0,0-0.1-0.1-0.1-0.1l0-0.1l-0.2-0.1c-0.3-0.1-0.6-0.2-0.9-0.3c-1.2,0.5-1.2,0.8-0.7,1c0.5,0.2,2.2,0.3,2,0.3c0.4,0.1,0.9,0,0.7,0.2
	c0.2,0.3,0,0.7-0.3,0.9c-0.1,0.1-0.3,0.2-0.5,0.3c0,0-0.1,0-0.1,0c-0.2,0-0.5,0-0.7,0c-0.5,0-0.9,0-1.3,0c-3.3,0-5.7-2.4-14.1-2.4
	c0.8,0,0.9-0.1,1.7-0.1c-3.1-0.5-6.1,0.6-10-0.1c-2.2,1.1-5-0.1-5.6,1.4l7.7-0.3c-4.4,0.4-8.4,2.1-15.6,1.2c0.6-0.3,2.7-0.7,4.2-0.9
	c-2.1-0.4-4,0.3-6.2-0.2c0.6-1.4,9.3-0.3,14-1.4c-2.3-0.6-8.8,1-6.5-0.5c-3.4,2-8.3-0.3-13.9,1.3l0.4-0.9c-0.9,0.1-2.8,0.5-4.4,0.5
	l3-1.1c-4.6,1-8.9-0.8-13.3-0.3c9.2,0,2.1,1,6,1.7c-11.4,1.2-6.5-2.3-19.3-1.8c1.7-0.1,6.5,0.5,3.8,0.9c-2.4-0.2-5.6-0.5-7.1-1
	c-8.4,0.2,1.3,0.9-2.3,1.4c-2.9-1.1-4.1,0.4-7.9,0.8l0-0.9c-9.6-0.6-2.6,1.8-11.2,1.1l3.7-1.2l-4.5,0.3l0.9-1
	c-4.9,0.7-6.4,0.5-11.3,0.3c1.1,0.6-0.6,1.6-4.9,1.6c-2.9-0.5,1.6-0.8-4.4-0.7c1.4-0.5,2.9-1.2,5.5-0.4c0.3-0.3,1.3-0.6,1.6-0.8
	c-3.1-0.6-7.9-0.1-10.1-0.1c0.8,0,1.8,0.1,2.4,0.2l-8.8,1.2c-1.4-0.3-0.3-0.6,0.8-0.9c-1.8,0.1-3,0.5-5.6,0.6
	c0.7-0.7,0.5-1.5,4.2-1.8l-8.3,0.8c-0.6-0.3-4.3-0.9-3.2-1.1c-4.6-0.4-11.4,1.4-17.5,0.8c-0.3,0.1-1,0.3-2.3,0.4
	c-5.8-0.2-10.9-1-17.7-0.1l-3.9-1.3c-5.4,0.3,5.2,1.6-3.7,2.1c-6.3,0.4-2.4-1.1-4.6-1.4c-3.1,0.6-8.6,2-14.4,0.9
	C76.1,204.3,77.6,204.5,79.4,204.4z"/>
<path class="st0" d="M69,144.1c-0.3,0.2-0.5,0.2-0.7,0.1C68.1,144.7,68.2,144.9,69,144.1z"/>
<path class="st0" d="M120.4,204l0.2,0c0.1-0.1,0.2-0.1,0.2-0.2L120.4,204z"/>
<path class="st0" d="M224.8,100.4c-0.8,0.1-1.3,0.2-1.6,0.2c0,0.1,0.1,0.1,0.4,0.1c0.1,0,0.3,0,0.5-0.1
	C224.2,100.6,224.5,100.5,224.8,100.4z"/>
<path class="st0" d="M310,182.4l-2.6-2.8c1.2,1.4,1.5,2,2,2.8C309.5,182.3,309.2,181.5,310,182.4z"/>
<path class="st0" d="M315.6,197.6c0.1,0,0.1,0.1,0.3,0.2l0.3-0.3C315.9,197.2,315.5,197.2,315.6,197.6z"/>
<path class="st0" d="M310,187c-0.4,0.7,1.3,2.4,3.2,4.3c-0.1-0.1-0.2-0.2-0.3-0.4C314.2,190.9,312.1,188.9,310,187z"/>
<path class="st0" d="M313.6,191.8l0.8,0.9l0.4,0.5l0.2,0.2l0,0c0.1-0.1,0.1-0.1,0.1-0.1c0,0,0,0-0.2-0.2
	C314.6,192.7,314.1,192.3,313.6,191.8z"/>
<path class="st0" d="M293.9,164.7c0.7,1.1,1.2,0,1.5,0.7C297,165.9,289.1,159.7,293.9,164.7z"/>
<polygon class="st0" points="309.5,190.2 309.6,188.9 308.1,188.2 "/>
<path class="st0" d="M296.6,173.7l2.5,3.4c0.1-0.1,0.5,0.2,1,0.7C298.4,175.7,296.7,173.4,296.6,173.7z"/>
<path class="st0" d="M300.1,177.7c0.9,1.1,1.7,2,2.3,2.5C301.9,179.7,300.9,178.5,300.1,177.7z"/>
<polygon class="st0" points="305.6,185.9 304.9,184.8 303.1,182.5 "/>
<path class="st0" d="M267.4,138.5l-3.2-3.4c-0.5-0.2,0.1,0.9,1.3,2.2C266.5,138,267.7,139.2,267.4,138.5z"/>
<path class="st0" d="M274.5,150.9c-0.7-1.1-0.6-1.3-0.8-2l-1,0.6L274.5,150.9z"/>
<path class="st0" d="M265.6,140.7c-0.5-0.2-5-4.6-1.2-0.1C265,140.7,268.2,144.1,265.6,140.7z"/>
<polygon class="st0" points="218.1,101.1 219,100.3 217.7,99 "/>
<path class="st0" d="M168.9,141.9c1.9,0,2.9-0.3,3.5-0.5c0.6-0.2,0.7-0.4,0.9-0.6c0.1-0.2,0.2-0.3,0.7-0.6c0.5-0.3,1.3-0.5,2.9-1.3
	c0.3-0.3,0.2-0.3-0.2-0.2c-0.4,0.2-1,0.4-1.6,0.7c-1.3,0.5-2.5,0.7-1.8,0.3c-2,0.9-3.6,1-4.4,1.2C168,141.1,167.9,141.3,168.9,141.9
	z"/>
<path class="st0" d="M173.2,139.7c0.6-0.3,1.3-0.6,1.9-1.1C174.1,139.3,173.5,139.5,173.2,139.7z"/>
<polygon class="st0" points="313.6,213.5 314.2,213.8 313.8,213.2 "/>
<path class="st0" d="M314.7,212.1l0.1,1.2l0.4-1.1C315.1,212.2,314.8,212.3,314.7,212.1z"/>
<path class="st0" d="M24.9,202.1l-0.4,0c-0.5,0.1-0.6,0.2-0.9,0.5c0,0,0.4-0.2,0.7-0.3C24.6,202.1,24.9,202.1,24.9,202.1z"/>
<polygon class="st0" points="51.5,203.5 50.7,203.5 52.2,204.6 "/>
<path class="st0" d="M91.7,202.2c-1.6,0-3.6,0.2-5.2,0.1C90.1,202.1,92.1,203.5,91.7,202.2z"/>
<path class="st0" d="M96.4,76.8c-0.2-0.2-0.6,0.4-0.7,0.5C96.2,77.4,96.5,76.6,96.4,76.8z"/>
<polygon class="st0" points="101,78.2 100.8,78.4 101.8,78.3 "/>
<path class="st0" d="M104.3,80.9c0.5-1.3-1.3-0.8-1.6-1.6l0.1-0.3l-0.9,0.6C102.7,80,104,80.2,104.3,80.9z"/>
<path class="st0" d="M104.3,84.5c0.2-0.5,0.7,0-0.3-0.5c0,0.1,0,0.1,0,0.2C104,84.2,104.1,84.3,104.3,84.5z"/>
<path class="st0" d="M104,84.2"/>
<path class="st0" d="M105.7,85.2l-0.7,0c-0.1,0.3,0.3,0.7,0,0.7C105.6,86.2,105.7,85.8,105.7,85.2z"/>
<path class="st0" d="M106.8,84.9l-0.4,0C106.4,84.9,106.4,85,106.8,84.9z"/>
<path class="st0" d="M105.6,84.7l0.8,0.1c0.1-0.2,0.3-0.6-0.3-0.1C106.4,84.5,106,84.7,105.6,84.7z"/>
<path class="st0" d="M105.5,84.3c-0.1-0.4-0.3-0.8,0.4-0.8C104.9,83,104.5,83.8,105.5,84.3z"/>
<path class="st0" d="M105.3,80l-0.1-0.6l-0.6,0.1C104.9,79.5,105.1,80.3,105.3,80z"/>
<path class="st0" d="M108.1,88c0.2-0.2,0.3-0.7,0.5-1l-0.5,0C108.2,87.3,108.4,87.7,108.1,88z"/>
<path class="st0" d="M108.6,87l0.8,0C109,86.7,108.8,86.8,108.6,87z"/>
<polygon class="st0" points="107.7,83.8 106.3,83.9 107.9,83.9 "/>
<polygon class="st0" points="110,89.6 109.4,89.9 110.5,89.5 "/>
<path class="st0" d="M111.4,90.5c-0.5,0.2-0.3,0.9-0.7,1c0.4,0.2,1,0.1,1.5,0C111.8,91.5,111.5,91.2,111.4,90.5z"/>
<path class="st0" d="M113,91.4c-0.2,0-0.5,0-0.8,0.1C112.4,91.6,112.7,91.5,113,91.4z"/>
<path class="st0" d="M110.2,87.9c-0.1,0.2-0.3,0.6-0.1,0.9l0.3-0.8C110.3,88,110.3,87.9,110.2,87.9z"/>
<path class="st0" d="M110.4,88L110.4,88c0.2,0.2,0.3,0.3,0.4,0.4C110.7,88.4,110.6,88.2,110.4,88z"/>
<path class="st0" d="M110.2,87.8L110.2,87.8C110.2,87.8,110.2,87.8,110.2,87.8z"/>
<path class="st0" d="M108.6,85.4c0.6-0.1,1.5,0,1.3-1C109.4,84.7,109.5,85.2,108.6,85.4z"/>
<path class="st0" d="M110.5,86.9l-0.4-0.6c-0.1,0.2-0.2,0.5-0.5,0.5L110.5,86.9z"/>
<polygon class="st0" points="110.9,86.9 110.5,86.9 110.7,87.1 "/>
<path class="st0" d="M112.5,90.1c0.4-0.1,0.7,0.1,1,0.3c-0.2-0.4-0.5-0.7-0.8-0.9C112.6,89.7,112.2,89.9,112.5,90.1z"/>
<path class="st0" d="M111.5,89C111.6,89.1,111.6,89.1,111.5,89C111.6,89,111.6,88.9,111.5,89z"/>
<path class="st0" d="M116.4,92.7c0,0,0-0.1,0-0.1C116.4,92.6,116.4,92.6,116.4,92.7L116.4,92.7z"/>
<path class="st0" d="M112.8,89.3c-0.1-0.3-0.4-0.3-0.7-0.2c0.2,0.1,0.4,0.2,0.6,0.3C112.9,89.4,112.9,89.4,112.8,89.3z"/>
<path class="st0" d="M114,91.8c0-0.2-0.1-0.4-0.1-0.7C113.8,91.4,113.8,91.9,114,91.8z"/>
<path class="st0" d="M111.6,89.3C111.5,89.3,111.5,89.3,111.6,89.3C111.5,89.5,111.5,89.4,111.6,89.3z"/>
<path class="st0" d="M111.6,89.3c0.2,0,0.4-0.1,0.6-0.1c-0.2-0.1-0.4-0.1-0.5-0.1C111.6,89.1,111.6,89.2,111.6,89.3z"/>
<path class="st0" d="M120.4,89.5c-0.5,0.5-1.5,0.6-1.5-0.5c-0.9,0-2,2.1-2.4,3.5c0.2-0.2,0.4-0.5,1.2-0.4c0.1-0.5-0.6-1.7,0.3-1.8
	c0.9,0.3,0.4,0.7,0.5,1.2c0.3-0.9,1.7-0.3,2.4-1.5l-0.9-0.1C120,89.8,120.4,89.7,120.4,89.5z"/>
<path class="st0" d="M115.5,91.7l-0.3-0.1c0.2,0.3,0.2,0.7,0.1,1.4c0.6,0,0.8-0.1,1-0.3l-1-0.9L115.5,91.7z"/>
<path class="st0" d="M114.2,90.8c0.7-0.5,1.4-0.3,1.6-1.2c-0.7-0.5-0.9,0.2-1.4,0.1C115.5,90.3,113.8,89.8,114.2,90.8
	c-0.2-0.1-0.4-0.2-0.6-0.4c0.1,0.2,0.2,0.5,0.3,0.7c0,0,0,0,0-0.1l0,0l0,0c0-0.1,0-0.2,0.1-0.1c0,0,0,0,0,0
	C114.1,90.9,114.1,90.8,114.2,90.8c0.2,0.4-0.1,0.2-0.2,0.2c0,0-0.1,0-0.1,0.1l0,0l1.3,0.5C115,91.3,114.8,91.1,114.2,90.8z"/>
<path class="st0" d="M111.5,83.6c0,0.1,0,0.1-0.1,0.2C111.6,83.7,111.6,83.7,111.5,83.6z"/>
<path class="st0" d="M111.6,84.3c-0.1,0-0.4,0.2-0.6,0c-0.1-0.4,0.2-0.3,0.4-0.5c-0.3,0-0.9,0-0.6,0.7l0.1,0c0.2,0.5,0.2,1.7,0,1.8
	C111.3,85.5,111.5,85,111.6,84.3z"/>
<path class="st0" d="M113.1,87.4l1.1,0.4l0-0.9l-0.2,0.3C113.5,86.7,113.3,87.2,113.1,87.4z"/>
<polygon class="st0" points="116.2,93.1 115.6,93.6 116.8,93.1 "/>
<polygon class="st0" points="117.4,93.9 116.9,94.4 117.5,94.3 "/>
<path class="st0" d="M156.2,8.2l-1.6,0.2C155.4,8.3,155.9,8.3,156.2,8.2z"/>
<path class="st0" d="M167.9,8.2l0.3-0.4C167.6,8.1,167.4,8.2,167.9,8.2z"/>
<path class="st0" d="M266.5,54.8c2.5-1.3,5.7-2.7,4.7-2.8l-1.3,0.1C268.7,53.3,267.6,54.2,266.5,54.8z"/>
<path class="st0" d="M267,4.1c0.2,0.1,0.3,0.2,0.5,0.2c0.4-0.1,0.8-0.3,1.2-0.4c0.4-0.1,0.7-0.2,1.1-0.3C269,3.8,268.1,3.9,267,4.1z
	"/>
<path class="st0" d="M262.2,7.3l-2.6-0.5C260.1,7,261,7.2,262.2,7.3z"/>
<path class="st0" d="M93.4,9l-1.2,0.8C95.1,9.8,93.5,9.4,93.4,9z"/>
<path class="st0" d="M182.7,122.4c1.8-1.1,3.2-2,4.4-2.9C184.9,120.7,182.8,121.4,182.7,122.4z"/>
<path class="st0" d="M160.3,0.8c-1,0.1-1.5,0.2-1.4,0.4C159.9,1.1,160.5,1,160.3,0.8z"/>
<path class="st0" d="M191.9,115.6c-0.3,0.2-0.6,0.4-1,0.6c-1.1,1.1-2.3,2.1-3.8,3.3C188.8,118.5,190.6,117.4,191.9,115.6z"/>
<path class="st0" d="M89.1,59.5c0,0,0,0.1,0,0.1C89.2,59.5,89.2,59.5,89.1,59.5z"/>
<path class="st0" d="M93.7,73.3c-0.1-0.1-0.3-0.2-0.5-0.3C93.3,73.1,93.4,73.2,93.7,73.3z"/>
<path class="st0" d="M138.5,111.2"/>
<path class="st0" d="M134.5,104c0.3,0.1,0.6,0.2,0.7,0.1C135,104.2,134.7,104.1,134.5,104z"/>
<path class="st0" d="M201,102c0,0,0.1-0.1,0.1-0.1C200.6,102.1,200.7,102.1,201,102z"/>
<path class="st0" d="M136.8,109.5c0.4,0.4,0.9,0.9,1.4,1.4C138,110.7,137.6,110.2,136.8,109.5z"/>
<path class="st0" d="M136.9,110c-0.4-0.4-0.7-0.6-1-0.9C135.6,109,135.7,109.2,136.9,110z"/>
<path class="st0" d="M140.2,112.6c-0.7-0.6-1.3-1.1-1.9-1.7c0.2,0.2,0.3,0.4,0.2,0.3C138.8,111.5,139.3,111.9,140.2,112.6z"/>
<path class="st0" d="M50.3,31c0,0.1,0.1,0.1,0.2,0.2C52.1,32.1,51.5,31.7,50.3,31z"/>
<path class="st0" d="M289.3,26.5c0,0,0,0.1-0.1,0.1c0.1,0,0.2-0.1,0.2-0.1L289.3,26.5z"/>
<path class="st0" d="M292.6,23.1c-0.3,1.5-1.5,2.3-3.2,3.4l4.7-0.9c0,0-0.4-0.7-0.7-1.3C293,23.7,292.6,23.1,292.6,23.1z"/>
<path class="st0" d="M56.8,43.2l-0.6-0.8C58.3,43.9,57.5,43.5,56.8,43.2z M148.4,117.8c-0.5-0.2-0.5-0.1-0.4,0.1
	c0.4,0.1,1.4,0.8,2.4,1.7C150.2,119.2,149.8,118.7,148.4,117.8z M152.3,121.5c0,0,0.1,0,0.1,0C154.2,123.4,153.6,122.7,152.3,121.5z
	 M274,5.7c-1.1,0.3-2.3,0.1-3.4-0.2C271.7,5.5,272.9,5.5,274,5.7z M185.2,7.9c-1.1,0.2-3.4,0.8-4.1,0.2
	C182.5,7.1,183.4,7.6,185.2,7.9z M128.5,8.4l4,0.7c-4.1,1.2-7.5,0.8-3.6,1.8c-0.3-1.2,3.4-1.3,7-1.4s7.2-0.1,7.2-1.4l2.6,0.5
	c-0.7,0-0.8,0.1-1.5,0.1c5.1,1.2,3.2-1.8,9.6-1.4c2.2,0.2,3.8,0.5,2.3,0.8l4.8-0.6c1.4,0,1.1,0.5-0.3,0.4l7.4-0.2l-0.1,0.1
	c1.1-0.4,3.5-1,4.7-1.2c1.9,0.4-1,0.3-0.5,0.6l4.2-0.6c1.6,0.6-1.9,1.3-4.7,1.2c1.9,1.2,2.7,1.1,4.1,0.8c1.4-0.3,3.5-0.7,7.5,0
	l-3.9,0.3c2.3,1.4,5.3,0.9,9.5,1.8c-0.5-0.2-2.5-0.8-3.9-1.4c-1.4-0.6-2.1-1.2,0.2-1.5c1.2,0.2,2.9,0.3,5.4-0.2
	c-0.2,0.9,2.2,0.7,5.2,0.6l-0.5,1.2c3.2-0.3,3.2-0.9,5.2-1.5c3.5,0.1,3.9,1,4.4,1.8c5.5,0.2-3.3-1.4,3.4-1.7c4.5,0.4,8,0,14.1-0.7
	c3.1,0.4-1,0.7,0,1l3.5-0.9c0.7,0,0.3,0.3,0.1,0.5c2.7-0.4,0.9-1.2,5-1.5c0.9-0.6,2.7-0.2,4.9,0.3c2.2,0.4,4.8,0.9,7.8,0.1
	c0.9,0.3-1.1,0.7-1.1,1.2c7.4-1,6.2-0.7,12.8-2l4,0.8c-2.6-0.9,2.7-1.9,7.5-2.8c-0.4-0.2-0.9-0.3-1.3-0.5c-0.4-0.1-0.8-0.2-1.1-0.3
	l6.8-0.5c0.6,0.1-0.3,0.4-1.7,0.8c0.5-0.1,1-0.2,1.4-0.2c0.5,0.1,0.7,0.2,0.8,0.3c0.1,0.1,0,0.2-0.3,0.4c-0.5,0.3-1.5,0.6-2.7,1
	c-0.5-0.2-1-0.5-1.5-0.7c-2.2,0.7-4.4,1.5-4.7,2.2c0.5-0.1,1.4-0.3,2.3-0.3c-0.6,0.2-1,0.4-0.9,0.5c0.1,0.1,1-0.1,2.3-0.4l0.1,1.3
	l0.9-0.5l7.1,0.8c7.1-1.3,14.4-3.2,24.5-3.8c-3.5,1-2.5,1.6-4,2.7c-1-1.2-7.7,0.5-12.1,0.3c2.3,0.1,1.1,0.7,0.3,0.8l9.7-1.1
	c-1.3,0.9,0.9,0.7,2.6,1.1c0.7-1.8,7.9-1.2,12.1-1.8c-0.6,0.6-2.3,1.2-6.3,1.1c1.4,0.7,3.6,0.2,5.8-0.4c1.1-0.3,2.3-0.6,3.3-0.7
	c0.8-0.1,1.6-0.1,1.8,0.4c-0.7-0.2-0.9-0.3-1.7,0c0.6-0.1,1.3-0.1,1.9,0.1c0.6,0.2,1.1,0.7,0.9,1.4c-0.1,0.6-0.6,1-1,1.3
	c-0.4,0.3-0.7,0.3-0.8,0.2c0,0,0.1-0.1,0.2-0.3c0.1-0.1,0.1-0.3,0.1-0.3c-0.3,0.5-0.7,0.9-1.2,1.3c-0.1,0.1-0.2,0.2-0.4,0.3
	c-0.2,0.2-0.4,0.3-0.6,0.5c-0.4,0.3-0.8,0.7-1.3,1c-1.7,1.4-3.5,2.9-5,4.2c-3.1,2.7-5.3,5.1-4.5,5.4c-0.4,0-2.2-0.7-2.3-0.9
	c0,0-0.3,1.9-0.8,4c-0.1,0.5-0.3,1-0.4,1.5c-0.2,0.5-0.4,1-0.6,1.4c-0.4,0.8-0.6,1.4-0.6,1.4c-0.1-0.2-0.7-0.3-1.3-0.3
	c-0.4,0-0.8,0-1.2,0c-0.4,0-0.9,0-1.3,0c-1.6,0-2.7-0.5-1.1-2.2c-1.5,1-3.3,2.1-5.3,4.3c1.1-0.6,4.8-1.4,3.7-0.4
	c-2.6,1.2-3.4,1.6-4.3,2c-0.9,0.5-1.8,1.1-4.6,2.5c1.6-0.9,2.9,0.7,0.7,2.4c-0.1-0.3-2.7-0.4-2.3-1.1c0,0-0.6,1.1-1.2,2.3
	c-0.6,1.2-1.3,2.4-1.3,2.4c0.8-1.1-1.9-0.7-3.6-0.1c1-0.3-4.3,3.4-5.4,4.5l2.6-1.5c-5.9,4.4-2.5,5.7-8.5,10.4
	c0.3-0.8-0.8-2.7-3.9-0.5c-0.2,0.8-0.4,2.6-1.3,4.9c-1,2.3-2.6,5.1-4.9,7.5l-1.4,0.4l-3.6,3.8c0.7-1.6,2.3-4.4,3.9-7.1
	c1.6-2.8,3.1-5.5,4.3-7.3c-2.5,1.4-1.2,0.1-4.3,2.6c-1.6,0.5,1-1.9,1.8-2.6l-7.4,5.5c1.3,0.5-4.6,5.2-3.6,5.8l6.9-7.2
	c0.7,0.3,0.2,1.7-1.1,3.7c-1.3,2-3.6,4.4-6.3,6.5c-1.7,0.7-0.4-2.4-0.8-2.6c-0.2,0.4-1.3,1.6-2.4,2.6c-1.1,1-2.4,2.1-2.7,2.2
	l1.9-2.3c-3.3,2-3.9,5.2-8.3,7.2c-1.3,0.9-4.7,1.8-4.5,2.5c2.9-0.6,6,2.5,5.3,4.4c-0.5,0.3-7.4,4.3-9.3,4.9
	c-2.8,0.8,1.5-4.5-0.9-3.8c0.1,0.3-0.8,1.6-1.1,2c-1.5,0.8-0.1-1.2-2.9,1.2c0.3,1.4-5.9,4.6-0.7,1.9c-2.6,2.5-3.1,2.2-6.4,4.9
	c1.5-0.2-1.2,4.5-3.8,7c0-0.4-0.9-0.2-1.3-0.1c-5.8,4.5-9.3,6.6-14.6,10.9c-0.7,0.2-3.5,2-2.7,0.7c-0.6,0.8-1.1,1.7-2.7,3
	c-3.9,1.7,3.6-3.1,0.3-2.1c0.2,0.7-3.6,4.2-5.7,6.5c1.4,0.3,5.6-4.2,7.6-6.4c0.5,0.6,0,2-1.3,3.9c-0.6,1-1.5,2-2.5,3.2
	c-0.5,0.6-1,1.2-1.6,1.8c-0.3,0.3-0.5,0.6-1,1c-0.4,0.4-0.8,0.7-1.3,1c-1.5,0.9-2.5,1.2-3.1,1.3c-0.6,0.1-0.8,0-0.9-0.1
	c-0.1-0.2,0.4-0.7-0.1-0.4c-2.9,0.6-5.1,0.5-6.8,0.3c-1.7-0.1-3-0.4-4.3-0.7c-0.6-0.2-1.2-0.4-1.8-0.7c-0.3-0.2-0.6-0.3-0.8-0.4
	c-0.3-0.1-0.5-0.3-0.8-0.5c-1.1-0.7-2.3-1.7-3.8-3.3c-2.1-3,1.1-1.6,0.9-2.7c1.9,1.3,3.2,2.6,4.3,3.7c0.6,0.6,1,1.1,1.7,1.7
	c0.6,0.5,1.3,1,2.1,1.3c0,0-0.9-0.5-1.7-1.2c-0.4-0.4-0.8-0.7-1-1c-0.3-0.3-0.4-0.4-0.4-0.4c0.7,0.3,1.7,1,2.8,1.5
	c1.1,0.5,2.2,0.9,3,1.2c-0.7-0.4-2.1-0.9-3.7-2c-1.5-1.2-3.4-2.8-5.4-4.4c-4-3.3-8.6-7-11.5-9.9c-1.4-0.7-3.5-2-2.9-0.9l2.1,1.5
	c1.4,2.1-4.5-2.2-2.2,0.1c-3.1-1.8-6.7-3.6-10.3-7l0-1.5c-0.1,0.3,2.1,2.5,3.4,3.1c-1.9-0.9-5-5.9-7.6-6.2l2.2,2.8
	c-3.1-1.8-7.2-3.6-10.4-6.6c0.9,2.1,0.9,0.5,2.5,3.5c-1.1-2.9,8.7,7.1,6.4,3c1.6,3.2,3.9,4,6.4,7.6c0.1-0.4-0.7-1.5,2,1
	c0.2,0,0.6,0.2,0.8,0.3c0.1,0.1,0.1,0.1,0.2,0.2c0-0.1-0.1-0.1-0.1-0.2c0.2,0.1,0.2,0.1,0-0.1c-0.6-0.7-1-1.3-1.1-1.6
	c2,0.5,6.5,4.2,8.3,5.1c1.6,1.5-1-0.2-0.3,0.8l2.7,1.3c-0.3,0.8,3.7,4.7-0.6,1.8l3.6,2.9c1.8,2.1,4.6,4.6,6.7,5.7
	c0.2,0.2,0.4,0.4,0.7,0.5l0.4,0.3l0.5,0.3c0.4,0.2,0.7,0.4,1.1,0.6c0.4,0.2,0.7,0.3,1,0.4c1.2,0.4,1.7,0.5,0.3,0.2
	c0,0,0.6,0.3,1.5,0.6c0.9,0.3,2.1,0.6,3.3,0.8c1.2,0.2,2.4,0.2,3.3,0.2c0.9,0,1.5-0.1,1.5-0.1l0.1,0.2c2.4-0.2,4.8-0.9,7-2.2
	c1.1-0.6,2.2-1.6,2.8-2.1c0.7-0.6,1.4-1.3,2.1-1.9c2.9-2.5,5.9-5,9.6-7c1.8-1.7,3.5-3.4,6.8-5.8l1.1,0.1c2.3-2.1,7.7-5.3,8.3-6.7
	c3.8-0.6,12-9.1,16.4-12.2l-0.4-0.8c3-2.3,5.6-4.8,9-8l-0.7-0.5c2.7-3.1,8.3-5.9,13.5-10.3c-0.1,0.5-1.5,1.5-2.5,2.1
	c3.7-1.8,6.7-4.8,9.6-7.6c2.9-2.9,5.6-5.6,8.9-7.5c1.1-1.3,2.2-2.1,3.4-2.7c-0.1,0.1-0.2,0.2-0.3,0.3c0.1-0.1,0.4-0.3,0.6-0.5
	c0.7-0.4,1.5-0.9,2.3-1.4c-0.7,0.4-1.4,0.7-2,1.1c1.1-0.9,2.6-2.3,4-3.6l1.4-0.1c0.1-0.1,0.2-0.2,0.3-0.3c1.8-1.1,0.9-1.2-0.5-0.8
	c0.7-0.7,1.2-1.4,1.6-1.9c2.5-0.4,3.7-3.5,6.8-4.4c0.4-1.1,7.4-6.7,6.7-7.8c0.3,0,0.8-0.3,0,0.4c1.9-1.4,3.8-2.7,4.9-4.1l1.9-0.4
	l2.2-3.4c3-1.7,4.5-2.5,3.1-0.5c2.1-2.4,3-3.3,3.9-4.2c0.9-0.8,1.7-1.6,3.2-3.6l0.6,0.2c1.7-1.4,3.2-3.6,4.9-4.4
	c1.4-0.8,3.2-2.1,5.4-3.8c1.1-0.9,2.3-1.8,3.6-2.8c0.7-0.5,1.1-1.1,1.5-1.8c0.4-0.7,0.7-1.5,0.8-2.4c0.1-0.5,0-1-0.1-1.5
	c-0.2-0.5-0.4-0.9-0.8-1.3c-0.7-0.7-1.4-1.1-2.2-1.4c-0.4-0.2-0.8-0.3-1.2-0.4c-0.4-0.1-0.9,0-1.3-0.1c-0.9,0-1.8,0-2.7,0
	c-3.5-0.1-6.9-0.2-9.7-0.4c0.4,1.6-4.9-0.7-6.9,0.5c-0.3-0.4-1.8-0.6,0.7-0.9c-6.8,0.4-8.9-0.6-14.5,0.4c-0.3-0.4,2-0.6,1.6-0.8
	c-0.6,0.1-2.4,0.3-2.8,0.1c-0.4-0.2,1.3-0.3,2.5-0.5c-6.7,0.1-8.5,1.2-10.1,2.3c-2.7-0.5-4.5-0.4-7.5,0.3c-0.8-0.4-2.4-0.7,1.8-0.9
	c-2.2-0.1-13.4-0.5-14.3,0.4c-0.5-0.2-3.1-0.1-3.8,0c-5-0.1-5.4-0.1-10.4,0l1.3,0.1c-2.7,1-4.3,0.2-8.3,0.4l0.2-0.1
	c-8.7-0.8-4.1,0.4-12.7-0.5l0.2,0.7c-0.8,0.7-2.6,0.5-5,0.2c-2.4-0.3-5.3-0.7-8.1-0.5l1.7,0.4c-1.5,0.2-3.3-0.2-5.1-0.8
	c-1.8-0.6-3.7-1.2-5.1-1.3c-0.6-0.1,1.1-0.2,2-0.3c-7.4-0.8-1.2,0.9-7,1.1c-0.9-0.5,1.6-1.2-2.2-1.3c-0.9-0.2-3.8,0.2-7,0.5
	c-3.2,0.3-6.9,0.6-9.4,0.1c1.1,0.4,2.2,0.7-0.4,1c-4,0.1-10.9-1.3-14.5-0.2c-0.5-0.1-0.7-0.2-0.8-0.3c-3.1,0.3-10,0.5-11.7,1.1
	c-1.6-1.1-6.4-0.9-10.7-0.6c-4.3,0.3-8.2,0.6-8.6-0.4l-9.4,0.1l0.1-0.2c-6.1-0.1-8,0.4-9.9,0.9c-1.5-0.1-0.6-0.3-0.5-0.4
	c-9.1-0.4-10-0.3-16.6,0.7l-1.3-0.7c-0.9,0.2-4.2-0.1-8.4-0.3c-4.2-0.2-9.3-0.4-13.2,0c0-0.1,0.1-0.2,0.7-0.3
	C64.8,1.5,58.5,1,53.1,0.7C47.8,0.5,43.3,0.4,43,1.7l-5.7,0.6c8.5,0.2,0.1,1.1,4,1.5c-3,0.1-9.3-0.7-5.5-0.9L36.7,3
	c-0.2-1.3-10.8-0.5-11.8-1.3l-3.1,0l-1.5,0c-0.3,0-0.5,0-0.8,0l-0.7,0.2c-0.9,0.3-1.8,0.7-2.6,1.4c-0.4,0.4-0.8,0.8-1,1.4
	C15,5.2,14.9,5.8,15,6.3c0.3,2,1.3,3.7,3,4.8c1.5,1.3,3,2.6,4.5,3.8c5.9,5.1,11.8,10.2,17.8,15.1l0.1-1.4l4.1,3.4
	c0.8,1,0.4,1.4-2.6-1c0.8,1.5,5.7,4,6.1,4c2.6,2.4,1.7,2.1,0.3,1.3c-1.4-0.8-3.3-2.1-2.4-1.3l2.6,2L48,36.5c2.5,1.5,3.3,1.5,6.8,4.4
	c2,1.9,0.4,1.2,1.2,2c-0.1,0,0.2,0.3,1.3,1.1l5.2,4.4l-1.2-2.2c2.8,1.7,4.9,4,3.5,1.6c0.2,0.5,0.7,1.1,1.4,1.8
	c0.3,0.3,0.7,0.7,1.1,1.1c0.2,0.2,0.4,0.4,0.6,0.6l0.3,0.3l0,0.1c0.3,0.4,0.7,0.8,1.1,1.2c0.9,0.7,1.9,1.4,1.9,1.7
	c1.3,0.1,1.9,0.6,2.6,1.3c0-0.3,0.9-1,1.4-0.4c-2.2,1.1,0.3,1.5-0.5,2.9c0.5-1,2.1,1.4,2.7-0.1c0.4,0.6-0.7,0.5-0.7,1.2
	c2.1,0.5,2.4,2.7,4.3,3.9c0.3-0.2,0.4-0.7,1.1-0.7l-0.3,1.7c0.4,0.2,1.7-0.9,1.4,0.3c0.1-0.2,0.3-0.6,0.6-0.5c1,1.8,2.9,2.9,4.6,4.2
	c1.7,1.2,3.4,2.6,4,5c0-0.8,0.3-0.6,0.7-0.4c-0.1-0.3,0.5-0.6,0.8-0.9l0.6,2c1-0.7,1.5,1.1,2.4,0.4l-0.6-0.2c1.4-0.6,1.1-3,2.4-4.2
	c-1.6,0.7-0.1-3-2.5-2.1c0-0.4,0.6-0.3,0.7-0.6c-0.8,0.3-1.2,0.2-1.5-0.5l0.2-0.1c-1.7-1.1-1.8-2.2-3.2-3.9l-0.5,0.7
	c-0.3-0.4-0.2-0.6-0.2-0.9c-1.4,0.5,1,0.9-0.5,1.5c0.8-1.6-2.7-2.2-1.4-3.7c-0.6-0.5-0.6,0.8-1.2,0.3l0.3-0.5l-0.7,0.3
	c-0.3-0.4,0.1-1,0.4-1.2c0,0.1,0.4,0.1,0.5,0.2c0-0.8-1.5-1-1.5-1.2l0.3,0.6c-2-1-3.3-2.9-5.8-3.5l-0.3,0.3c-1.9-0.5-0.5-1-2.1-1.8
	l0.1,0c-0.6,0-1.2-0.2-1.5-0.5c0.8,0,0.3-1,1.2-0.9c-2-0.6-1.2-0.2-3.5-0.1l0.5-0.5c-0.9,0.1-1.2,0.2-2.1-0.2c1.1,0.1,0.6-0.8,2-0.7
	c0.1-0.9-0.8-1.1-1.5-1.3c-0.3-0.1-0.7-0.2-0.8-0.3c-0.1-0.1-0.1-0.2,0-0.3c0,0,0-0.1,0.1-0.1l0-0.1l-0.1-0.2
	c-0.1-0.2-0.2-0.4-0.2-0.6c-1.3-0.4-1.6-0.3-1.4,0.1c0.1,0.3,1.2,1.3,1,1.2c0.3,0.3,0.7,0.5,0.3,0.5c-0.2,0.3-0.6,0.3-1.1,0.3
	c-0.2,0-0.5-0.1-0.7-0.2l-0.1-0.1c-0.2-0.1-0.3-0.2-0.5-0.4c-0.3-0.3-0.6-0.5-0.9-0.8c-2.3-1.9-1.3-4.1-6.9-8.5
	c0.5,0.4,0.7,0.4,1.3,0.9c-1.5-1.8-4.9-3.1-6.5-5.4c-2.9-0.9-3.2-2.7-5.5-2.7l5.6,4.1c-1.7-1.1-3.8-2.1-5.9-3.4
	c-2.2-1.3-4.4-2.8-6.3-4.8c0.8,0.3,2.8,1.4,4.1,2.1c-0.8-1.2-3.1-2.2-4-3.4c1.2,0.1,2.9,1.3,4.8,2.8c1.9,1.5,4.2,3.3,6.4,4.4
	c-0.7-1.3-7.2-4.5-3.6-3.5c-2.4-0.7-3.8-1.8-5.1-3.1C47.5,26.9,46,25.5,43,24l1.5,0.1c-0.8-0.5-2.6-1.4-3.7-2.3l3.7,1.5
	c-2.2-1.2-3.4-2.4-4.4-3.5c-1-1.2-1.9-2.3-3.8-3.4c6.1,4.8-0.3,1.1,1.3,3.2c-4.7-3-4.9-3.9-5-4.9c-0.1-0.5-0.1-0.9-0.7-1.7
	c-0.3-0.4-0.7-0.9-1.3-1.4c-0.2-0.1-0.3-0.3-0.5-0.5c-0.2-0.1-0.3-0.3-0.5-0.4c-0.1-0.1-0.3-0.2-0.4-0.4c0.3,0.2,0,0.2,0.7,1
	c0.4,0.5,0.3,0.8-1,0.1c-0.2-0.2-0.3-0.3-0.5-0.5l-0.2-0.2l0-0.1c-0.1-0.1-0.1-0.3,0-0.4c0.1-0.2,0.4-0.5,0.9-0.5
	c0-0.3,0.1-0.4,0.2-0.5c0.1-0.1,0.1-0.1,0-0.2c-0.1-0.1-0.4-0.2-0.8-0.3c-0.7-0.2-1.9-0.1-1.8-0.7c1.5,0.3,1.6,0.2,1.7-0.1
	c0,0,0-0.1,0-0.1l0.2-0.1c0.1-0.1,0.3-0.2,0.5-0.3c0.4-0.2,0.8-0.3,1.5-0.4l1.2,0.9c9.1,0.6-0.3-1.8,8.2-1.1l-1.6,1.2l3.5-0.3l0.5,1
	c3.3-0.7,4.9-0.5,9.3-0.3c-1.7-0.6-1.4-1.6,2.3-1.6c3.1,0.5-0.5,0.8,4.6,0.7c-0.6,0.5-1.1,1.2-4.3,0.4c0.1,0.3-0.5,0.6-0.4,0.8
	c3.4,0.6,6.9,0.1,8.7,0.1c-0.8,0-1.7-0.1-2.2-0.2l6.3-1.2c1.5,0.3,0.9,0.6,0.2,0.9c1.4-0.1,2.1-0.5,4.3-0.6c0.1,0.7,1,1.4-1.8,1.8
	l6.3-0.8c0.8,0.3,4.4,0.9,3.8,1.1c2.1,0.2,4.2-0.1,6.5-0.5c2.3-0.3,4.8-0.6,7.6-0.4c0.2-0.1,0.6-0.3,1.7-0.4c5.1,0.2,10,1,15.2,0.1
	l4,1.3c2.2-0.1,0.9-0.5-0.1-1c-1-0.4-1.6-0.9,2.1-1.1c5.2-0.4,2.6,1.1,4.6,1.4c2.3-0.6,6.5-2,11.9-0.9C131.4,8.5,130,8.3,128.5,8.4z
	"/>
<path class="st0" d="M262.8,6.9c-0.2-0.1-0.1-0.3,0-0.5C262.2,6.6,262,6.8,262.8,6.9z"/>
<path class="st0" d="M93.7,8.9l-0.2,0C93.4,8.9,93.4,9,93.4,9L93.7,8.9z"/>
<path class="st0" d="M215.3,86c0.9-0.6,1.5-0.8,1.9-1C217.2,84.9,216.7,85,215.3,86z"/>
<path class="st0" d="M125.5,101.3l2.8,2c-1.3-1-1.6-1.5-2.2-2.1C126,101.4,126.4,102,125.5,101.3z"/>
<path class="st0" d="M117.9,88.3c-0.1,0-0.2-0.1-0.3-0.1l-0.2,0.3C117.7,88.8,118.2,88.7,117.9,88.3z"/>
<path class="st0" d="M124.9,97.1c0.3-0.7-1.6-1.9-3.5-3.3c0.1,0.1,0.2,0.2,0.3,0.3C120.5,94.5,122.7,95.8,124.9,97.1z"/>
<path class="st0" d="M120.9,93.5l-0.9-0.7l-0.4-0.3l-0.2-0.2l0,0c-0.1,0.1-0.1,0.1-0.1,0.1c0,0,0,0,0.2,0.2
	C119.8,92.8,120.4,93.1,120.9,93.5z"/>
<path class="st0" d="M142.9,114c-0.8-0.9-1.1,0.3-1.5-0.3C139.8,113.6,148,117.5,142.9,114z"/>
<polygon class="st0" points="124.9,94 125,95.2 126.5,95.5 "/>
<path class="st0" d="M139.2,106.3l-2.8-2.6c-0.1,0.2-0.5-0.1-1-0.4C137.2,104.8,139.1,106.6,139.2,106.3z"/>
<path class="st0" d="M135.4,103.3c-0.9-0.8-1.9-1.5-2.5-1.8C133.4,101.9,134.5,102.8,135.4,103.3z"/>
<polygon class="st0" points="129.2,97 129.9,97.9 132,99.6 "/>
<path class="st0" d="M174.3,124.3c0,0,0.2-0.1,0.6-0.4c0.4-0.2,0.8-0.6,1.2-0.9c0.8-0.7,1.6-1.4,1.6-1.4c0.1-0.5-0.9,0.1-2,1.1
	C175,123.6,173.6,124.3,174.3,124.3z"/>
<path class="st0" d="M162.6,122c0.8,0.6,0.8,0.8,1.2,1.3l0.5-1c0,0-0.4,0-0.8-0.1c-0.2,0-0.4-0.1-0.6-0.1
	C162.7,122,162.6,122,162.6,122z"/>
<path class="st0" d="M172.7,122c0.1-0.2,1.1-1,1.4-1.5c0.2-0.3,0.4-0.5,0.2-0.4c0,0-0.1,0.1-0.2,0.1c-0.1,0-0.2,0.1-0.3,0.2
	c-0.1,0.1-0.2,0.2-0.4,0.3c-0.2,0.1-0.3,0.2-0.6,0.3c-0.1,0.2-0.8,0.7-1.2,1C171.2,122.3,171.2,122.5,172.7,122z"/>
<polygon class="st0" points="222.3,84.4 221.5,85.1 222.8,86.4 "/>
<path class="st0" d="M260.6,48c-4,2.7,0.3,1.2-3.5,3.6c-0.4,0.9,3.1-1.9,2.6-1C261.5,48.5,262.9,47.7,260.6,48z"/>
<path class="st0" d="M259.7,50.5c-0.3,0.3-0.6,0.7-0.9,1C259.4,51,259.6,50.7,259.7,50.5z"/>
<polygon class="st0" points="94.9,75.5 95.1,76.3 95.2,75.5 "/>
<path class="st0" d="M96.7,75.3l-0.6,1l1-0.6C96.9,75.6,96.6,75.5,96.7,75.3z"/>
<path class="st0" d="M193.1,10.2l0.3-0.3c-0.4-0.3-1.1-0.3-2.5-0.4L193.1,10.2z"/>
<polygon class="st0" points="152.6,9.4 153.3,9.4 151.8,8.3 "/>
<path class="st0" d="M119.1,10.7c1.4,0,2.9-0.2,4.3-0.1C120.5,10.8,118.1,9.4,119.1,10.7z"/>
</svg>
