<?xml version="1.0" encoding="utf-8"?>
<!-- Generator: Adobe Illustrator 22.0.1, SVG Export Plug-In . SVG Version: 6.00 Build 0)  -->
<svg version="1.1" id="Layer_1" xmlns="http://www.w3.org/2000/svg" xmlns:xlink="http://www.w3.org/1999/xlink" x="0px" y="0px"
	 viewBox="0 0 322.8 172" style="enable-background:new 0 0 322.8 172;" xml:space="preserve">
<style type="text/css">
	.st0{fill-rule:evenodd;clip-rule:evenodd;fill:#FFFFFF;}
</style>
<path class="st0" d="M0,111.2c1.3-5.9,2.6-11.8,3.9-17.7c8.6,1.2,17.4,0.4,26.6-1.8C38,70.2,48.5,50.5,69,40.5
	c15.6-7.6,26-3.2,22.7,12.3C82.9,81.9,61.3,90.6,41.7,101c-1.7,20.2,5.8,23.2,28.3,0.5c6.2-6.2,12.1-6.5,11.4,2.6
	c9.4-7.2,16.4-16,21-26.3c5-1.5,10.1-2.9,15.1-4.4c-2.8,5.7-6,11.3-8.5,17.2c-4.4,10.5,4.5,13.2,11.1,0.1c3.4-6.7,6.3-14.7,8.5-21.9
	c5.6-2,9.2-3.7,14.9-5.7c-3.4,9.5-6.7,19-10.1,28.5c-3.2,8.9-0.3,16.4,7.3,6.2c5.1-6.8,10.8-14.5,12.4-22.2
	c-3.7-10-1.2-20.7,5.3-22.4c7-1,9.8,4.7,6.3,13.9c4.2,0.4,8.8-1.1,8.9-6.3c0.2-11.3,1.3-19.5,9.3-20c7.6-0.5,8.3,8.6,1.3,20.4
	c9.2-0.1,11.4,2.7,8.3,10.1c-2,5.3-4.1,10.6-6.1,15.9c-2.6,7.5,3.2,7.5,8.8,1.5c1.3-22.2,18.2-35.5,44.6-43.4
	c-1.6,4.4-3.3,8.8-4.9,13.2c-9.7,3.5-17.6,8.8-23.8,15.7c-7,7.7-3.4,20.6,10.8,7c3.4-3.3,4.9-7.8,5.6-12.7c3.9-1.3,7.8-2.6,11.6-4
	c-0.7,4.1-1.3,8.3-2,12.4c-1.6,7.7,6.8,7.2,7.1,0.1c0.5-22.4,7.1-35.7,16.6-50.9c13.3-21.2,28.9-18.2,28.2-3.6
	c-1.9,18.8-8,36.9-25.3,53.1c-4.3,3.1-3.8,8.8,4.2,5c6.7-3.2,14-9.8,20.3-7.6c4.6,2.4,2.3,8,0.5,12.6c-5.1,13.1-10.2,26.2-15.3,39.3
	c-6.9,1.2-13.8,2.4-20.8,3.6c5.8-10.6,11.5-21.3,17.3-31.9c2.6-5.7-0.2-6.2-3.6-4.6c-8.2,4-14.5,3.5-18.1-3.8
	c-9.7,8.5-18.7,14.4-24.1,1.4c-10.6,9-19.5,11.4-26.6,5.8c-7.2,5.9-26.9,16.7-22-2.3c1.4-6.4,2.8-12.8,4.2-19.2
	c1.4-8.2,0.3-9-1.8-6.3c-5.2,6.6-11.2,11.2-18,13.8c-6.6,14.7-16.5,33.9-29.1,33.9c-7.1-0.1-10.1-5.9-11.3-13.8
	c-13.5,13.1-25.7,22.4-28.8,4.1c-3.6,3.9-7.7,7-11.9,9.6c-5.1,17.3-10.2,34.6-15.3,51.9c-6.7,1.7-13.4,3.3-20.1,5
	c5.9-16.4,11.8-32.8,17.7-49.1c-18.3,9.9-33.9,10.8-33-17.6C18.9,108.6,9.5,110.1,0,111.2L0,111.2z M44.5,86.3
	c10.9-4.4,22-11.1,32.2-25.6c7.6-10.8,2.2-14.6-8.5-6.3C57.3,63.1,49.6,74.5,44.5,86.3L44.5,86.3z M257.8,68.2
	c8.1-13.1,17.5-25.7,20.7-40.9c1.9-9.1-1.2-10-6.3-1.8C264.2,38.5,261.2,53.5,257.8,68.2L257.8,68.2z M107.3,54.7
	c-5.4,3.4-7.9,9.1-5.6,12.9c2.3,3.7,8.6,4.1,14,0.7c5.4-3.3,7.9-9.1,5.6-12.9C119,51.7,112.7,51.4,107.3,54.7L107.3,54.7z
	 M245,161.7c0.3-0.9,0.6-2,0.7-3.4c0.1-1.4,0.2-3,0.2-4.9c0-1.9-0.1-3.5-0.2-4.8c-0.1-1.4-0.4-2.5-0.8-3.4c-0.4-0.9-0.9-1.6-1.5-2.1
	c-0.6-0.5-1.5-0.7-2.5-0.7c-1,0-1.8,0.2-2.5,0.7c-0.7,0.5-1.2,1.2-1.5,2.1c-0.4,0.9-0.6,2.1-0.8,3.5c-0.1,1.4-0.2,3-0.2,4.8
	c0,1.9,0.1,3.5,0.2,4.8c0.1,1.3,0.4,2.4,0.7,3.4c0.4,0.9,0.9,1.7,1.5,2.2c0.6,0.5,1.5,0.8,2.5,0.8c1,0,1.8-0.2,2.5-0.7
	C244.1,163.4,244.6,162.6,245,161.7L245,161.7z M249.6,153.4c0-4.7-0.7-8.2-2.1-10.6c-1.4-2.3-3.6-3.5-6.6-3.5c-3,0-5.1,1.1-6.6,3.4
	c-1.4,2.3-2.1,5.8-2.1,10.7c0,4.8,0.7,8.3,2.1,10.6c1.4,2.3,3.6,3.5,6.6,3.5c2.9,0,5.1-1.1,6.5-3.4
	C248.9,161.9,249.6,158.3,249.6,153.4L249.6,153.4z M228.9,158.4c0-1.6-0.2-3-0.7-4c-0.5-1-1.2-1.9-2.1-2.6
	c-0.9-0.7-1.8-1.1-2.8-1.3c-1-0.2-2.1-0.3-3.5-0.3c-0.4,0-0.7,0-1.2,0c-0.4,0-0.9,0.1-1.3,0.1v-7.2h11.4v-3.2h-14.9v14
	c0.6-0.1,1.4-0.3,2.4-0.4c1-0.2,2-0.2,3-0.2c0.9,0,1.8,0.1,2.5,0.3c0.8,0.2,1.4,0.5,1.9,1c0.5,0.4,0.9,0.9,1.1,1.5
	c0.3,0.6,0.4,1.4,0.4,2.4c0,1-0.1,1.8-0.4,2.5c-0.2,0.7-0.6,1.3-1,1.9c-0.5,0.6-1.1,1-1.8,1.3c-0.7,0.3-1.4,0.4-2.1,0.4
	c-0.7,0-1.4-0.1-2-0.2c-0.6-0.1-1.2-0.3-2-0.6c-0.6-0.2-1.2-0.5-1.7-0.7c-0.5-0.3-0.9-0.5-1.2-0.7h-0.3v3.8c0.9,0.5,2,0.8,3.3,1.1
	c1.3,0.3,2.5,0.4,3.8,0.4c1.4,0,2.7-0.2,3.8-0.7c1.1-0.5,2.1-1.1,2.8-1.9c0.8-0.8,1.3-1.8,1.8-2.9
	C228.6,160.9,228.9,159.7,228.9,158.4L228.9,158.4z M191.3,148.7c0,1.6,0.2,3,0.7,4.1c0.5,1.1,1.2,2.1,2.2,2.8
	c0.8,0.6,1.7,1.1,2.5,1.3c0.8,0.2,1.7,0.3,2.8,0.3c1,0,2-0.1,2.9-0.5c0.9-0.3,1.8-0.8,2.8-1.4c-0.2,2.9-0.9,5.2-2.3,6.7
	c-1.3,1.6-3.2,2.3-5.6,2.3c-0.7,0-1.3-0.1-2-0.2c-0.6-0.2-1.1-0.3-1.4-0.5h-0.2v3.5c0.5,0.2,1,0.3,1.5,0.3c0.5,0.1,1.1,0.1,1.5,0.1
	c2.2,0,4-0.4,5.4-1.1c1.5-0.7,2.7-1.8,3.8-3.2c1-1.3,1.7-3,2.2-5c0.5-2,0.8-4.1,0.8-6.4c0-2.5-0.3-4.5-0.8-6.1
	c-0.5-1.6-1.2-2.9-2.2-3.9c-0.7-0.8-1.6-1.4-2.6-1.8c-1-0.4-2.1-0.6-3.4-0.6c-1.1,0-2.2,0.2-3.3,0.7c-1.1,0.5-2,1.1-2.8,1.9
	c-0.8,0.8-1.4,1.8-1.9,3C191.5,146,191.3,147.3,191.3,148.7L191.3,148.7z M205.2,151c0-1.9-0.2-3.3-0.5-4.5
	c-0.3-1.2-0.8-2.1-1.4-2.7c-0.5-0.6-1.1-1-1.6-1.2c-0.5-0.2-1.1-0.3-1.8-0.3c-1.5,0-2.7,0.5-3.6,1.6c-0.9,1.1-1.3,2.6-1.3,4.6
	c0,1.1,0.1,2.1,0.4,2.8c0.3,0.7,0.8,1.4,1.4,1.9c0.5,0.4,1,0.6,1.6,0.7c0.6,0.1,1.2,0.2,1.9,0.2c0.8,0,1.6-0.1,2.5-0.4
	c0.9-0.3,1.7-0.6,2.3-1.1c0-0.2,0-0.4,0-0.7C205.2,151.7,205.2,151.4,205.2,151L205.2,151z M186.2,167v-2.8v-5.7v-18.7h-2.8
	l-6.1,3.3l0.5,2.9l4.9-2.6v15v5.7v2.8H186.2L186.2,167z M157.7,154.5c0-0.9-0.1-1.7-0.3-2.4c-0.2-0.7-0.5-1.2-0.8-1.7
	c-0.4-0.5-0.9-0.9-1.5-1.2c-0.6-0.3-1.4-0.4-2.3-0.4c-0.9,0-1.7,0.1-2.3,0.4c-0.6,0.3-1.2,0.7-1.7,1.2c-0.5,0.5-0.9,1.1-1.2,1.8
	c-0.3,0.7-0.4,1.4-0.5,2.3H157.7L157.7,154.5z M153.7,167.5c0.8,0,1.5,0,2.1-0.1c0.5-0.1,1.1-0.2,1.8-0.4c0.5-0.1,1-0.3,1.6-0.6
	c0.6-0.2,1.1-0.4,1.5-0.6V162h-0.2c-0.3,0.2-0.6,0.5-1.1,0.7c-0.4,0.3-0.9,0.5-1.6,0.8c-0.6,0.3-1.2,0.5-2,0.7
	c-0.7,0.2-1.5,0.3-2.2,0.3c-2.1,0-3.8-0.6-4.9-1.9c-1.2-1.3-1.8-3.1-1.8-5.4h14.1v-1.9c0-1.6-0.2-3-0.6-4.1
	c-0.4-1.1-0.9-2.1-1.7-2.9c-0.7-0.8-1.6-1.4-2.6-1.7c-1-0.4-2.1-0.6-3.3-0.6c-2.8,0-5.1,1-6.8,2.9c-1.7,2-2.6,4.6-2.6,7.9
	c0,3.4,0.9,6,2.7,7.8C148,166.5,150.5,167.5,153.7,167.5L153.7,167.5z M135.8,167.4c0.7,0,1.3,0,1.8-0.1c0.5-0.1,1-0.2,1.6-0.4
	c0.4-0.1,0.9-0.3,1.4-0.5c0.5-0.2,0.9-0.4,1.3-0.6V162h-0.2c-0.8,0.7-1.7,1.3-2.7,1.8c-1,0.5-2.1,0.7-3.2,0.7c-1.8,0-3.3-0.7-4.3-2
	c-1-1.3-1.6-3.2-1.6-5.6c0-2.5,0.5-4.3,1.6-5.7c1.1-1.3,2.5-2,4.3-2c0.6,0,1.2,0.1,1.9,0.3c0.6,0.2,1.2,0.4,1.7,0.6
	c0.5,0.3,1,0.6,1.4,0.8c0.4,0.3,0.7,0.5,0.9,0.7h0.2v-3.8c-0.8-0.4-1.7-0.8-2.8-1.1c-1-0.3-2.1-0.5-3.2-0.5c-1.4,0-2.7,0.2-3.8,0.7
	c-1.2,0.5-2.2,1.2-3,2c-0.8,0.9-1.4,2-1.9,3.3c-0.5,1.3-0.7,2.8-0.7,4.6c0,1.8,0.2,3.4,0.7,4.7c0.5,1.3,1.1,2.4,2,3.3
	c0.8,0.9,1.8,1.5,3,2C133.1,167.2,134.4,167.4,135.8,167.4L135.8,167.4z M122.9,167v-13.2c0-2.5-0.6-4.4-1.7-5.7
	c-1.1-1.3-2.7-2-4.7-2c-1.1,0-2.2,0.2-3.1,0.7c-1,0.5-2,1.2-3,2.1v-2.3h-3.4V167h3.4v-15.2c0.9-0.7,1.7-1.3,2.6-1.8
	c0.9-0.5,1.8-0.7,2.6-0.7c0.8,0,1.5,0.1,2,0.4c0.5,0.2,0.9,0.6,1.2,1.1c0.3,0.5,0.4,1.1,0.5,1.9c0.1,0.8,0.1,1.7,0.1,2.6V167H122.9
	L122.9,167z M102.1,143.2v-3.5h-3.9v3.5H102.1L102.1,143.2z M101.9,167v-20.3h-3.4V167H101.9L101.9,167z M87.2,167.5
	c1.4,0,2.5-0.2,3.5-0.5c0.9-0.3,1.7-0.8,2.5-1.4c0.7-0.6,1.2-1.2,1.5-2c0.3-0.8,0.5-1.6,0.5-2.5c0-1.5-0.4-2.7-1.1-3.6
	c-0.8-0.9-1.9-1.5-3.4-1.9c-0.7-0.2-1.3-0.3-2-0.4c-0.6-0.1-1.2-0.3-1.7-0.4c-1-0.3-1.8-0.6-2.2-1c-0.5-0.4-0.7-1.1-0.7-1.9
	c0-1,0.4-1.7,1.2-2.2c0.8-0.5,1.7-0.7,2.8-0.7c1.1,0,2.2,0.2,3.3,0.6c1.1,0.4,2.1,0.9,2.9,1.6h0.2v-3.7c-0.8-0.4-1.7-0.8-2.9-1.1
	c-1.1-0.3-2.3-0.4-3.4-0.4c-2.3,0-4.1,0.6-5.5,1.7c-1.4,1.2-2.1,2.6-2.1,4.5c0,1.3,0.4,2.5,1.1,3.4c0.7,0.9,1.8,1.6,3.4,2.1
	c0.6,0.2,1.2,0.3,2,0.5c0.7,0.1,1.3,0.3,1.7,0.4c1.1,0.3,1.9,0.6,2.4,1c0.4,0.4,0.7,1,0.7,1.8c0,0.6-0.1,1.1-0.3,1.4
	c-0.2,0.3-0.5,0.6-0.9,0.9c-0.3,0.2-0.8,0.4-1.4,0.5c-0.6,0.1-1.2,0.2-1.7,0.2c-0.8,0-1.5-0.1-2.2-0.3c-0.7-0.2-1.3-0.4-1.9-0.7
	c-0.6-0.3-1.2-0.6-1.6-0.9c-0.4-0.3-0.7-0.5-1-0.8h-0.2v3.8c0.8,0.4,1.8,0.8,2.9,1.2C84.6,167.3,85.9,167.5,87.2,167.5L87.2,167.5z
	 M312.5,8.8c0-0.4-0.1-0.8-0.2-1.1c-0.2-0.3-0.4-0.6-0.7-0.8c-0.3-0.2-0.6-0.3-1-0.4c-0.4-0.1-0.8-0.1-1.4-0.1h-1.9v5.5h1.7
	c0.6,0,1.1,0,1.5-0.1c0.5-0.1,0.8-0.3,1.1-0.6c0.3-0.3,0.5-0.6,0.6-1C312.4,9.7,312.5,9.3,312.5,8.8L312.5,8.8z M316.7,19.3h-2.5
	l-4.6-5.8h-2.2v5.8h-1.9V4.7h3.8c0.8,0,1.5,0.1,2.1,0.1c0.6,0.1,1.1,0.3,1.6,0.6c0.5,0.3,0.9,0.7,1.2,1.3c0.3,0.5,0.5,1.2,0.5,1.9
	c0,1.1-0.3,2-0.8,2.7c-0.5,0.7-1.3,1.3-2.2,1.6L316.7,19.3L316.7,19.3z M310.6,1.8c5.7,0,10.4,4.6,10.4,10.4
	c0,5.7-4.6,10.4-10.4,10.4c-5.7,0-10.4-4.6-10.4-10.4C300.2,6.5,304.8,1.8,310.6,1.8L310.6,1.8z M310.6,0c6.7,0,12.2,5.5,12.2,12.2
	c0,6.7-5.5,12.2-12.2,12.2c-6.7,0-12.2-5.5-12.2-12.2C298.3,5.5,303.8,0,310.6,0z"/>
</svg>
