<?xml version="1.0" encoding="utf-8"?>
<!-- Generator: Adobe Illustrator 22.0.1, SVG Export Plug-In . SVG Version: 6.00 Build 0)  -->
<svg version="1.1" id="Layer_1" xmlns="http://www.w3.org/2000/svg" xmlns:xlink="http://www.w3.org/1999/xlink" x="0px" y="0px"
	 viewBox="0 0 34.7 34.2" style="enable-background:new 0 0 34.7 34.2;" xml:space="preserve">
<style type="text/css">
	.st0{fill:none;stroke:#FFFFFF;}
</style>
<g>
	<path class="st0" d="M27.4,30.6c-0.4,1-1.5,1.6-2.4,2.1c-1.2,0.6-2.3,1-3.6,1c-1.8,0-3.5-0.7-5.1-1.3c-1.2-0.4-2.3-1-3.4-1.6
		c-3.3-2.1-7.3-6.1-9.4-9.4c-0.7-1.1-1.2-2.2-1.6-3.4c-0.6-1.7-1.3-3.3-1.3-5.1c0-1.3,0.4-2.5,1-3.6c0.5-0.9,1.1-2,2.1-2.4
		c0.6-0.3,2-0.6,2.7-0.6c0.1,0,0.3,0,0.4,0.1c0.4,0.1,0.8,1.1,1,1.5C8.4,8.9,9,10,9.6,11.1c0.3,0.5,0.9,1.1,0.9,1.7
		c0,1.2-3.5,2.9-3.5,4c0,0.5,0.5,1.2,0.8,1.7c2,3.6,4.4,6,8,8c0.5,0.3,1.2,0.8,1.7,0.8c1.1,0,2.8-3.5,4-3.5c0.6,0,1.2,0.6,1.7,0.9
		c1.1,0.6,2.2,1.3,3.3,1.9c0.4,0.2,1.3,0.6,1.5,1c0.1,0.1,0.1,0.3,0.1,0.4C28,28.6,27.7,30,27.4,30.6z"/>
</g>
<line class="st0" x1="15.6" y1="14.2" x2="22.6" y2="0.2"/>
<line class="st0" x1="19.6" y1="16.2" x2="29.6" y2="7.2"/>
<line class="st0" x1="22.6" y1="17.2" x2="34.6" y2="16.2"/>
<line class="st0" x1="7.6" y1="12.2" x2="3.6" y2="15.2"/>
<line class="st0" x1="6.6" y1="14.2" x2="3.6" y2="17.2"/>
<line class="st0" x1="6.6" y1="20.2" x2="4.6" y2="22.2"/>
<line class="st0" x1="8.6" y1="23.2" x2="7.6" y2="24.2"/>
<line class="st0" x1="12.6" y1="25.2" x2="9.6" y2="27.2"/>
<line class="st0" x1="14.6" y1="27.2" x2="14.6" y2="30.2"/>
<line class="st0" x1="17.6" y1="29.2" x2="19.6" y2="32.2"/>
</svg>
