<?xml version="1.0" encoding="UTF-8"?>
<svg id="Layer_2" xmlns="http://www.w3.org/2000/svg" viewBox="0 0 312.53 312.53">

    <g id="Capa_1">
        <path class="cls-1"
            d="M309.54,151.97l-47.82-17.64c-38.72-14.28-69.24-44.8-83.52-83.51L160.56,2.99c-.66-1.8-2.38-2.99-4.29-2.99s-3.63,1.19-4.29,2.99l-17.64,47.82c-14.28,38.72-44.8,69.24-83.52,83.52L2.99,151.97c-1.8.66-2.99,2.38-2.99,4.29s1.19,3.63,2.99,4.29l47.83,17.64c38.72,14.28,69.23,44.8,83.51,83.51l17.64,47.83c.66,1.8,2.38,2.99,4.29,2.99s3.63-1.19,4.29-2.99l17.64-47.83c14.28-38.72,44.8-69.24,83.51-83.51l47.83-17.64c1.8-.66,2.99-2.38,2.99-4.29,0-1.92-1.2-3.63-2.99-4.29Z" />
    </g>
</svg>