<?xml version="1.0" standalone="no"?>
<!DOCTYPE svg PUBLIC "-//W3C//DTD SVG 20010904//EN"
 "http://www.w3.org/TR/2001/REC-SVG-20010904/DTD/svg10.dtd">
<svg version="1.0" xmlns="http://www.w3.org/2000/svg"
 width="2000.000000pt" height="2672.000000pt" viewBox="0 0 2000.000000 2672.000000"
 preserveAspectRatio="xMidYMid meet">
<metadata>
Created by potrace 1.16, written by Peter Selinger 2001-2019
</metadata>
<g transform="translate(0.000000,2672.000000) scale(0.100000,-0.100000)"
fill="#000000" stroke="none">
<path d="M18725 26235 c-180 -64 -255 -89 -420 -140 -82 -25 -217 -68 -300
-95 -161 -52 -333 -103 -430 -126 -33 -8 -114 -32 -180 -54 -133 -42 -256 -78
-535 -155 -47 -13 -116 -33 -155 -44 -205 -58 -347 -95 -410 -107 -123 -23
-266 -61 -400 -107 -117 -41 -408 -117 -635 -168 -47 -10 -123 -21 -170 -25
-58 -4 -102 -13 -138 -30 -121 -55 -172 -73 -253 -89 -46 -10 -131 -30 -189
-46 -202 -55 -385 -89 -482 -89 -72 0 -103 -5 -138 -21 -91 -42 -197 -79 -265
-93 -38 -8 -140 -31 -225 -51 -175 -41 -252 -55 -460 -85 -80 -11 -190 -34
-245 -51 -55 -16 -136 -36 -180 -44 -44 -7 -116 -20 -160 -29 -44 -8 -138 -25
-210 -37 -71 -11 -179 -29 -240 -39 -243 -41 -384 -63 -680 -105 -484 -69
-516 -74 -580 -80 -33 -4 -98 -13 -145 -20 -47 -8 -114 -16 -150 -20 -68 -6
-324 -36 -520 -60 -63 -7 -173 -19 -245 -25 -71 -6 -168 -15 -215 -21 -47 -5
-151 -14 -231 -19 -81 -6 -173 -15 -205 -20 -33 -6 -115 -10 -184 -10 -69 -1
-174 -5 -235 -10 -334 -29 -848 -57 -1190 -66 -284 -8 -1335 -9 -1635 -2 -483
10 -1335 47 -1570 68 -454 39 -697 61 -710 65 -8 2 -76 9 -150 15 -74 6 -196
20 -270 30 -74 11 -235 31 -357 45 -352 40 -489 61 -632 99 -99 26 -139 33
-152 25 -24 -12 -25 -55 -1 -64 9 -4 87 -11 172 -15 97 -5 236 -21 370 -43
118 -20 247 -40 285 -46 222 -31 303 -42 333 -47 25 -4 32 -9 28 -22 -3 -9
-12 -75 -20 -147 -8 -71 -21 -172 -28 -222 l-12 -93 -71 0 c-116 0 -176 -28
-144 -66 9 -11 7 -14 -8 -14 -47 0 -187 -45 -282 -92 -91 -44 -116 -62 -191
-137 -96 -97 -133 -161 -156 -274 -39 -184 45 -379 220 -511 54 -41 177 -106
239 -126 35 -11 37 -14 23 -28 -45 -51 60 -86 260 -86 147 -1 174 6 174 44 0
13 18 20 85 34 309 60 540 241 601 470 71 267 -121 550 -451 662 -56 19 -84
33 -80 41 8 23 -37 52 -106 68 -37 8 -75 15 -83 15 -9 0 -16 2 -16 5 0 17 33
228 41 260 27 112 63 205 78 205 9 0 63 -7 121 -15 58 -9 152 -20 210 -25 58
-5 191 -18 295 -29 105 -10 237 -22 295 -25 58 -4 157 -11 220 -16 184 -15
581 -39 755 -45 265 -8 790 -25 945 -29 80 -3 298 -5 486 -5 l340 -1 17 -137
c10 -76 17 -166 17 -199 l0 -61 -52 -7 c-29 -4 -70 -12 -91 -18 -45 -14 -72
-45 -56 -65 13 -14 12 -15 -66 -33 -184 -43 -372 -167 -459 -302 -135 -214
-104 -444 88 -633 120 -119 260 -186 466 -225 52 -10 88 -19 79 -19 -9 -1 -24
-10 -34 -21 -43 -47 50 -75 224 -67 149 7 211 27 211 68 0 13 -13 22 -48 33
-26 8 -39 15 -30 15 43 2 210 65 278 105 447 263 410 768 -74 991 -39 18 -100
41 -136 50 -96 24 -93 22 -70 45 41 41 -5 69 -133 79 l-82 6 0 165 c0 91 2
180 5 198 4 29 7 32 40 32 77 1 961 30 1045 35 50 3 230 12 400 20 171 9 373
22 450 30 77 7 187 17 245 20 58 3 148 10 200 15 52 5 156 14 230 20 74 5 194
17 265 25 72 8 228 24 349 35 120 12 230 23 245 26 l27 6 22 -124 c32 -176 50
-349 37 -354 -157 -53 -217 -101 -149 -118 24 -6 20 -10 -47 -42 -160 -77
-308 -204 -376 -325 -126 -220 -96 -463 75 -620 130 -119 326 -188 537 -189
46 -1 77 -6 89 -15 29 -22 102 -18 221 10 149 35 214 71 201 112 -5 14 7 26
48 51 368 219 470 630 219 881 -124 124 -331 201 -538 201 l-66 0 28 25 c27
24 28 25 9 40 -23 17 -90 19 -166 5 -29 -6 -55 -8 -58 -6 -8 8 -31 259 -34
369 -3 90 -1 107 12 107 88 2 561 63 940 120 74 11 183 27 242 35 59 8 174 26
255 39 81 14 209 35 283 46 74 12 158 27 185 35 28 7 77 16 110 19 33 4 89 13
125 21 36 8 128 21 205 29 94 10 181 26 265 50 69 20 172 45 230 57 58 12 179
37 270 56 91 19 192 39 225 44 129 20 264 39 273 39 12 0 49 -110 57 -171 4
-24 13 -61 21 -81 18 -50 44 -175 44 -216 0 -18 5 -43 12 -55 18 -34 118 -451
110 -458 -4 -4 -30 -14 -59 -23 -103 -34 -150 -84 -99 -107 24 -11 23 -13 -51
-61 -144 -94 -263 -233 -313 -365 -24 -63 -37 -180 -26 -236 6 -31 14 -39 51
-56 58 -26 76 -60 68 -134 -6 -54 -4 -58 28 -88 130 -122 343 -194 555 -187
101 3 101 3 87 -18 -11 -18 -11 -23 0 -33 25 -20 101 -24 153 -8 27 9 82 23
121 31 115 23 180 71 139 102 -11 8 -34 14 -50 14 -27 0 -22 5 44 41 105 57
158 98 238 183 127 137 189 310 163 457 -26 143 -117 273 -247 352 -125 75
-251 108 -421 111 -84 1 -113 4 -113 14 0 23 -52 34 -130 28 -41 -3 -84 -8
-95 -12 -20 -5 -24 9 -73 218 -29 123 -66 279 -82 348 -17 69 -30 136 -30 150
0 14 -7 46 -14 72 -8 25 -18 82 -22 127 l-7 81 39 16 c50 21 172 54 349 93 77
17 205 47 285 66 80 19 180 39 222 45 43 6 117 24 165 39 120 39 188 58 264
75 35 7 132 33 214 56 210 59 335 88 435 99 47 6 112 21 145 34 148 59 211 80
380 128 99 28 212 59 250 69 39 9 118 32 177 49 58 17 146 42 195 55 48 14
142 40 208 59 66 19 135 38 154 42 l33 7 -7 -63 c-4 -35 -17 -127 -30 -204
-35 -207 -92 -639 -102 -777 l-5 -68 -77 2 c-42 1 -86 -2 -98 -6 -24 -8 -30
-34 -14 -52 6 -5 -32 -9 -102 -10 -496 -5 -797 -383 -607 -763 72 -142 254
-306 412 -370 l58 -23 -23 -18 -22 -18 20 -22 c28 -31 75 -50 180 -71 90 -18
199 -24 229 -13 23 9 20 40 -6 58 -21 15 -19 16 44 16 36 0 99 6 140 14 278
54 472 225 510 452 39 234 -131 498 -414 643 -65 34 -74 41 -51 41 38 0 68 22
60 44 -9 22 -97 63 -170 78 -58 12 -59 13 -53 42 4 17 13 94 22 171 15 139 45
382 65 525 5 41 16 95 24 120 7 25 18 68 23 95 13 68 63 206 76 210 6 2 84 26
172 54 89 28 202 60 250 71 49 10 116 29 149 40 59 20 576 275 618 305 31 21
17 18 -118 -30z"/>
<path d="M12333 22790 c-175 -25 -354 -93 -499 -190 -153 -103 -325 -304 -395
-463 l-23 -53 -181 -12 c-99 -7 -221 -18 -272 -24 -88 -11 -91 -12 -80 -32 17
-29 29 -41 50 -49 9 -3 17 -14 17 -22 0 -9 5 -13 10 -10 6 3 10 -1 10 -9 0 -9
4 -16 8 -16 5 0 18 -9 31 -21 15 -15 19 -24 12 -33 -6 -7 -8 -21 -5 -32 3 -11
-5 -30 -20 -48 -14 -16 -23 -33 -19 -39 3 -5 2 -7 -3 -4 -5 3 -25 -17 -44 -43
-19 -27 -43 -52 -54 -56 -15 -5 -16 -8 -5 -15 11 -7 10 -9 -4 -9 -10 0 -15 -4
-12 -10 3 -5 -3 -10 -15 -10 -12 0 -19 -3 -17 -7 5 -8 -19 -36 -27 -31 -2 2
-18 -9 -37 -24 -18 -16 -39 -28 -47 -28 -7 0 -10 -4 -7 -10 3 -5 -7 -12 -22
-16 -15 -4 -34 -11 -40 -17 -7 -5 -13 -6 -13 -2 0 5 -10 0 -22 -11 -12 -10
-18 -13 -14 -6 4 6 2 12 -3 12 -6 0 -11 -4 -11 -9 0 -5 -13 -14 -30 -21 -16
-7 -30 -17 -30 -22 0 -5 -4 -7 -10 -3 -9 6 -15 3 -76 -28 -16 -9 -42 -18 -56
-21 -15 -2 -38 -12 -52 -21 -14 -10 -26 -14 -26 -10 0 4 -6 2 -14 -4 -7 -6
-29 -13 -47 -14 -19 -2 -41 -7 -48 -12 -29 -17 -312 -25 -348 -10 -10 5 -27
10 -38 11 -75 13 -200 64 -280 116 -47 30 -123 102 -146 138 -19 30 -30 80
-18 80 5 0 9 6 9 14 0 27 -41 23 -130 -13 -80 -32 -90 -39 -90 -61 0 -18 3
-21 9 -11 7 11 14 10 40 -8 17 -12 31 -20 31 -16 0 3 9 1 20 -5 11 -6 17 -16
14 -22 -4 -7 -2 -8 5 -4 6 4 22 1 34 -7 32 -21 97 -86 97 -97 0 -5 9 -14 20
-20 11 -6 18 -15 15 -21 -4 -5 -3 -9 2 -9 4 0 15 -15 22 -32 8 -18 22 -38 30
-45 14 -10 14 -12 -1 -18 -10 -4 -18 -16 -18 -26 0 -10 -4 -19 -9 -19 -8 0
-21 -28 -25 -53 0 -5 -9 -14 -18 -21 -10 -7 -18 -18 -18 -24 0 -6 -9 -14 -20
-17 -11 -3 -20 -13 -20 -21 0 -8 -11 -19 -25 -24 -13 -5 -48 -25 -76 -45 -45
-30 -58 -36 -84 -35 -3 0 -19 -7 -35 -15 -17 -9 -30 -12 -30 -8 0 5 -4 3 -8
-3 -11 -17 -187 -41 -282 -38 -84 3 -212 3 -245 1 -16 -2 -39 1 -50 6 -15 6
-14 4 4 -11 14 -11 33 -19 42 -17 10 2 36 -5 58 -16 22 -10 46 -19 53 -19 8 0
22 -6 33 -13 11 -7 40 -19 65 -27 25 -7 49 -17 55 -22 5 -4 19 -8 32 -8 13 0
23 -4 23 -10 0 -5 4 -10 10 -10 18 0 110 -44 110 -52 0 -4 11 -8 23 -8 13 0
32 -9 42 -20 10 -11 22 -17 26 -14 5 3 9 0 9 -6 0 -6 11 -15 25 -20 14 -6 37
-15 53 -22 15 -6 30 -11 35 -10 4 1 7 -5 7 -15 0 -9 3 -13 6 -10 4 3 16 1 28
-5 11 -7 27 -13 34 -14 8 -1 23 -11 35 -21 14 -13 18 -14 13 -3 -4 8 2 3 14
-12 12 -16 30 -28 40 -28 11 0 36 -11 56 -25 20 -14 43 -25 50 -25 7 0 14 -3
16 -7 2 -5 21 -17 43 -28 22 -11 45 -27 52 -35 10 -12 12 -13 13 -1 0 16 15 5
15 -11 0 -6 8 -12 17 -14 9 -1 32 -14 51 -28 19 -14 42 -26 51 -26 9 0 14 -4
11 -10 -3 -5 3 -10 15 -10 12 0 18 -4 15 -10 -4 -6 7 -15 24 -21 17 -6 31 -15
31 -21 0 -5 -4 -6 -10 -3 -5 3 -10 1 -10 -5 0 -7 8 -9 19 -5 11 3 26 -1 35
-10 9 -10 75 -28 158 -45 424 -86 858 -255 1143 -445 22 -15 27 -16 23 -5 -4
8 -23 51 -42 95 -125 286 -151 662 -66 960 11 39 20 73 20 76 0 3 -22 20 -49
36 -97 61 -136 186 -91 291 24 56 74 106 126 128 50 21 147 18 196 -6 23 -11
42 -20 43 -20 0 0 29 31 62 69 l62 68 -21 42 c-23 46 -27 137 -8 186 60 156
267 203 385 88 l37 -36 49 23 c46 22 49 26 49 62 0 114 112 218 235 218 51 0
124 -27 157 -57 28 -25 64 0 115 81 37 58 101 137 79 99 -4 -7 -2 -13 4 -13 7
0 10 -6 7 -14 -3 -8 1 -20 8 -26 8 -7 12 -16 9 -21 -3 -5 -2 -9 3 -8 22 4 31
-3 31 -26 0 -14 5 -38 12 -55 7 -16 10 -37 6 -46 -3 -8 -1 -24 4 -34 7 -13 7
-21 -1 -26 -8 -4 -7 -9 2 -15 12 -7 11 -9 0 -9 -11 0 -9 -4 5 -15 13 -11 14
-14 4 -13 -8 2 -14 -2 -13 -9 2 -7 -1 -23 -6 -36 -6 -16 -6 -28 2 -36 8 -8 6
-11 -9 -11 -18 -1 -18 -1 -1 -15 18 -13 18 -14 -2 -32 -12 -9 -21 -23 -21 -30
0 -7 -4 -13 -9 -13 -5 0 -12 -7 -15 -16 -5 -14 -4 -15 9 -4 13 11 13 9 0 -24
-9 -20 -13 -41 -10 -46 3 -5 -3 -13 -12 -19 -10 -6 -13 -11 -7 -11 6 0 11 -7
11 -15 0 -8 -4 -12 -8 -9 -13 7 -17 -20 -6 -41 9 -17 8 -18 -5 -7 -13 10 -17
10 -22 -5 -4 -10 -2 -19 3 -21 6 -2 11 -8 11 -13 0 -6 -4 -8 -9 -4 -23 13 -18
-16 7 -51 79 -109 237 -209 369 -234 97 -19 254 -9 341 22 136 49 259 148 334
269 l33 54 7 -54 c4 -32 15 -66 29 -85 141 -188 239 -387 279 -568 13 -56 14
-58 45 -58 45 0 118 -24 155 -50 17 -12 44 -45 60 -73 24 -42 30 -64 30 -115
0 -71 -14 -112 -56 -161 -34 -41 -116 -81 -165 -81 l-36 0 -17 -87 c-22 -112
-75 -271 -120 -362 -20 -39 -36 -72 -36 -75 0 -2 42 13 94 34 289 118 604 168
990 157 222 -7 328 -18 412 -43 49 -15 54 -15 99 5 26 12 53 21 60 21 7 0 16
8 19 17 6 15 8 15 16 3 7 -10 10 -11 10 -2 0 6 9 12 20 12 11 0 20 4 20 10 0
5 3 9 8 8 11 -2 64 13 100 29 18 8 40 16 50 18 9 2 35 10 57 19 22 8 49 16 60
18 11 2 22 6 25 10 3 4 17 9 30 10 14 2 28 8 32 13 5 6 8 5 8 -3 0 -9 7 -8 25
4 14 9 31 14 39 11 8 -3 16 -2 18 3 2 6 17 11 33 12 17 1 35 5 41 10 7 5 16 8
20 6 8 -2 86 10 124 19 48 11 411 17 463 8 28 -6 37 -4 37 7 0 14 -136 203
-191 266 -32 36 -43 38 -88 16 -17 -9 -37 -17 -44 -18 -7 -2 -19 -6 -27 -9
-42 -17 -115 -38 -136 -39 -13 -1 -24 -5 -24 -8 0 -3 -10 -6 -22 -6 -41 -1
-73 -9 -80 -19 -5 -6 -8 -5 -8 3 0 10 -5 10 -20 2 -26 -14 -80 -20 -80 -8 0 5
-5 6 -10 3 -6 -4 -7 -12 -3 -18 5 -9 3 -9 -8 0 -8 6 -64 13 -126 16 -61 3
-119 10 -129 15 -9 5 -25 7 -35 5 -11 -3 -19 -1 -19 5 0 6 -18 9 -45 8 -25 -2
-45 1 -45 6 0 5 -10 8 -22 7 -13 -2 -29 0 -36 5 -7 4 -16 6 -19 3 -3 -3 -17
-1 -32 5 -14 5 -37 12 -51 15 -14 2 -26 8 -28 14 -2 5 -11 5 -22 -1 -13 -7
-19 -6 -24 5 -3 8 -16 15 -28 15 -36 0 -68 11 -62 21 4 7 -25 12 -52 8 -4 0
-10 3 -13 8 -7 9 -94 53 -107 53 -5 1 -25 14 -44 30 -19 17 -40 30 -48 30 -7
0 -10 5 -7 10 3 6 3 10 -2 10 -13 0 -92 74 -95 89 -2 8 -21 32 -42 54 -38 39
-39 41 -20 56 21 16 24 23 24 43 0 6 3 8 7 5 3 -4 11 3 18 16 6 12 17 21 24
19 7 -1 10 2 6 7 -3 6 4 15 16 22 12 6 32 22 44 35 12 13 27 24 33 24 6 0 17
6 24 13 16 15 125 68 136 65 4 -1 16 3 27 9 11 6 34 12 50 14 17 2 36 7 42 12
7 5 20 7 28 3 8 -3 15 -2 15 2 0 4 12 7 28 7 15 -1 37 2 50 7 13 5 22 4 22 -3
0 -6 5 -7 11 -3 10 6 82 6 224 0 22 -1 46 -5 53 -9 7 -5 12 -3 12 5 0 10 2 11
8 0 9 -13 42 -7 42 8 0 7 -162 116 -285 192 -46 29 -73 28 -97 -3 -10 -11 -18
-17 -18 -13 0 5 -7 1 -14 -8 -18 -24 -149 -84 -221 -102 -33 -8 -89 -18 -125
-21 -36 -4 -68 -9 -71 -11 -3 -2 -20 1 -38 6 -17 5 -31 5 -31 1 0 -4 -24 -4
-52 0 -52 8 -93 16 -93 19 0 0 -22 3 -50 6 -44 5 -63 7 -98 13 -5 0 -6 5 -2
10 3 6 -3 8 -15 6 -11 -2 -22 0 -25 6 -4 5 -14 5 -27 -2 -13 -7 -18 -7 -14 -1
4 7 -11 13 -39 17 -25 4 -45 11 -45 15 0 5 -8 7 -17 5 -10 -1 -26 4 -35 12
-11 10 -26 13 -43 9 -14 -4 -25 -2 -25 4 0 5 -12 13 -27 16 -16 4 -33 11 -39
16 -7 5 -16 8 -20 6 -5 -1 -19 3 -31 10 -13 7 -23 10 -23 7 0 -3 -10 3 -22 15
-12 11 -25 20 -30 20 -19 0 -24 2 -39 16 -9 8 -18 11 -22 8 -3 -3 -12 -1 -19
6 -7 6 -28 20 -46 31 -18 11 -31 23 -28 28 3 5 -5 12 -19 15 -14 4 -25 11 -25
16 0 6 -4 10 -10 10 -5 0 -28 18 -50 40 -23 23 -46 38 -52 34 -7 -4 -8 -3 -4
4 4 7 2 12 -5 12 -7 0 -9 3 -6 6 4 4 -1 14 -11 23 -19 18 -27 41 -13 41 4 0
21 12 36 28 16 15 25 20 21 12 -5 -8 5 -1 22 15 38 39 65 59 81 63 7 1 19 9
26 16 7 7 27 19 44 26 17 7 31 17 31 22 0 6 9 8 20 5 11 -3 20 -1 20 4 0 5 10
9 22 9 22 0 22 0 3 19 -19 17 -130 49 -302 87 -48 10 -83 23 -83 30 0 40 -126
244 -150 244 -20 0 -98 -279 -125 -443 -10 -60 -25 -115 -32 -123 -8 -7 -46
-23 -85 -35 -103 -31 -230 -24 -322 19 -157 73 -266 234 -266 392 0 52 5 64
88 201 49 80 113 174 143 209 30 35 85 99 123 143 53 60 67 83 60 94 -28 45
-248 137 -399 168 -96 19 -286 27 -372 15z m-1518 -1894 c54 -25 100 -71 122
-123 17 -43 17 -142 -2 -186 -80 -193 -348 -208 -439 -25 -51 103 -28 220 60
297 74 65 170 79 259 37z m-573 -222 c187 -63 218 -340 50 -440 -62 -38 -116
-48 -177 -34 -198 44 -261 302 -106 431 69 59 147 73 233 43z m4301 -362 c75
-40 119 -114 119 -201 2 -180 -175 -294 -337 -217 -27 13 -60 34 -72 47 -57
62 -80 180 -49 253 18 42 71 103 108 122 73 38 155 36 231 -4z"/>
<path d="M352 22371 c54 -52 140 -120 195 -154 54 -35 125 -80 158 -101 234
-148 470 -290 875 -526 69 -40 150 -87 180 -105 30 -18 89 -51 130 -74 41 -23
113 -66 160 -96 47 -30 132 -78 190 -105 58 -28 159 -81 226 -118 115 -63 121
-68 122 -99 2 -41 26 -127 63 -218 27 -68 31 -96 59 -370 5 -49 10 -138 10
-197 l0 -107 -42 -11 c-111 -28 -152 -52 -146 -86 2 -12 -11 -21 -50 -35 -335
-115 -547 -392 -502 -658 40 -240 280 -440 578 -482 102 -15 108 -17 94 -31
-7 -7 -12 -20 -12 -30 0 -58 318 -38 417 28 25 16 31 49 11 57 -7 3 3 11 22
18 19 7 78 34 131 61 110 56 224 154 283 241 196 297 65 638 -303 787 -73 30
-198 60 -248 60 l-27 0 22 16 c62 43 -7 80 -135 72 l-72 -5 1 236 c1 216 -1
247 -24 366 -36 179 -41 227 -26 248 12 16 17 15 72 -7 33 -13 63 -31 68 -40
5 -9 37 -30 71 -47 34 -17 88 -51 119 -75 61 -48 116 -75 241 -119 44 -15 170
-73 280 -127 111 -55 225 -109 252 -120 28 -10 100 -43 160 -73 61 -30 182
-83 270 -119 88 -35 191 -79 228 -96 38 -17 112 -47 164 -66 53 -19 121 -45
152 -58 31 -14 112 -48 181 -76 69 -29 148 -63 176 -76 75 -34 181 -59 197
-46 7 6 41 12 75 13 34 1 62 5 62 9 0 4 -19 12 -43 18 -24 6 -77 27 -118 45
-41 19 -172 67 -290 107 -117 39 -281 99 -364 134 -82 34 -177 73 -210 86 -33
13 -109 48 -170 77 -129 64 -265 123 -281 123 -6 0 -60 24 -120 53 -60 29
-125 59 -144 67 -76 29 -358 168 -413 203 -71 46 -199 110 -252 127 -51 17
-204 98 -230 123 -33 31 -188 118 -201 113 -26 -10 -287 142 -387 225 -34 28
-69 49 -82 49 -13 0 -57 15 -97 33 -159 73 -826 454 -1188 679 -74 46 -169
104 -210 128 -79 45 -142 84 -275 167 -131 82 -135 80 -33 -16z"/>
<path d="M12038 20788 c9 -11 10 -18 2 -23 -5 -3 -10 -2 -10 3 0 5 -11 10 -25
10 -13 0 -22 -4 -19 -9 3 -5 -2 -6 -10 -3 -9 3 -13 11 -9 17 3 6 -4 3 -17 -6
-18 -12 -27 -14 -37 -5 -7 6 -13 7 -13 3 0 -4 8 -14 18 -22 15 -13 15 -13 -8
-7 -14 4 -28 12 -32 18 -5 7 -8 6 -8 -3 0 -8 8 -20 18 -27 15 -13 14 -13 -10
-4 -22 7 -26 6 -21 -5 3 -10 -1 -15 -12 -15 -9 0 -13 5 -9 11 3 6 -5 3 -20 -6
-14 -10 -26 -22 -26 -28 0 -5 8 -3 18 6 16 14 17 14 19 -10 0 -15 -2 -21 -6
-14 -6 9 -16 8 -42 -7 -40 -22 -40 -36 -8 -147 24 -81 75 -185 129 -265 45
-66 172 -190 194 -190 8 0 31 9 50 19 19 11 43 21 53 23 10 2 20 6 23 9 3 4
16 10 30 14 21 7 23 6 13 -7 -10 -12 -10 -15 2 -15 8 0 13 3 10 5 -3 3 1 12 8
20 8 11 8 14 0 9 -6 -4 -15 -2 -19 5 -4 7 -3 10 1 5 5 -4 19 0 32 8 21 14 23
14 23 -2 0 -14 5 -11 18 10 9 15 20 27 25 27 4 0 5 5 1 11 -4 8 0 8 15 0 18
-10 21 -9 21 7 0 11 8 26 17 33 9 8 14 9 10 3 -4 -7 0 -15 8 -18 9 -3 18 1 21
8 3 8 14 12 26 8 17 -4 20 -2 15 11 -4 12 0 15 21 14 15 -1 29 -5 32 -9 3 -4
12 -3 20 2 12 8 12 10 -3 10 -23 0 -17 22 7 26 20 3 35 14 18 14 -11 0 -8 38
4 49 4 3 4 -2 1 -11 -5 -14 -1 -18 15 -18 15 0 18 -3 10 -13 -8 -10 -6 -13 11
-14 12 -1 17 1 12 5 -10 6 -11 20 -5 40 1 4 2 10 2 13 -1 3 5 6 13 6 8 0 12
-4 9 -9 -10 -15 14 -8 27 9 12 14 12 16 0 8 -10 -5 -12 -4 -7 4 4 6 11 9 16 6
5 -3 12 0 16 6 3 6 0 15 -7 20 -11 7 -10 9 4 9 9 0 17 -4 17 -10 0 -5 5 -10
11 -10 6 0 8 7 5 16 -4 10 1 25 10 35 10 11 13 19 8 20 -48 4 -150 31 -224 60
-79 30 -202 110 -279 182 -39 36 -70 50 -55 25 6 -9 3 -9 -9 0 -9 8 -21 11
-27 7 -5 -3 -10 1 -10 9 0 21 -9 20 -27 -1 -8 -10 -12 -13 -9 -7 8 17 -19 25
-34 11 -10 -9 -12 -8 -7 6 5 12 1 17 -11 17 -10 0 -24 6 -32 13 -12 10 -12 9
-2 -5z"/>
<path d="M7692 20647 c-58 -58 -104 -109 -100 -112 3 -4 26 -1 49 6 48 14 367
18 433 5 23 -4 37 -4 35 2 -2 5 -44 40 -94 78 -49 37 -91 72 -93 76 -2 4 -9 8
-15 8 -6 0 -18 7 -27 15 -9 8 -31 18 -48 21 -31 6 -39 1 -140 -99z"/>
<path d="M10749 19313 c-1 -4 -1 -11 0 -15 0 -5 -4 -8 -10 -8 -8 0 -8 -5 1
-15 7 -8 19 -15 27 -15 8 0 13 -6 10 -12 -2 -7 5 -21 16 -30 11 -10 17 -24 13
-33 -3 -9 -2 -14 2 -11 4 3 14 -4 21 -16 10 -16 10 -19 -1 -12 -10 6 -10 4 1
-9 7 -9 18 -14 24 -10 6 4 7 1 3 -6 -5 -8 0 -14 13 -18 12 -3 21 -10 21 -15 0
-5 -4 -6 -10 -3 -6 3 -7 -1 -4 -9 3 -9 10 -13 15 -10 6 3 8 -6 5 -20 -3 -20
-1 -23 12 -19 12 5 14 2 9 -11 -4 -10 -3 -15 3 -11 9 6 15 -25 10 -50 -1 -5 1
-7 5 -3 4 4 13 2 19 -5 18 -18 26 -45 15 -49 -5 -2 0 -14 13 -28 13 -13 21
-33 20 -43 -2 -11 1 -17 7 -13 6 4 8 -1 6 -13 -2 -11 3 -22 11 -25 9 -3 12
-10 9 -16 -10 -16 4 -50 18 -44 8 3 13 -6 15 -21 1 -15 -2 -24 -8 -20 -6 3 -7
-1 -4 -10 4 -10 10 -12 18 -6 7 6 11 3 12 -12 3 -53 9 -77 20 -81 7 -3 11 -16
10 -30 -2 -14 1 -23 5 -20 5 3 9 -2 9 -11 0 -10 -5 -14 -12 -10 -7 4 -2 -3 11
-15 21 -18 23 -25 14 -39 -10 -15 -9 -18 5 -17 12 1 17 -7 17 -24 0 -14 4 -31
9 -39 6 -10 6 -12 -2 -7 -7 4 -12 2 -12 -3 0 -6 5 -11 11 -11 5 0 8 -4 4 -9
-3 -5 -1 -12 3 -15 5 -3 8 -18 6 -33 -1 -15 1 -32 5 -38 5 -5 7 -20 6 -32 -1
-12 2 -20 7 -17 11 7 10 -14 -3 -38 -6 -11 -7 -18 -1 -14 5 3 10 -4 10 -17 1
-12 3 -31 5 -42 3 -11 -1 -26 -7 -34 -8 -11 -8 -13 2 -7 7 4 12 2 13 -6 0 -7
2 -31 4 -53 2 -22 6 -74 9 -115 3 -41 9 -102 12 -135 3 -33 7 -94 9 -135 2
-41 4 -77 5 -80 1 -3 2 -56 2 -117 0 -62 3 -113 7 -113 8 0 79 160 126 285 35
94 91 311 104 410 16 113 14 325 -3 425 -48 268 -197 510 -436 705 -101 82
-309 215 -311 198z"/>
<path d="M14405 19250 c-504 -132 -834 -420 -979 -851 -78 -232 -103 -569 -66
-874 5 -38 8 -71 7 -72 -2 -1 -18 13 -37 30 -53 50 -82 67 -111 67 -27 0 -36
-25 -12 -34 11 -5 11 -9 1 -25 -7 -11 -16 -17 -20 -15 -5 3 -7 2 -6 -3 2 -4
-3 -22 -11 -40 -9 -22 -18 -30 -29 -26 -9 4 -13 2 -9 -4 3 -5 -5 -20 -19 -32
l-25 -22 22 -37 c12 -20 28 -44 35 -52 17 -22 81 -150 98 -198 18 -51 4 -78
-37 -70 -15 3 -27 1 -27 -3 0 -5 -7 -5 -17 -2 -11 4 -14 3 -9 -5 4 -7 3 -12
-3 -12 -5 0 -13 5 -16 10 -5 8 -12 7 -23 -2 -13 -11 -15 -11 -8 2 4 8 0 6 -8
-4 -14 -17 -16 -18 -16 -3 0 9 -4 17 -10 17 -5 0 -10 -5 -10 -11 0 -8 -5 -8
-15 1 -12 10 -15 10 -15 -4 0 -9 -5 -16 -11 -16 -5 0 -8 4 -5 8 7 12 -118 10
-127 -2 -5 -7 -7 -2 -4 10 4 20 2 21 -23 14 -15 -4 -35 -3 -46 3 -10 6 -34 10
-51 9 -21 -2 -33 2 -33 10 0 9 -3 8 -10 -2 -8 -12 -10 -12 -10 -1 0 11 -3 11
-17 0 -11 -9 -14 -10 -9 -2 5 9 2 11 -9 7 -8 -4 -18 -18 -21 -33 -42 -190
-153 -338 -306 -405 -281 -124 -605 33 -679 330 -7 27 -19 60 -27 74 l-14 25
7 -29 c6 -27 5 -28 -11 -15 -10 8 -15 9 -11 3 3 -6 -4 -20 -17 -31 -18 -16
-27 -18 -41 -10 -15 8 -17 7 -12 -6 5 -14 2 -15 -21 -6 l-26 10 19 -22 20 -22
-26 17 c-23 15 -28 15 -39 1 -7 -8 -16 -12 -21 -9 -5 3 -9 0 -9 -7 0 -7 -3
-10 -6 -6 -8 8 33 152 64 222 14 33 41 84 59 112 18 29 38 65 43 79 9 23 9 25
-4 15 -8 -7 -20 -10 -25 -7 -5 4 -14 -1 -19 -10 -5 -9 -12 -12 -15 -7 -7 11
-77 -6 -77 -18 0 -3 -11 -5 -25 -4 -14 2 -27 -1 -31 -6 -3 -5 -10 -9 -15 -9
-6 0 -8 4 -5 9 6 9 -29 7 -62 -3 -11 -4 -23 -2 -27 4 -12 20 -23 8 -83 -93
-140 -238 -202 -453 -202 -706 0 -365 133 -687 389 -942 118 -117 264 -221
388 -275 43 -18 79 -38 81 -43 5 -16 -67 -119 -130 -187 -68 -72 -182 -153
-275 -195 -138 -63 -213 -74 -676 -96 -325 -15 -619 151 -791 445 -20 35 -65
92 -100 127 -35 34 -76 81 -91 104 l-28 41 -51 -31 c-552 -331 -1282 -322
-1827 23 -522 331 -850 928 -849 1546 2 853 596 1567 1435 1723 160 30 459 33
610 5 164 -30 447 -123 480 -158 7 -7 7 -9 -1 -5 -6 3 -64 15 -130 26 -65 11
-142 27 -169 35 -158 47 -426 60 -606 30 -122 -20 -302 -80 -433 -144 -386
-188 -653 -488 -774 -872 -34 -106 -57 -221 -49 -242 12 -31 378 -101 584
-112 l120 -7 13 79 c20 128 101 335 135 348 23 8 27 8 20 -4 -11 -18 27 -11
41 8 13 16 14 16 7 -2 -4 -13 -3 -17 5 -12 14 9 15 -5 2 -59 -17 -70 -31 -258
-24 -314 l7 -54 131 7 c141 8 352 29 480 47 l78 12 34 71 c29 60 61 170 79
266 4 22 9 25 44 25 22 0 37 -4 34 -8 -3 -5 5 -6 18 -2 13 4 25 11 27 16 2 4
14 3 27 -3 14 -6 22 -16 18 -22 -3 -6 -3 -8 1 -4 4 3 39 -14 78 -38 94 -57
189 -96 323 -130 61 -15 112 -29 114 -30 2 -2 -13 -29 -32 -61 -63 -105 -127
-241 -147 -316 -21 -78 -37 -204 -47 -379 l-6 -107 -41 92 c-65 143 -110 199
-248 310 -63 51 -126 77 -244 102 l-81 18 -73 -29 c-59 -23 -68 -29 -51 -36
27 -10 61 -66 61 -101 0 -43 -28 -87 -65 -103 -41 -17 -159 -19 -204 -3 -48
17 -66 72 -41 119 8 15 7 19 -2 15 -7 -2 -47 -13 -88 -25 -41 -12 -80 -23 -87
-25 -9 -3 -4 -25 16 -77 33 -85 70 -198 64 -198 -22 0 -262 164 -296 203 -17
19 -18 19 -153 -7 -75 -14 -225 -38 -333 -52 -267 -34 -261 -33 -261 -49 0
-26 61 -207 93 -274 162 -344 468 -618 821 -736 209 -70 452 -92 666 -61 181
27 390 102 532 192 21 13 42 24 47 24 4 0 12 -28 15 -62 14 -117 103 -337 134
-331 7 2 12 -2 12 -8 0 -5 4 -8 9 -4 5 3 16 -2 24 -10 14 -13 16 -13 19 5 3
21 3 21 16 -1 8 -11 9 -18 3 -14 -6 3 -11 1 -11 -5 0 -7 7 -9 17 -6 9 4 20 2
23 -5 6 -8 9 -8 14 0 4 6 2 11 -3 11 -6 0 -11 5 -11 11 0 5 4 7 10 4 6 -4 8
20 4 67 -17 196 54 429 181 595 29 39 51 74 47 78 -4 4 -1 5 6 3 8 -2 21 7 29
20 15 21 14 22 -2 16 -13 -5 -16 -4 -11 4 4 7 2 12 -3 12 -14 0 -14 -13 -2
-26 6 -5 -3 -9 -25 -9 -18 0 -34 4 -34 10 -1 5 -7 -1 -15 -15 -13 -22 -14 -23
-15 -5 -1 18 -2 18 -10 -2 -5 -13 -12 -23 -14 -23 -3 0 -3 7 0 15 7 18 -7 20
-25 3 -11 -11 -12 -10 -6 2 7 12 6 13 -7 3 -8 -7 -19 -9 -23 -5 -5 4 -5 1 -1
-5 4 -7 2 -13 -3 -13 -6 0 -11 -7 -11 -16 0 -9 5 -12 13 -8 6 4 9 3 4 -1 -10
-11 -68 -14 -61 -3 3 4 0 8 -6 8 -6 0 -8 6 -4 13 5 9 4 9 -6 0 -8 -7 -22 -8
-41 -3 -16 5 -27 5 -24 0 3 -4 -2 -11 -11 -14 -22 -8 -22 -8 -28 12 -3 10 -4
6 -3 -8 1 -14 -3 -24 -9 -23 -8 1 -10 -6 -6 -20 5 -21 4 -21 -16 3 -12 14 -21
21 -22 16 0 -5 -7 -2 -17 5 -15 13 -15 12 -6 -6 10 -17 8 -20 -13 -21 -13 -1
-21 2 -18 7 3 5 2 9 -3 10 -4 0 -16 2 -25 4 -10 2 -18 -3 -18 -11 0 -11 -15
-8 -67 12 -38 14 -102 37 -143 52 l-75 26 40 9 c22 5 93 7 158 5 l118 -4 6 25
c14 56 64 164 105 228 148 228 382 380 652 423 66 11 79 17 86 36 15 38 39
224 41 311 1 45 5 80 9 78 4 -3 5 -15 3 -27 -2 -13 2 -31 10 -42 12 -16 14
-16 14 -2 0 9 -5 16 -10 16 -5 0 -7 11 -5 25 3 14 -1 30 -8 36 -8 6 -11 15 -8
20 3 5 2 14 -2 20 -4 8 -9 7 -15 -2 -6 -10 -8 -7 -6 8 0 12 5 19 10 16 5 -3 7
3 4 13 -3 11 -8 32 -11 47 -4 15 -10 25 -15 23 -5 -3 -11 3 -14 14 -3 11 -1
23 4 26 5 3 9 0 9 -7 0 -7 3 -9 6 -6 8 8 -14 66 -35 91 -9 11 -10 16 -4 12 10
-5 11 -1 4 16 -5 14 -16 22 -27 21 -17 -1 -17 0 -3 10 15 9 14 12 -5 31 -12
12 -15 15 -6 8 9 -6 20 -9 23 -5 12 12 7 23 -10 23 -12 0 -14 3 -7 8 9 5 8 10
-2 20 -7 7 -17 11 -21 10 -5 -2 -8 10 -8 26 -1 16 -6 31 -13 34 -7 2 -10 8 -6
13 3 5 1 9 -4 9 -5 0 -12 9 -15 21 -4 13 -10 19 -19 14 -7 -3 -6 0 3 7 14 11
15 17 4 31 -6 9 -15 13 -20 9 -4 -4 -5 3 -1 14 4 14 1 28 -8 37 -8 8 -12 18
-8 23 4 5 0 3 -9 -4 -14 -10 -18 -10 -23 3 -3 9 -2 13 3 10 5 -3 12 -1 16 4 3
6 -7 17 -22 26 -15 9 -20 14 -10 11 9 -3 17 -1 17 4 0 9 -14 14 -32 11 -5 0
-8 4 -8 9 0 6 5 10 11 10 16 0 -10 30 -36 40 -20 9 -20 9 0 10 18 0 17 2 -5
13 -18 9 -25 20 -24 40 1 18 -4 27 -14 27 -12 0 -12 3 -2 15 11 13 10 14 -5 9
-14 -6 -16 -4 -10 7 7 12 6 12 -7 1 -14 -11 -16 -10 -11 6 2 11 -1 23 -8 27
-8 6 -10 4 -4 -6 7 -11 6 -12 -7 -2 -8 7 -18 11 -21 8 -4 -3 -5 -2 -2 2 3 3 0
12 -6 20 -9 9 -8 13 0 13 6 0 3 8 -6 18 -19 20 -38 19 -27 -1 4 -7 -1 -4 -11
5 -14 13 -16 20 -7 31 10 11 8 17 -5 28 -17 13 -17 13 -4 -6 14 -19 14 -19 -3
-4 -9 9 -18 25 -19 37 -1 16 -4 18 -14 10 -12 -10 -18 0 -14 25 1 5 -3 6 -9 2
-6 -4 -24 5 -40 18 -24 20 -26 26 -14 31 13 5 14 9 4 21 -7 8 -19 15 -26 15
-8 0 -14 10 -14 23 0 12 -4 17 -8 12 -12 -17 -47 -12 -44 6 1 9 -5 23 -15 30
-14 12 -16 12 -8 0 5 -10 4 -12 -3 -7 -7 4 -12 13 -12 19 0 12 -25 31 -70 55
l-25 12 25 -4 c24 -5 24 -4 6 9 -11 8 -28 15 -39 15 -12 0 -17 5 -14 14 4 10
0 12 -15 8 -14 -3 -19 -1 -15 5 5 7 -1 9 -15 5 -17 -4 -20 -2 -15 11 4 11 1
15 -14 12 -12 -2 -19 2 -19 11 0 8 -5 12 -11 9 -6 -4 -21 3 -34 15 -13 12 -28
19 -34 15 -6 -3 -11 -1 -11 4 0 6 5 11 11 11 5 0 7 5 4 11 -4 5 -12 8 -18 6
-6 -2 -18 4 -27 12 -45 43 -80 60 -80 41 0 -6 -6 -5 -14 2 -8 7 -12 16 -10 19
2 4 -10 5 -26 4 -17 -1 -33 1 -36 6 -3 5 0 9 5 9 8 0 7 6 -1 19 -11 18 -13 18
-27 2 -9 -9 -13 -12 -8 -7 4 6 7 17 7 25 0 10 -3 12 -8 6 -9 -13 -35 -19 -28
-6 4 5 2 12 -4 16 -5 3 -10 0 -10 -7 0 -11 -2 -10 -9 0 -7 11 -9 11 -14 -2 -4
-9 -12 -16 -19 -15 -10 0 -10 2 0 6 6 2 12 12 11 21 0 11 -2 12 -6 5 -2 -7 -9
-13 -14 -13 -6 0 -7 5 -3 11 4 7 -1 7 -16 -1 -20 -11 -21 -10 -9 11 12 23 12
23 -14 6 -24 -16 -26 -16 -20 0 5 12 3 14 -7 8 -10 -6 -12 -4 -6 11 6 15 5 16
-5 7 -10 -10 -15 -9 -26 5 -8 9 -11 11 -7 3 6 -11 2 -13 -17 -7 -13 4 -30 8
-36 8 -7 1 -13 7 -13 14 0 6 -15 17 -32 23 -28 9 -31 9 -15 -3 9 -7 17 -16 17
-20 0 -8 -64 26 -68 37 -2 4 -8 7 -13 7 -6 0 -8 -4 -5 -9 9 -14 -32 -1 -44 15
-8 9 -18 10 -36 4 -16 -6 -24 -6 -24 1 0 6 -4 7 -10 4 -5 -3 -10 -1 -10 6 0 7
-8 5 -22 -7 -20 -18 -21 -18 -15 -1 4 12 3 16 -4 11 -6 -4 -14 -2 -18 4 -5 8
-15 7 -33 -2 -23 -12 -26 -12 -21 0 3 8 1 14 -5 14 -6 0 -13 -6 -15 -12 -3 -8
-6 -5 -6 5 -1 10 -6 15 -12 12 -6 -4 -8 -14 -5 -22 3 -8 1 -11 -5 -8 -5 4 -7
15 -4 26 8 24 -12 25 -37 2 -10 -9 -18 -11 -18 -5 0 7 -7 9 -17 5 -13 -5 -15
-2 -10 12 6 14 5 16 -6 7 -8 -7 -17 -9 -21 -5 -4 4 -4 0 0 -10 3 -10 1 -17 -5
-17 -6 0 -11 4 -11 9 0 6 -9 8 -21 6 -15 -3 -19 0 -15 11 4 10 2 13 -7 7 -19
-12 -40 -13 -52 -3 -7 6 -22 4 -38 -5 -17 -8 -25 -10 -21 -3 5 8 2 9 -9 5 -10
-3 -17 -3 -17 1 0 5 -13 8 -29 8 -18 0 -27 -4 -25 -11 3 -6 -2 -12 -10 -12 -8
0 -13 4 -10 9 3 4 0 8 -7 8 -6 0 -9 -8 -6 -20 7 -26 3 -25 -24 3 -17 17 -21
18 -16 5 8 -21 -8 -24 -16 -4 -8 21 -45 15 -51 -8 -5 -18 -6 -18 -30 -3 -28
19 -44 21 -65 8 -12 -8 -13 -12 -1 -26 11 -13 8 -13 -19 2 -31 17 -32 17 -46
-1 -13 -17 -15 -18 -15 -3 0 9 -5 17 -11 17 -5 0 -7 -5 -4 -10 3 -6 0 -17 -9
-25 -17 -17 -30 -20 -21 -5 3 6 2 10 -3 10 -6 0 -12 -7 -16 -15 -3 -8 0 -15 6
-15 6 0 4 -8 -6 -19 -9 -10 -18 -32 -21 -49 -5 -41 -14 -55 -31 -48 -9 3 -14
-2 -14 -14 0 -11 -4 -20 -8 -20 -13 0 -33 -50 -25 -63 4 -7 -1 -6 -10 2 -15
12 -17 11 -17 -7 0 -11 -7 -23 -16 -26 -8 -3 -12 -11 -8 -17 4 -8 0 -7 -16 1
-19 10 -21 10 -12 -7 12 -22 5 -44 -12 -37 -6 2 -23 -7 -36 -21 -21 -23 -18
-35 6 -17 5 4 0 -1 -11 -11 -51 -44 -80 -67 -87 -67 -4 0 -8 -5 -8 -11 0 -15
-26 -39 -34 -32 -3 4 -6 1 -6 -6 0 -7 -5 -9 -12 -5 -8 5 -9 2 -5 -9 3 -9 2
-19 -4 -22 -5 -4 -7 -10 -4 -14 2 -5 -5 -8 -18 -7 -15 1 -22 -4 -21 -17 2 -13
-3 -16 -18 -11 -16 5 -19 2 -16 -18 2 -17 -2 -23 -14 -22 -10 1 -16 -2 -13 -6
9 -14 -6 -39 -21 -33 -8 3 -18 -5 -26 -21 -8 -20 -14 -23 -21 -14 -6 9 -7 6
-4 -10 3 -12 2 -20 -2 -17 -5 2 -17 -13 -27 -35 -10 -22 -23 -40 -27 -40 -5 0
-5 -4 -2 -10 4 -6 -1 -7 -11 -3 -12 4 -15 3 -10 -5 4 -7 -6 -20 -26 -32 -18
-10 -40 -28 -48 -40 -8 -11 -20 -20 -26 -20 -6 0 -18 -8 -25 -17 -9 -11 -10
-14 -2 -9 9 5 11 2 7 -9 -5 -12 -9 -13 -21 -4 -8 7 -13 8 -11 3 4 -14 -47 -61
-62 -56 -7 3 -10 0 -7 -5 10 -16 -14 -39 -68 -69 -27 -15 -55 -32 -62 -38 -33
-29 -43 -36 -53 -36 -6 0 -8 -5 -4 -12 5 -8 2 -9 -9 -5 -18 7 -33 -8 -17 -18
5 -3 10 -11 10 -16 0 -6 -7 -3 -16 5 -16 16 -39 12 -29 -5 6 -8 -11 -13 -42
-12 -7 1 -10 -3 -7 -8 3 -5 -1 -9 -10 -9 -8 0 -17 -6 -19 -12 -4 -10 -6 -10
-6 0 -1 16 -53 5 -64 -14 -6 -11 -12 -11 -29 -1 -16 9 -22 9 -25 0 -2 -7 -11
-9 -19 -6 -8 3 -14 0 -14 -7 0 -7 -6 -5 -16 4 -8 9 -19 14 -24 11 -5 -3 -11 1
-13 7 -4 9 -6 9 -6 1 -1 -13 -41 -5 -41 9 0 5 -4 7 -9 3 -5 -3 -12 3 -16 13
-4 15 -12 18 -33 14 -23 -4 -25 -3 -15 10 10 12 10 15 -2 15 -8 0 -12 -4 -9
-9 3 -4 -1 -8 -8 -8 -10 0 -10 -2 -1 -8 17 -11 -6 -64 -24 -57 -7 2 -14 0 -14
-5 -2 -15 -5 -22 -17 -53 -15 -35 -15 -37 1 -33 6 1 9 1 4 -1 -4 -3 -4 -10 -1
-15 4 -7 2 -8 -4 -4 -7 4 -12 2 -12 -4 0 -6 -5 -8 -10 -5 -11 7 -9 -23 3 -41
6 -11 -18 -29 -34 -26 -3 0 -6 -5 -6 -13 0 -8 4 -12 9 -9 4 3 8 -3 8 -12 0
-10 -3 -14 -7 -11 -5 6 -32 -34 -37 -58 -2 -5 -6 -21 -9 -35 -11 -42 -19 -84
-20 -112 -1 -14 -5 -29 -8 -32 -4 -4 -5 -20 -3 -37 2 -18 0 -28 -6 -24 -15 9
-12 -59 3 -74 10 -10 9 -11 -4 -6 -13 5 -15 1 -11 -21 4 -21 2 -25 -9 -19 -11
7 -12 6 -2 -6 17 -21 17 -22 5 -45 -8 -15 -8 -24 0 -32 9 -9 8 -16 -4 -29 -19
-22 -38 -97 -28 -112 4 -7 15 -9 26 -4 18 7 18 6 1 -11 -14 -14 -15 -21 -6
-32 10 -13 6 -18 -13 -15 -9 1 -4 -27 7 -36 4 -4 5 -2 1 5 -4 6 -2 12 3 12 15
0 14 -12 -5 -38 -8 -12 -10 -22 -5 -22 6 0 10 -6 9 -12 -2 -7 4 -12 12 -10 11
3 10 -1 -4 -16 -16 -19 -16 -22 -1 -51 14 -28 13 -35 -7 -32 -4 0 -5 -6 -2
-14 4 -8 11 -12 18 -8 8 5 8 3 0 -8 -15 -18 -12 -53 7 -75 12 -16 12 -17 -3
-11 -10 3 -18 2 -18 -3 0 -6 8 -10 19 -10 13 0 18 -6 16 -22 -1 -13 -3 -23 -5
-23 -1 0 -3 -15 -4 -34 -2 -26 2 -35 16 -39 10 -2 18 -9 18 -14 0 -5 -5 -6
-11 -2 -8 5 -9 2 -2 -11 6 -10 8 -26 6 -35 -3 -10 1 -21 8 -25 8 -6 10 -4 4 5
-5 9 -4 11 3 6 9 -5 9 -13 2 -26 -6 -10 -6 -21 -2 -24 5 -3 9 -20 10 -37 0
-17 6 -37 12 -43 7 -6 11 -7 10 -1 -4 21 1 29 9 16 6 -9 6 -22 0 -33 -11 -21
-3 -42 13 -32 6 4 6 -2 -1 -15 -10 -18 -9 -21 6 -21 17 -1 16 -2 -1 -15 -20
-15 -20 -15 0 -16 18 0 18 -1 -1 -9 -17 -7 -17 -9 -2 -9 10 -1 17 -9 17 -21 0
-17 3 -19 18 -11 15 8 18 5 20 -22 2 -17 8 -35 15 -39 8 -6 9 -10 1 -15 -16
-11 -13 -40 4 -39 8 1 18 -9 23 -22 6 -15 5 -21 -1 -17 -6 3 -10 -4 -10 -16 0
-12 3 -19 7 -16 3 4 12 2 20 -4 10 -9 18 -8 31 2 14 11 15 11 5 -1 -20 -21
-16 -46 11 -75 15 -16 22 -33 19 -42 -5 -12 -3 -14 8 -8 12 7 12 6 -1 -11 -8
-10 -11 -16 -6 -12 12 10 46 -10 45 -25 0 -9 -2 -9 -6 1 -7 17 -30 15 -30 -3
0 -8 5 -11 10 -8 7 4 8 -1 3 -12 -5 -15 -4 -16 9 -5 14 12 20 10 41 -13 25
-27 32 -43 14 -32 -13 8 -13 -1 3 -28 17 -30 29 -38 52 -31 19 6 19 5 2 -7
-16 -13 -16 -16 6 -41 13 -15 28 -24 32 -20 4 4 6 -3 3 -15 -4 -15 0 -23 13
-26 10 -3 20 0 23 7 3 6 3 1 0 -11 -3 -14 -1 -23 6 -23 6 0 9 -4 6 -8 -2 -4
-1 -14 5 -22 6 -10 9 -11 9 -2 0 6 5 12 10 12 6 0 10 -9 10 -20 0 -14 7 -20
21 -20 18 0 20 -2 9 -16 -8 -8 -9 -14 -4 -13 20 3 35 -1 30 -10 -8 -13 21 -34
35 -25 8 4 9 3 5 -4 -4 -7 -2 -12 3 -12 6 0 11 -7 11 -17 0 -9 3 -13 7 -10 10
11 43 -24 44 -47 0 -12 3 -15 6 -8 2 6 12 12 21 12 15 0 15 -2 2 -10 -13 -9
-12 -12 5 -25 11 -8 25 -18 30 -23 19 -16 35 -23 33 -15 -3 7 5 13 17 13 3 0
1 -9 -5 -20 -9 -17 -8 -20 12 -20 19 0 20 2 8 10 -8 5 -10 10 -4 10 19 0 24
-13 11 -28 -8 -11 -8 -14 0 -9 6 4 15 2 19 -4 4 -8 9 -7 16 2 5 9 6 3 2 -16
-7 -26 -5 -28 8 -17 14 11 19 9 32 -10 9 -13 53 -61 99 -108 46 -47 87 -91 91
-97 4 -7 11 -38 16 -68 5 -31 29 -96 55 -146 61 -122 59 -159 -10 -159 -32 0
-54 19 -107 90 -27 37 -59 70 -130 137 -73 68 -109 120 -190 274 -30 58 -58
117 -62 132 -12 49 -22 20 -15 -40 4 -32 8 -66 8 -75 1 -10 24 -43 51 -73 28
-30 50 -59 50 -63 0 -33 22 -127 32 -140 7 -8 49 -42 93 -75 55 -41 88 -74
106 -106 14 -25 44 -73 67 -105 47 -66 51 -85 24 -109 -38 -35 -85 -14 -159
71 -50 57 -54 60 -91 55 -31 -4 -44 0 -72 23 -28 24 -33 25 -26 9 4 -11 10
-37 13 -58 10 -68 -50 -102 -94 -54 -12 12 -45 74 -75 137 -32 68 -56 109 -60
100 -10 -30 22 -147 67 -237 55 -113 63 -144 40 -166 -39 -40 -87 -14 -141 76
-36 61 -106 167 -109 167 -1 0 0 -23 3 -50 5 -59 -14 -90 -58 -90 -39 0 -64
33 -112 150 -24 58 -57 125 -72 149 l-28 43 -85 -83 c-48 -46 -97 -94 -109
-106 -27 -27 -36 -28 -73 -8 -23 11 -36 34 -65 107 -51 130 -45 126 -100 79
-49 -42 -65 -48 -95 -31 -23 12 -36 47 -51 135 -7 39 -17 81 -23 95 -5 14 -11
81 -13 150 -2 113 -4 125 -21 128 -56 9 -85 44 -97 117 -4 22 -12 59 -19 83
-9 35 -15 42 -30 38 -45 -12 -87 34 -87 94 0 37 -7 37 -56 2 -136 -99 -222
-239 -238 -387 -9 -74 12 -182 48 -254 15 -28 22 -51 17 -51 -6 0 -32 8 -58
18 -26 11 -104 29 -173 41 -69 12 -165 31 -215 42 -233 53 -354 82 -395 94
-25 8 -90 23 -145 35 -55 12 -145 35 -200 51 -55 16 -111 29 -125 29 -14 0
-65 13 -115 29 -49 16 -117 34 -150 41 -33 6 -98 22 -145 34 -47 13 -116 31
-155 40 -38 9 -108 27 -155 40 -166 48 -265 74 -300 80 -30 5 -39 14 -65 63
-65 125 -228 250 -400 309 -56 19 -84 33 -80 41 8 23 -37 52 -106 68 -37 8
-75 15 -83 15 -9 0 -16 2 -16 5 0 17 33 228 41 260 27 112 63 205 78 205 9 0
63 -7 121 -15 58 -9 152 -20 210 -25 58 -5 191 -18 295 -29 105 -10 237 -22
295 -25 58 -4 157 -11 220 -16 190 -16 584 -39 765 -45 94 -3 296 -10 450 -15
154 -5 322 -10 373 -10 l92 0 0 28 0 29 -323 7 c-177 4 -414 11 -527 16 -462
20 -861 41 -965 50 -60 5 -240 21 -400 35 -159 14 -297 27 -305 30 -8 2 -76 9
-150 15 -74 6 -196 20 -270 30 -74 11 -235 31 -357 45 -352 40 -489 61 -632
99 -99 26 -139 33 -152 25 -24 -12 -25 -55 -1 -64 9 -4 87 -11 172 -15 97 -5
236 -21 370 -43 118 -20 247 -40 285 -46 222 -31 303 -42 333 -47 25 -4 32 -9
28 -22 -3 -9 -12 -75 -20 -147 -8 -71 -21 -172 -28 -222 l-12 -93 -71 0 c-116
0 -176 -28 -144 -66 9 -11 7 -14 -8 -14 -47 0 -187 -45 -282 -92 -91 -44 -116
-62 -191 -137 -96 -97 -133 -161 -156 -274 -39 -184 45 -379 220 -511 54 -41
177 -106 239 -126 35 -11 37 -14 23 -28 -45 -51 60 -86 260 -86 147 -1 174 6
174 44 0 13 18 20 85 34 188 36 344 114 454 225 108 108 161 229 161 368 l0
72 58 -20 c31 -11 94 -27 140 -34 46 -8 120 -25 165 -39 45 -13 120 -34 167
-46 47 -13 90 -28 96 -34 6 -6 24 -49 41 -96 28 -78 37 -109 63 -210 10 -40
52 -324 75 -510 9 -69 18 -132 20 -140 4 -12 -16 -21 -86 -39 -132 -35 -177
-81 -93 -97 35 -6 34 -7 -73 -60 -240 -120 -375 -288 -377 -469 0 -62 5 -80
40 -155 30 -62 53 -97 89 -128 45 -39 65 -50 65 -36 0 3 -12 44 -26 90 -14 47
-24 90 -21 97 6 19 63 -78 99 -169 28 -71 38 -85 62 -94 21 -7 33 -7 40 0 7 7
16 4 27 -11 13 -17 38 -26 115 -40 55 -10 128 -18 164 -19 61 0 63 -1 42 -16
-26 -18 -29 -39 -6 -48 43 -17 285 8 349 35 64 27 84 63 44 78 -18 6 -11 11
42 30 199 72 360 204 436 358 35 70 38 84 38 158 0 69 -5 89 -32 147 -86 183
-317 300 -621 315 -68 3 -118 9 -111 14 21 12 1 38 -35 44 -19 4 -61 5 -94 3
l-61 -3 -4 55 c-4 52 -26 212 -62 450 -9 58 -27 161 -40 230 -31 161 -39 220
-30 220 14 0 261 -61 305 -75 25 -8 100 -26 167 -40 67 -14 141 -32 164 -40
23 -8 69 -19 103 -25 33 -5 111 -23 171 -39 61 -16 135 -35 165 -41 30 -7 136
-37 234 -66 99 -30 193 -54 210 -54 16 0 73 -8 125 -17 84 -15 102 -22 146
-57 89 -70 323 -166 409 -166 12 0 28 -5 36 -10 13 -8 13 -13 2 -30 -8 -14
-10 -26 -4 -33 5 -7 10 -61 10 -122 2 -120 18 -309 32 -365 5 -19 14 -70 21
-112 6 -43 15 -78 20 -78 12 0 39 -98 32 -115 -3 -8 0 -15 7 -15 6 0 8 -4 5
-10 -7 -11 77 -208 107 -252 10 -14 18 -30 18 -35 0 -5 -23 -26 -50 -47 -181
-138 -215 -342 -90 -529 70 -104 163 -183 303 -255 80 -41 82 -44 35 -56 -81
-19 16 -72 193 -106 133 -26 209 -22 209 10 0 10 -6 21 -12 23 -7 3 41 6 107
6 125 1 248 18 324 45 24 9 46 15 48 13 13 -14 -415 -594 -570 -774 -53 -61
-127 -137 -164 -168 -38 -31 -78 -66 -91 -76 -59 -50 -220 -152 -291 -186 -44
-20 -83 -43 -86 -52 -3 -8 4 -24 15 -36 11 -12 17 -25 13 -29 -4 -4 1 -4 11 0
14 5 17 4 12 -4 -10 -16 20 -57 41 -57 10 0 19 -8 21 -19 3 -11 0 -16 -7 -11
-6 3 -8 11 -5 17 5 7 2 8 -6 3 -10 -6 -8 -12 8 -25 12 -10 18 -21 14 -25 -4
-5 -2 -5 5 -1 7 4 10 14 7 24 -5 14 -4 14 4 2 6 -8 8 -18 6 -22 -3 -5 2 -11
11 -14 10 -4 13 -13 10 -24 -5 -15 -2 -17 17 -12 22 5 22 5 6 -12 -23 -22 -22
-25 0 -19 13 3 18 -2 19 -17 1 -12 10 -28 19 -35 10 -6 15 -19 12 -27 -4 -10
1 -14 18 -14 13 1 24 -3 23 -9 0 -5 -8 -8 -17 -7 -13 3 -12 -1 5 -17 12 -12
27 -21 33 -21 7 0 8 -6 1 -19 -8 -14 -5 -23 14 -40 14 -11 30 -21 36 -21 6 0
9 -9 6 -20 -3 -11 0 -23 5 -27 7 -3 8 -1 4 5 -4 7 -2 12 3 12 10 0 15 -12 13
-31 -1 -3 9 -5 21 -5 17 1 22 -5 22 -26 -1 -14 2 -25 6 -22 4 2 10 -3 13 -12
4 -10 12 -14 22 -10 14 6 15 4 4 -9 -11 -13 -11 -16 1 -13 9 2 13 -4 11 -19
-3 -18 0 -21 14 -16 13 5 15 3 10 -8 -4 -8 0 -5 9 6 17 20 17 20 10 -2 -4 -14
-2 -23 5 -23 6 0 9 -4 6 -9 -6 -10 22 -24 33 -17 4 3 7 -10 6 -29 -1 -41 2
-43 15 -12 9 22 9 22 10 -3 0 -14 3 -20 8 -14 4 6 16 8 26 4 17 -6 16 -8 -12
-18 -39 -13 -40 -16 -7 -19 56 -5 61 -8 56 -36 -1 -4 6 -10 14 -13 8 -3 12
-10 9 -15 -3 -5 2 -6 10 -3 9 3 16 1 16 -6 0 -6 5 -8 12 -4 7 5 9 2 6 -7 -4
-10 1 -15 13 -16 13 -1 17 2 12 10 -4 7 1 6 11 -2 13 -11 14 -16 4 -22 -9 -6
-6 -9 10 -9 12 0 21 -3 21 -7 -3 -20 2 -34 11 -28 6 3 10 2 10 -4 0 -6 7 -7
17 -4 11 4 14 3 9 -5 -4 -7 -1 -12 7 -12 8 0 20 -7 27 -15 11 -13 10 -15 -6
-9 -14 4 -15 3 -5 -4 7 -5 22 -7 34 -4 12 3 18 1 14 -5 -7 -10 44 -53 63 -53
15 0 40 -26 35 -34 -3 -3 1 -2 7 4 18 15 31 12 24 -5 -3 -9 0 -15 8 -15 8 0
17 -8 21 -17 6 -17 8 -17 22 2 13 16 14 16 10 3 -5 -13 0 -19 18 -24 15 -4 22
-11 18 -18 -4 -6 1 -5 10 2 14 12 16 10 12 -15 -2 -15 -2 -22 1 -15 3 6 10 12
15 12 6 0 8 -4 5 -9 -3 -5 2 -8 11 -7 10 0 18 -4 18 -11 0 -15 15 -30 15 -15
0 7 5 12 10 12 6 0 10 -6 10 -14 0 -8 4 -18 10 -21 6 -4 7 1 4 12 -5 15 -2 14
14 -4 10 -12 38 -26 61 -33 30 -8 41 -16 39 -28 -2 -13 4 -17 23 -16 17 0 25
-4 22 -12 -2 -6 10 -16 26 -22 17 -6 31 -18 31 -26 0 -9 5 -16 11 -16 5 0 7 5
4 10 -8 14 8 13 22 -1 6 -6 9 -19 6 -28 -3 -10 -2 -12 4 -5 12 16 57 -2 47
-18 -5 -8 0 -7 11 2 11 9 16 10 11 3 -4 -7 0 -23 8 -35 l16 -22 0 22 c0 19 2
21 14 10 7 -7 12 -18 9 -24 -2 -7 0 -15 6 -19 6 -3 11 -1 11 6 0 7 13 0 30
-16 16 -15 27 -32 23 -38 -3 -5 3 -7 14 -3 12 4 20 2 21 -6 1 -13 3 -21 16
-70 5 -15 16 -30 26 -33 11 -3 22 -15 25 -26 6 -17 17 -24 38 -20 5 1 5 -3 2
-9 -4 -6 -14 -9 -22 -5 -12 4 -13 3 -5 -8 7 -8 9 -17 6 -20 -8 -7 18 -67 29
-67 5 0 5 -4 2 -10 -3 -5 2 -10 12 -11 14 0 15 -2 3 -7 -18 -8 -25 -38 -10
-47 6 -4 7 1 4 12 -5 17 -5 17 9 0 16 -19 12 -51 -4 -41 -5 3 -6 -1 -3 -9 3
-10 -18 -34 -63 -70 -126 -101 -210 -138 -311 -138 -189 0 -281 160 -282 491
0 115 13 269 26 313 5 16 1 15 -33 -6 -34 -22 -220 -117 -413 -213 -110 -54
-158 -66 -270 -70 -58 -3 -136 -9 -173 -15 -89 -14 -136 -2 -209 57 -80 63
-93 95 -93 229 1 81 7 132 23 194 32 117 76 227 117 291 35 56 43 76 25 65
-17 -10 -214 -7 -281 5 -59 11 -252 71 -291 91 -12 7 -48 -6 -130 -44 -62 -29
-141 -64 -176 -76 -60 -23 -62 -24 -42 -38 12 -8 19 -20 17 -26 -3 -10 5 -20
50 -69 9 -10 20 -15 26 -11 6 3 7 1 3 -6 -4 -6 0 -14 8 -17 9 -3 13 -10 10
-15 -3 -5 0 -9 6 -9 14 0 45 -30 45 -43 0 -13 37 -37 47 -30 6 3 5 -4 -1 -16
-10 -19 -8 -24 9 -23 3 0 11 -6 18 -14 8 -9 9 -14 2 -14 -6 0 -8 -5 -5 -10 4
-6 10 -8 15 -5 5 3 11 1 15 -5 4 -6 11 -8 16 -5 5 4 9 1 9 -5 0 -15 49 -86 56
-82 3 2 8 1 12 -2 3 -3 -1 -6 -8 -6 -8 0 -3 -9 11 -23 13 -13 30 -21 37 -19 7
3 12 1 11 -4 -3 -22 15 -55 27 -50 8 3 14 1 14 -4 0 -6 19 -29 43 -53 65 -66
103 -111 102 -122 0 -5 10 -11 23 -13 12 -2 22 -10 22 -18 0 -8 4 -13 9 -10 5
3 11 -3 14 -14 3 -11 12 -20 20 -20 8 0 22 -12 32 -26 9 -14 19 -23 22 -20 10
9 31 -19 25 -34 -3 -8 -2 -12 2 -9 4 4 27 -13 50 -37 24 -24 49 -44 54 -44 6
0 19 -13 28 -29 10 -17 21 -28 26 -25 4 3 8 -2 8 -12 0 -13 3 -14 14 -5 11 9
16 9 22 0 5 -8 3 -9 -6 -4 -8 5 -11 3 -9 -4 3 -7 8 -11 12 -9 5 2 13 -5 18
-14 6 -10 16 -18 24 -18 8 0 21 -10 29 -22 9 -12 37 -34 63 -49 31 -17 47 -32
46 -44 -1 -12 2 -14 9 -7 7 7 18 3 35 -14 13 -13 28 -24 34 -24 6 0 7 -5 4
-10 -4 -6 -3 -9 2 -8 17 4 53 -14 47 -24 -5 -7 -1 -9 9 -5 11 4 17 1 17 -7 0
-17 25 -27 47 -19 11 4 14 3 9 -5 -4 -7 -2 -12 4 -12 6 0 8 -4 5 -10 -3 -6 3
-10 15 -10 24 0 53 -14 80 -38 39 -36 51 -43 79 -48 18 -4 28 -11 25 -19 -6
-14 22 -28 37 -20 5 4 6 0 3 -8 -3 -9 10 -20 41 -32 25 -11 45 -25 45 -33 0
-8 9 -12 22 -10 14 2 23 -2 23 -10 0 -17 25 -31 42 -25 9 4 16 -3 20 -16 3
-11 9 -18 14 -15 5 3 9 0 9 -6 0 -7 7 -10 15 -6 9 3 15 0 15 -9 0 -9 6 -12 15
-8 10 3 15 1 13 -7 -2 -7 8 -14 22 -16 14 -2 30 -11 35 -20 6 -9 17 -24 25
-33 10 -12 12 -12 5 -1 -5 8 3 4 17 -9 15 -12 31 -20 37 -16 10 5 15 -7 12
-27 0 -4 10 -5 23 -2 15 2 29 -3 37 -14 12 -15 12 -16 -1 -7 -10 6 -9 4 2 -6
9 -9 15 -19 12 -22 -3 -3 3 -3 15 0 16 4 21 1 21 -13 0 -11 4 -15 8 -9 12 17
41 14 35 -3 -4 -10 -2 -13 5 -8 7 4 12 2 12 -3 0 -6 7 -11 15 -11 8 0 15 -3
15 -8 0 -4 9 -13 21 -20 12 -8 18 -9 15 -3 -4 7 -1 8 8 5 9 -3 16 -11 16 -18
0 -7 4 -6 9 3 6 10 12 5 22 -17 8 -18 16 -26 20 -20 4 7 11 3 18 -11 7 -11 15
-21 20 -21 10 0 31 46 31 69 0 10 11 39 25 65 65 123 146 501 192 906 25 216
26 252 30 918 l5 692 -35 48 c-134 185 -415 632 -435 691 -14 41 -11 46 36 62
20 7 150 60 287 119 246 105 537 221 552 219 4 0 52 -60 105 -132 54 -73 142
-184 197 -247 55 -63 97 -118 95 -122 -4 -6 19 -53 51 -101 8 -12 15 -26 16
-32 2 -12 20 -42 65 -111 19 -28 34 -56 34 -63 0 -7 13 -30 29 -50 16 -20 28
-38 28 -41 0 -3 12 -24 27 -48 15 -23 24 -47 21 -53 -4 -5 -1 -8 6 -7 7 2 14
-3 15 -9 1 -7 2 -18 3 -24 0 -5 6 -7 13 -3 6 4 8 3 5 -3 -4 -6 9 -36 28 -68
19 -31 33 -61 30 -65 -3 -5 -1 -10 4 -12 11 -4 121 -169 121 -182 0 -16 83
-127 135 -179 17 -17 23 -27 15 -22 -10 6 -8 0 4 -16 28 -33 409 -408 447
-439 17 -14 37 -29 43 -35 6 -5 18 -11 26 -13 7 -2 21 -12 31 -23 9 -10 20
-19 24 -19 4 0 20 -9 36 -21 16 -11 29 -17 29 -13 0 5 5 3 12 -4 14 -14 52
-17 44 -3 -3 5 13 2 35 -6 26 -9 45 -10 53 -4 6 5 14 10 19 10 50 4 79 23 171
108 86 80 189 149 256 174 57 21 82 24 200 24 215 -1 397 -28 575 -85 50 -16
110 -35 135 -43 43 -14 45 -16 43 -50 -1 -20 -24 -125 -51 -234 -27 -109 -64
-261 -82 -338 -29 -127 -42 -183 -85 -370 -8 -33 -16 -74 -18 -92 -3 -17 -8
-36 -11 -41 -3 -5 4 -10 17 -10 12 0 60 -7 107 -16 82 -16 86 -16 100 2 51 63
138 54 175 -17 14 -28 16 -28 122 -33 59 -3 115 -8 123 -12 12 -5 19 9 34 61
18 64 139 444 153 479 5 13 3 14 -13 4 -14 -9 -48 -9 -134 -2 l-115 10 -27
-25 c-20 -19 -38 -26 -70 -26 -36 0 -47 5 -73 35 -26 31 -39 37 -105 48 -125
20 -152 38 -134 84 8 20 35 20 138 0 l82 -16 31 31 c43 42 93 43 134 2 16 -16
29 -36 29 -44 0 -11 25 -15 118 -20 103 -6 119 -9 135 -28 9 -12 17 -19 17
-16 0 11 109 342 128 392 21 52 37 59 84 34 16 -9 71 5 95 23 7 5 16 7 22 4 5
-4 16 0 24 8 11 11 17 12 27 3 7 -7 10 -7 7 -2 -3 6 24 24 59 42 35 17 62 27
59 22 -4 -5 -1 -9 4 -9 6 0 11 5 11 10 0 6 3 9 8 8 13 -3 72 13 72 20 0 4 39
6 87 5 49 -1 122 -2 163 -3 41 0 124 6 184 15 160 22 218 18 318 -22 20 -9 40
-13 45 -10 5 3 22 -6 38 -21 38 -35 93 -64 100 -53 3 5 14 7 26 4 15 -4 17 -9
9 -17 -8 -8 -13 -7 -20 4 -5 8 -10 11 -10 5 0 -22 18 -37 41 -34 13 2 30 -1
38 -6 10 -5 16 -4 19 3 2 7 8 9 13 6 6 -3 5 -12 -3 -22 -10 -12 -10 -16 0 -19
6 -3 12 -15 12 -28 0 -13 5 -27 10 -30 6 -4 8 -11 5 -16 -3 -5 2 -6 11 -2 11
4 15 3 11 -5 -4 -6 -2 -22 4 -35 9 -19 19 -25 48 -25 67 -1 72 -2 65 -14 -4
-7 -3 -8 4 -4 7 4 12 14 12 21 0 8 16 25 35 37 19 13 35 28 35 35 0 7 9 17 20
23 11 6 20 15 20 20 0 6 7 18 15 27 54 62 65 77 65 89 0 8 5 14 10 14 6 0 10
6 10 13 0 7 21 40 48 73 69 87 84 112 69 117 -8 4 -8 6 2 6 11 1 11 4 0 18
-12 14 -10 14 14 -1 21 -14 27 -15 27 -5 0 8 32 52 70 98 39 46 70 88 70 93 0
5 5 6 10 3 6 -3 10 0 10 8 0 8 11 25 25 38 13 13 25 28 25 32 0 4 5 13 10 20
30 36 110 168 132 217 6 14 31 38 57 54 25 16 62 39 81 51 348 216 565 408
760 670 78 104 199 302 226 370 22 53 12 53 157 1 55 -20 105 -36 112 -36 18
0 39 60 22 65 -70 20 -211 71 -223 80 -20 14 -7 49 15 39 9 -4 67 -23 129 -42
95 -29 116 -33 123 -21 5 8 9 10 9 4 1 -5 19 37 41 95 23 58 45 110 50 116 5
7 -29 21 -104 43 -161 47 -181 56 -173 84 18 59 56 256 66 341 l12 95 62 -6
c33 -3 79 -11 101 -17 46 -13 245 -5 365 14 273 43 565 204 753 415 126 141
262 374 307 525 l16 55 70 6 c254 23 337 29 342 25 6 -7 39 -97 58 -161 14
-49 46 -227 41 -231 -1 -1 -40 -9 -86 -18 -87 -16 -111 -28 -111 -55 0 -12
-19 -21 -67 -34 -203 -53 -378 -180 -446 -324 -28 -60 -32 -78 -32 -153 0 -76
3 -92 32 -150 56 -110 153 -198 296 -265 106 -51 217 -82 322 -92 38 -3 64 -8
57 -11 -19 -6 -14 -30 9 -43 55 -29 324 -18 390 17 32 16 38 38 14 51 -11 7 5
15 57 32 294 94 477 312 438 522 -26 139 -136 266 -304 349 -95 47 -266 100
-324 100 -21 0 -23 2 -12 15 26 32 -36 54 -150 55 l-66 0 -12 83 c-7 45 -19
133 -28 196 -8 63 -17 118 -20 122 -2 5 10 10 28 13 46 8 260 34 338 41 36 3
133 17 215 30 161 25 314 41 490 51 113 6 135 13 135 45 0 42 -28 41 -260 -11
-47 -11 -130 -24 -185 -29 -55 -6 -208 -23 -340 -37 -239 -25 -300 -31 -595
-59 -85 -8 -183 -18 -218 -21 l-62 -7 14 44 c14 42 32 142 56 309 17 118 22
450 10 610 -7 80 -14 172 -16 205 -2 33 -12 102 -21 153 -14 77 -20 92 -36 92
-57 0 -75 48 -57 149 12 67 4 154 -13 148 -6 -2 -20 -31 -32 -66 -11 -34 -30
-70 -42 -79 -12 -9 -39 -53 -60 -97 -55 -111 -63 -123 -99 -137 -34 -14 -246
-216 -379 -361 -61 -66 -87 -87 -106 -87 -18 0 -51 -23 -109 -76 -74 -67 -87
-75 -118 -72 -71 6 -68 53 7 143 28 33 51 63 51 67 0 4 -26 -6 -57 -21 -47
-23 -70 -28 -118 -26 -79 3 -74 1 -85 30 -12 31 -1 61 46 132 19 28 34 54 34
56 0 3 -24 -8 -52 -24 -94 -51 -135 -32 -72 33 44 45 82 68 103 60 8 -2 18 3
23 12 5 10 21 21 34 27 16 5 22 13 18 21 -5 8 -2 9 9 5 10 -3 17 -2 17 3 0 6
7 10 15 10 8 0 22 9 32 19 10 10 27 21 38 23 11 2 19 10 17 16 -1 7 11 15 28
18 16 4 30 10 30 15 0 5 6 9 14 9 16 0 29 27 20 41 -3 5 -2 9 3 8 4 -1 18 -1
30 0 17 1 21 5 16 19 -3 9 -3 14 2 10 12 -11 73 67 67 86 -2 5 5 3 14 -5 13
-11 18 -11 21 -1 3 6 11 12 18 12 9 0 12 11 11 33 -2 26 1 33 15 33 10 0 15
-4 13 -8 -3 -4 0 -8 6 -8 6 0 10 8 9 18 -3 38 2 50 25 56 14 3 27 15 31 26 3
11 18 28 31 39 14 11 33 35 43 53 9 18 21 34 26 36 6 1 10 16 10 33 0 16 7 34
14 38 7 5 11 13 7 19 -4 6 2 8 16 4 14 -3 19 -1 14 6 -7 12 8 48 31 70 7 7 13
20 13 28 0 23 49 114 61 114 6 0 9 7 5 15 -3 8 -1 15 4 15 6 0 10 5 10 11 0 6
-8 8 -17 5 -17 -6 -17 -5 0 8 9 7 17 18 17 25 0 6 5 11 10 11 6 0 10 14 10 30
0 19 6 33 16 37 9 3 13 12 9 21 -3 8 -1 18 4 22 6 3 13 24 17 45 3 22 8 55 11
74 4 23 8 29 14 20 12 -19 12 16 0 59 -5 17 -6 32 -1 32 13 0 31 65 24 85 -5
12 -4 16 3 12 6 -4 10 9 10 34 0 23 4 44 10 48 5 3 10 18 11 34 1 19 -3 27
-16 28 -11 1 -8 4 8 9 21 7 22 8 5 9 -14 1 -16 4 -7 10 15 9 25 138 11 147 -6
4 -6 10 0 17 10 13 8 46 -4 111 -6 28 -5 37 4 32 16 -10 14 0 -5 18 -8 9 -12
16 -7 16 5 0 8 12 7 28 -1 15 -2 27 -4 27 -1 0 -3 14 -4 30 -1 17 -6 36 -10
43 -4 7 -2 12 3 12 6 0 11 5 11 11 0 5 -4 8 -9 5 -5 -3 -12 1 -15 10 -3 8 -2
12 4 9 10 -6 8 55 -3 85 -3 8 -11 32 -17 52 -9 29 -15 36 -32 33 -11 -3 -27
-12 -35 -22 -8 -10 -12 -12 -8 -5 3 6 1 12 -6 12 -9 0 -9 3 0 14 9 11 6 15
-15 19 -22 4 -25 1 -21 -15 4 -16 3 -17 -9 -7 -8 6 -14 8 -15 3 0 -5 -4 0 -9
11 -7 16 -9 17 -9 3 -1 -11 -7 -15 -21 -11 -11 3 -17 10 -14 15 4 6 0 14 -7
19 -19 12 -32 11 -24 -1 3 -6 -1 -7 -9 -4 -9 3 -16 10 -16 16 0 5 -4 7 -8 4
-5 -3 -8 5 -8 16 1 15 -7 24 -24 29 -14 4 -19 7 -12 8 7 1 11 5 7 11 -3 5 -13
6 -22 3 -9 -4 -14 -2 -11 3 4 5 0 20 -9 34 -10 18 -13 20 -9 5 6 -20 6 -20 -9
-1 -11 15 -12 23 -3 33 8 10 7 12 -5 8 -8 -4 -18 -1 -22 4 -3 6 -12 8 -18 4
-8 -4 -8 -1 1 9 11 13 10 19 -5 34 -10 10 -17 19 -15 22 2 2 1 6 -2 10 -3 3
-6 -1 -6 -8 0 -7 -3 -10 -7 -6 -8 8 -14 34 -14 59 0 9 -7 17 -15 17 -8 0 -14
10 -14 24 0 14 -5 28 -11 31 -6 4 -8 14 -5 22 5 11 2 13 -9 9 -11 -4 -14 -2
-8 7 15 24 -1 61 -22 49 -5 -3 -3 3 5 13 9 11 10 16 3 11 -9 -5 -13 -1 -13 13
0 11 -5 23 -11 26 -6 4 -8 13 -5 21 3 8 0 13 -6 11 -7 -1 -12 9 -12 23 -1 17
-6 24 -16 22 -10 -3 -9 3 5 19 14 16 16 23 8 26 -7 3 -13 13 -13 24 0 10 -6
19 -12 19 -9 0 -8 4 2 10 10 6 11 10 3 10 -7 0 -13 5 -13 11 0 5 3 8 8 6 4 -3
7 6 7 19 0 15 -5 22 -12 20 -7 -3 -15 -1 -18 4 -4 6 -1 10 4 10 6 0 11 8 11
18 0 14 -2 15 -10 2 -8 -13 -10 -12 -10 3 0 9 5 17 11 17 8 0 9 4 0 13 -6 8
-8 17 -4 20 3 4 0 14 -8 24 -8 9 -9 14 -3 10 7 -4 17 0 24 8 11 13 10 14 -4 9
-19 -7 -21 7 -4 24 7 7 8 12 2 12 -6 0 -11 7 -11 15 0 10 4 12 12 5 8 -7 11 2
10 33 -1 23 3 48 8 55 5 6 6 12 2 12 -4 0 -2 6 4 14 8 10 9 16 1 21 -5 3 -10
3 -10 -1 0 -4 -14 11 -31 32 -16 22 -42 44 -57 51 -15 7 -21 12 -14 13 7 0 10
5 7 10 -4 6 -11 8 -16 5 -5 -4 -9 -1 -9 5 0 7 -9 9 -22 5 -18 -5 -20 -4 -8 4
15 10 13 12 -12 15 -7 1 -12 9 -10 18 3 17 -30 42 -41 32 -7 -7 -107 65 -107
77 0 5 -12 9 -27 9 -22 0 -25 2 -13 11 12 8 8 9 -15 7 -18 -2 -30 2 -30 9 0
20 -38 59 -43 45 -3 -9 -8 -8 -17 4 -8 11 -26 18 -48 18 -23 0 -33 4 -30 12 7
18 -16 27 -33 13 -12 -10 -13 -9 -8 7 4 10 4 16 -1 12 -4 -4 -15 -3 -22 4 -11
9 -16 9 -22 0 -5 -9 -12 -7 -27 6 -48 43 -99 63 -61 23 9 -11 7 -10 -10 0 -13
8 -23 18 -23 22 0 5 -7 6 -16 3 -8 -3 -12 -2 -9 4 7 11 -1 12 -57 13 -21 0
-38 3 -38 8 0 4 -12 6 -26 3 -16 -3 -23 -1 -19 6 8 12 -5 13 -24 1 -9 -6 -19
-4 -28 5 -8 8 -19 12 -24 9 -5 -4 -9 -1 -9 4 0 18 -28 13 -39 -6 -6 -11 -11
-13 -11 -5 0 7 -4 10 -10 7 -6 -4 -7 1 -3 11 5 14 3 16 -13 10 -10 -5 -28 -10
-39 -12 -20 -4 -20 -4 0 4 20 9 -54 14 -190 13 -33 0 -73 -1 -89 -1 -20 0 -27
-3 -23 -14 6 -14 -16 -17 -29 -3 -9 9 -49 9 -58 0 -4 -4 -22 -6 -41 -5 -23 3
-36 -2 -43 -14 -7 -13 -18 -16 -45 -11 -24 4 -39 1 -47 -8 -6 -7 -20 -10 -32
-7 -16 4 -19 2 -14 -9 4 -8 0 -5 -9 6 -15 19 -17 19 -26 3 -6 -10 -17 -18 -24
-18 -8 0 -15 -4 -15 -10 0 -5 -7 -10 -15 -10 -8 0 -15 -8 -15 -17 0 -15 -2
-16 -10 -3 -7 11 -10 11 -10 2 0 -7 -4 -11 -9 -8 -5 3 -23 3 -41 0 -22 -5 -29
-11 -25 -22 4 -12 3 -13 -9 -3 -12 10 -17 9 -28 -8 -10 -16 -15 -18 -27 -8
-12 10 -13 9 -7 -1 6 -9 3 -12 -10 -10 -12 2 -18 -2 -16 -10 1 -8 -2 -11 -9
-7 -6 4 -17 -2 -25 -14 -8 -12 -24 -21 -34 -21 -10 0 -25 -7 -34 -15 -8 -9
-18 -16 -21 -15 -30 2 -35 -3 -35 -27 0 -23 -2 -25 -11 -13 -8 11 -12 12 -16
2 -2 -6 -9 -10 -13 -7 -5 3 -15 -4 -23 -15 -7 -11 -17 -17 -20 -13 -4 3 -7 -4
-7 -16 0 -18 -4 -21 -20 -16 -16 5 -20 2 -20 -15 0 -12 -4 -18 -10 -15 -5 3
-10 2 -10 -4 0 -6 -6 -8 -14 -5 -8 3 -17 0 -22 -7 -4 -8 -3 -10 4 -5 7 4 12 2
12 -3 0 -6 -7 -11 -16 -11 -9 0 -12 -5 -8 -12 4 -7 3 -8 -5 -4 -6 4 -23 -2
-37 -13 -16 -12 -21 -21 -13 -21 10 -1 9 -4 -3 -11 -10 -5 -18 -17 -18 -25 0
-11 -6 -13 -21 -9 -14 5 -19 3 -17 -7 2 -7 -12 -27 -30 -44 -17 -17 -32 -37
-32 -45 0 -12 -2 -12 -9 -1 -7 11 -10 10 -15 -3 -3 -9 -4 -21 0 -26 3 -5 -1
-9 -8 -9 -7 0 -18 -10 -23 -22 -6 -13 -20 -24 -32 -26 -24 -4 -32 -22 -10 -22
9 0 9 -2 -1 -8 -7 -5 -10 -17 -6 -28 4 -13 3 -15 -3 -6 -7 10 -14 8 -32 -7
-16 -14 -18 -21 -9 -24 8 -3 6 -6 -6 -6 -12 -1 -16 -6 -13 -15 4 -10 1 -13 -9
-9 -7 3 -14 0 -14 -6 0 -6 6 -11 13 -11 8 -1 6 -5 -4 -13 -9 -7 -18 -16 -20
-22 -2 -5 -7 -9 -11 -8 -4 2 -12 -13 -18 -32 -6 -19 -16 -35 -21 -35 -5 0 -9
-5 -9 -11 0 -5 5 -7 11 -3 8 4 8 0 0 -15 -7 -11 -16 -21 -21 -21 -6 0 -10 -9
-10 -19 0 -11 -5 -23 -11 -26 -6 -4 -8 -13 -5 -21 3 -8 -1 -14 -10 -14 -11 0
-15 -9 -13 -32 3 -54 0 -68 -15 -62 -15 6 -21 -6 -32 -68 -3 -21 -10 -38 -15
-38 -5 0 -9 -17 -9 -37 0 -28 -3 -34 -10 -23 -7 11 -10 4 -10 -26 0 -24 -7
-48 -17 -60 -10 -11 -18 -36 -19 -59 -2 -66 -10 -114 -24 -130 -9 -11 -10 -18
-1 -29 9 -10 9 -15 1 -18 -7 -2 -13 -31 -14 -67 -2 -44 0 -58 6 -46 6 9 8 25
5 36 -3 10 -2 19 3 19 4 0 11 21 14 48 4 26 13 65 20 87 11 35 12 24 8 -92 -4
-114 9 -323 24 -375 4 -13 15 -18 38 -18 43 0 139 -18 204 -37 49 -16 53 -16
66 2 16 22 40 11 33 -16 -4 -15 6 -26 41 -46 139 -79 242 -177 332 -317 24
-36 47 -66 51 -66 13 0 10 12 -6 34 -8 11 -15 30 -15 42 0 39 52 48 239 41
176 -7 293 -26 446 -72 98 -30 338 -125 331 -132 -6 -6 -349 -5 -377 1 -13 3
-44 7 -69 10 -25 3 -72 8 -105 11 -33 4 -71 9 -85 11 -61 10 -316 15 -329 6
-15 -11 -8 -44 15 -67 9 -8 33 -15 54 -15 21 0 82 -9 135 -20 53 -11 100 -20
104 -21 12 -1 -154 -37 -206 -44 -29 -4 -53 -11 -53 -15 0 -5 4 -31 9 -57 23
-119 23 -114 -6 -107 -17 5 -24 3 -19 -4 4 -7 -5 -10 -24 -10 -22 1 -28 4 -20
12 13 13 13 26 -1 26 -5 0 -7 -5 -3 -12 5 -8 2 -9 -11 -5 -14 6 -16 3 -12 -12
3 -13 0 -18 -12 -16 -9 1 -19 -3 -23 -9 -5 -7 -8 -4 -8 7 0 10 7 20 16 24 12
4 13 8 3 14 -9 5 -18 -2 -28 -22 -12 -25 -16 -28 -23 -15 -5 8 -15 13 -23 10
-8 -4 -15 -1 -15 6 0 6 5 8 10 5 6 -3 10 -1 10 5 0 6 -8 10 -17 8 -11 -2 -18
-12 -18 -27 0 -13 -6 -25 -13 -27 -7 -1 -8 0 -2 3 5 2 7 9 4 14 -3 6 -11 5
-20 -2 -11 -9 -14 -8 -15 7 -1 11 -1 22 -1 25 1 3 -6 6 -13 6 -12 0 -12 -3 -2
-16 8 -10 8 -13 0 -8 -6 4 -18 4 -27 1 -12 -5 -13 -10 -4 -30 6 -13 15 -24 20
-24 5 0 6 -4 3 -10 -3 -5 0 -20 7 -32 6 -13 13 -27 14 -33 1 -5 13 -46 25 -90
21 -70 24 -102 24 -253 0 -133 3 -171 13 -167 6 2 12 0 12 -5 0 -6 -9 -10 -20
-10 -11 0 -20 -4 -20 -8 0 -15 51 -7 60 8 7 11 9 10 7 -7 0 -12 -5 -19 -9 -17
-4 3 -8 1 -8 -5 0 -5 5 -11 11 -13 6 -2 -17 -36 -52 -75 -35 -39 -84 -108
-109 -154 -53 -99 -190 -244 -282 -297 -161 -95 -345 -121 -543 -77 -33 7 -98
14 -146 14 -275 3 -543 183 -682 457 l-26 52 99 31 c215 68 439 207 590 367
233 246 353 537 367 889 8 222 -30 412 -122 615 -41 88 -45 104 -43 161 2 35
8 67 13 71 6 5 5 8 -3 8 -7 0 -10 5 -7 10 4 6 8 42 10 79 2 38 6 88 10 112 3
24 10 78 16 119 11 81 46 190 61 190 5 0 7 4 4 9 -3 5 0 24 8 42 7 19 17 43
21 54 5 11 9 22 10 25 1 3 5 13 9 22 4 9 9 25 11 35 1 10 7 17 13 16 5 -1 8 7
5 17 -3 11 0 20 6 20 6 0 11 12 11 26 0 14 4 22 10 19 6 -3 7 1 4 9 -3 9 -1
16 6 16 6 0 8 5 5 10 -3 6 -1 10 4 10 6 0 11 9 11 19 0 11 6 26 13 33 6 7 13
22 15 33 2 11 10 31 19 44 11 17 11 21 2 15 -8 -4 -4 5 9 20 12 16 22 35 22
43 0 7 7 16 16 20 10 4 12 8 5 12 -7 5 -5 15 6 31 10 14 18 31 20 39 1 7 10
23 21 35 10 11 19 32 20 45 0 13 7 28 14 32 7 5 9 9 3 9 -5 0 -2 7 9 15 10 7
15 18 11 24 -3 6 -1 11 4 11 6 0 11 6 11 13 0 7 9 18 20 25 12 7 17 18 13 29
-4 11 -3 14 5 9 7 -4 12 -1 12 8 0 9 16 36 35 62 19 25 35 50 35 55 0 6 5 7
12 3 8 -5 9 -2 5 9 -3 10 -2 17 4 17 6 0 7 5 4 10 -6 9 8 15 29 11 5 -1 4 5
-4 13 -10 13 -10 16 4 16 10 0 14 5 11 10 -3 6 -1 10 5 10 6 0 8 5 4 12 -4 7
-3 8 4 4 7 -4 16 2 22 16 21 45 37 68 43 61 4 -3 7 -1 7 6 0 7 5 9 12 5 8 -5
9 -2 5 9 -4 11 -1 17 9 17 8 0 12 5 9 10 -3 6 -1 10 5 10 6 0 8 5 5 10 -3 6 1
10 9 10 8 0 18 9 21 20 3 11 11 20 16 20 6 0 7 5 4 10 -4 6 -3 10 2 9 20 -3
34 2 28 11 -3 5 5 15 19 21 14 7 23 16 20 20 -3 5 -1 9 5 9 5 0 13 9 16 20 4
11 9 19 13 16 4 -2 18 7 32 20 l25 24 -30 0 c-17 -1 -79 -14 -140 -30z m1600
-786 c97 -41 263 -138 358 -210 100 -77 276 -261 356 -374 98 -137 198 -336
241 -477 19 -62 40 -113 47 -113 13 0 18 -13 32 -94 13 -72 15 -619 2 -644 -5
-9 -18 -69 -30 -132 -70 -367 -271 -734 -534 -975 -328 -299 -749 -449 -1168
-415 -141 12 -232 30 -365 75 -146 49 -387 172 -356 183 6 2 10 8 6 13 -3 5 0
9 5 9 25 0 131 277 131 340 0 46 7 47 95 18 155 -50 236 -63 410 -62 129 0
180 4 264 23 396 87 717 325 946 700 58 96 125 227 125 246 0 6 -75 20 -172
33 -95 12 -240 36 -323 53 -88 17 -164 27 -183 24 -23 -4 -34 -2 -38 9 -3 8
-29 20 -58 26 -52 11 -54 10 -119 -30 -37 -22 -69 -40 -71 -40 -3 0 1 15 8 33
33 79 38 71 -88 111 -75 24 -134 36 -170 36 -72 0 -120 20 -140 59 -9 16 -26
33 -38 37 -13 3 -79 33 -147 65 -77 37 -132 57 -143 53 -29 -9 -158 -115 -209
-171 -47 -53 -102 -149 -135 -238 l-19 -50 -7 105 c-13 215 -28 327 -57 424
-28 93 -29 98 -12 115 9 9 15 23 13 29 -2 7 3 15 12 18 9 3 16 15 16 26 0 12
9 22 21 25 12 4 18 11 15 20 -4 9 -2 11 6 7 8 -5 9 -2 5 9 -5 12 3 22 26 33
18 10 38 26 46 36 7 11 20 17 28 14 8 -3 12 -2 9 3 -3 5 1 12 10 15 10 4 13 2
8 -6 -5 -7 -3 -8 5 -4 7 5 10 14 7 22 -3 8 0 11 10 7 7 -3 14 0 14 7 0 6 4 9
9 6 5 -3 12 1 15 10 3 8 14 14 23 12 17 -3 45 16 89 61 23 23 25 23 37 7 9
-13 20 -16 40 -11 15 4 27 11 27 16 0 5 7 5 17 2 12 -5 14 -3 8 7 -5 9 -4 11
4 6 6 -4 9 -12 6 -17 -4 -5 -2 -9 3 -9 4 0 14 -24 21 -52 29 -118 123 -285
212 -379 l44 -46 110 -12 c94 -10 336 -30 372 -31 6 0 19 31 27 69 24 104 22
342 -4 473 -18 95 -25 159 -14 131 3 -7 12 -9 20 -6 13 5 13 8 2 15 -9 7 -8 8
5 4 10 -3 25 -6 33 -6 16 0 73 -110 115 -223 42 -114 59 -210 59 -340 l0 -112
129 7 c207 11 550 70 590 101 16 13 8 180 -15 315 -73 425 -348 792 -734 982
-100 49 -70 46 55 -6z m-564 -632 c62 -25 136 -159 145 -263 9 -87 -14 -156
-70 -214 -83 -87 -196 -81 -317 17 -71 57 -118 194 -100 294 12 66 43 135 57
130 7 -3 16 -1 20 5 4 6 11 6 20 -2 12 -10 18 -8 29 7 8 10 15 15 15 9 0 -5
15 -10 34 -10 19 0 32 3 30 6 -6 10 21 18 50 15 14 -2 23 0 21 5 -12 18 24 19
66 1z m-6797 -34 c-5 -7 -3 -8 7 -2 8 5 25 10 37 12 17 2 22 -1 16 -10 -6 -10
-5 -10 7 -2 18 15 120 14 111 0 -4 -8 -1 -8 9 0 20 15 79 17 79 3 0 -9 3 -9
14 0 16 14 27 3 51 -54 56 -135 24 -304 -74 -383 -121 -98 -234 -104 -317 -17
-102 105 -96 273 15 423 17 23 36 42 42 42 5 0 7 -5 3 -12z m6271 -1021 c60
-60 57 -142 -5 -184 -41 -28 -75 -29 -118 -3 -38 23 -52 54 -52 116 0 98 105
141 175 71z m-5604 -36 c23 -24 29 -38 29 -75 0 -82 -30 -121 -101 -132 -25
-4 -43 0 -68 18 -63 43 -66 125 -6 185 45 45 103 47 146 4z m-686 -312 c33 -4
166 -13 295 -18 239 -10 370 -27 320 -42 -14 -4 -50 -8 -80 -9 l-55 -1 55 -19
55 -19 -60 5 c-33 4 -80 10 -105 16 -24 5 -128 11 -230 13 -102 3 -209 8 -237
11 -83 9 -65 33 25 35 l47 1 -40 9 c-22 6 -53 14 -70 18 -27 8 -28 9 -5 9 14
0 52 -4 85 -9z m2942 -59 c1 -11 -4 -20 -13 -20 -8 0 -14 -4 -14 -10 0 -13 17
-13 25 0 4 6 11 8 16 5 5 -4 9 1 9 9 0 9 5 16 11 16 6 0 9 -7 6 -15 -4 -8 -2
-17 3 -20 6 -4 10 0 10 8 0 24 26 27 49 6 12 -11 21 -15 21 -9 0 5 10 8 22 6
13 -1 28 4 34 12 8 11 15 12 30 4 10 -6 13 -12 7 -12 -7 0 -13 -5 -13 -11 0
-5 4 -7 10 -4 5 3 18 1 27 -5 16 -11 16 -11 1 -6 -10 3 -20 0 -24 -6 -5 -7 3
-9 24 -6 25 3 32 0 36 -16 4 -13 9 -17 13 -10 12 17 40 13 40 -5 0 -9 -4 -19
-9 -22 -5 -3 -3 -9 6 -12 10 -4 20 1 27 15 6 11 7 18 2 15 -5 -4 -10 0 -10 7
0 11 4 12 19 3 10 -7 17 -18 15 -26 -1 -9 6 -17 17 -19 11 -3 16 0 11 7 -3 6
-11 8 -17 5 -7 -4 -8 -2 -4 5 6 9 11 9 21 1 7 -6 19 -8 27 -5 9 4 14 -2 15
-17 2 -18 0 -20 -7 -8 -8 13 -10 12 -10 -2 0 -10 5 -18 10 -18 6 0 10 -6 10
-14 0 -18 27 -46 43 -45 7 0 2 7 -10 16 -26 17 -30 33 -10 33 23 0 38 -45 21
-61 -12 -12 -9 -14 21 -13 19 1 32 -2 29 -7 -3 -5 -1 -9 4 -9 14 0 1 -58 -14
-64 -8 -3 -14 -1 -14 5 0 6 -5 7 -11 4 -6 -5 -4 -12 8 -21 10 -7 13 -14 7 -14
-6 0 -11 -12 -11 -26 0 -15 -6 -30 -13 -34 -8 -5 -9 -10 -1 -14 6 -4 13 4 17
19 5 20 9 23 20 14 8 -6 12 -15 9 -19 -3 -5 -1 -11 5 -15 5 -3 10 -1 10 4 0 6
4 11 10 11 5 0 7 -7 4 -15 -5 -11 -1 -14 12 -9 15 5 16 4 5 -4 -8 -6 -22 -7
-30 -3 -9 5 -25 5 -36 0 -21 -8 -18 -11 18 -13 12 0 23 -7 23 -13 3 -25 4 -27
16 -15 7 7 16 12 22 12 5 0 1 -6 -10 -14 -16 -13 -21 -13 -35 0 -23 21 -30 17
-19 -10 8 -21 6 -24 -11 -21 -11 2 -17 0 -14 -6 4 -5 0 -9 -7 -9 -10 0 -9 -3
1 -9 12 -8 12 -13 3 -24 -10 -12 -9 -16 2 -20 10 -4 13 -1 10 8 -4 10 0 12 16
8 14 -4 18 -8 10 -13 -8 -5 -4 -9 9 -13 23 -6 39 8 19 16 -8 3 -6 6 5 6 19 1
20 0 11 -23 -4 -11 -15 -14 -37 -10 -53 9 -187 65 -262 108 -87 50 -257 217
-309 304 -43 72 -89 182 -75 182 5 0 9 -8 9 -17 0 -15 2 -16 10 -3 6 10 10 11
10 3 0 -7 5 -13 11 -13 6 0 8 7 5 16 -3 8 -2 12 4 9 5 -3 14 4 20 15 13 25 15
25 17 0z m-2772 -54 c114 -19 269 -59 315 -80 32 -14 1 -15 -420 -10 l-455 5
-42 46 c-24 25 -43 50 -43 55 0 17 535 3 645 -16z m7125 -77 c35 -5 67 -13 70
-15 3 -3 -30 -40 -73 -81 l-79 -75 -66 6 c-37 4 -94 9 -127 12 l-60 4 52 -19
c58 -22 113 -52 113 -62 0 -10 -119 -79 -135 -79 -21 0 -159 65 -228 107 l-61
37 65 14 64 15 -129 24 c-163 30 -177 37 -102 53 94 19 177 30 242 30 34 0 97
7 140 14 149 28 217 31 314 15z m-6500 -199 c95 -13 180 -37 180 -52 0 -6 -3
-9 -6 -5 -3 3 -15 -4 -26 -15 -18 -18 -19 -22 -5 -30 9 -5 14 -15 10 -24 -4
-11 -8 -12 -20 -3 -8 7 -13 8 -11 3 2 -5 1 -11 -2 -13 -11 -8 -317 74 -400
107 -32 13 -16 20 71 31 89 12 123 12 209 1z m3100 -2090 l0 -230 -255 0 -255
0 0 215 c0 164 3 217 13 220 19 7 262 22 385 24 l112 1 0 -230z m435 204 c170
-18 195 -22 195 -37 1 -48 -35 -429 -41 -438 -5 -9 -65 -7 -248 8 -132 11
-244 22 -247 26 -7 6 23 428 31 454 5 14 82 11 310 -13z m-1085 -36 c1 -13 11
-110 24 -216 16 -134 19 -195 12 -197 -23 -7 -489 -55 -493 -52 -2 3 -14 93
-26 202 -15 132 -19 198 -12 201 34 11 417 77 483 83 6 1 12 -9 12 -21z m1547
-43 c155 -37 353 -104 353 -119 0 -16 -88 -407 -92 -412 -2 -2 -69 12 -148 30
-80 19 -189 44 -242 56 -84 18 -98 25 -98 41 0 11 20 110 45 219 25 109 45
201 45 204 0 11 35 6 137 -19z m-2188 -92 c6 -21 30 -107 54 -191 44 -152 44
-154 23 -162 -48 -17 -466 -133 -469 -129 -3 3 -80 277 -105 371 -3 13 11 21
69 39 91 28 389 107 406 108 7 1 17 -16 22 -36z m2826 -147 c117 -62 265 -155
265 -166 0 -4 -19 -10 -42 -14 -37 -6 -62 -26 -222 -180 -100 -95 -196 -181
-214 -190 -31 -16 -35 -16 -58 -1 -14 9 -27 22 -30 30 -5 11 101 516 122 587
5 16 8 17 42 2 20 -8 82 -39 137 -68z m-3430 -8 c116 -498 120 -549 41 -548
-27 1 -61 30 -243 203 -116 111 -213 206 -215 211 -1 4 20 17 47 28 63 26 348
127 357 127 4 1 10 -9 13 -21z m1614 -1218 c21 -149 20 -693 -2 -900 -10 -91
-20 -175 -22 -187 -5 -21 -2 -23 35 -23 22 0 40 3 40 7 0 3 8 74 17 157 25
215 25 786 0 935 -10 61 -13 107 -8 110 14 9 454 -3 503 -13 13 -3 78 -7 146
-10 68 -3 126 -7 130 -10 4 -2 43 -7 87 -10 44 -4 105 -11 135 -16 30 -5 78
-11 105 -14 28 -4 61 -8 75 -10 72 -11 221 -38 260 -46 25 -5 59 -12 75 -14
17 -2 30 -5 30 -6 0 -1 41 -10 90 -21 50 -10 99 -21 110 -23 11 -3 39 -8 63
-12 23 -4 42 -10 42 -15 0 -4 8 -7 18 -7 28 1 86 -12 96 -23 6 -5 19 -9 31 -9
34 0 432 -123 447 -138 6 -6 -46 -65 -136 -156 -79 -80 -147 -146 -150 -146
-4 0 -22 -16 -40 -35 -19 -19 -37 -35 -41 -35 -3 0 -16 -9 -28 -21 -12 -12
-38 -33 -57 -48 -19 -14 -40 -31 -46 -36 -6 -6 -37 -28 -70 -50 -32 -22 -61
-42 -64 -45 -3 -3 -22 -18 -44 -34 l-38 -29 113 -113 113 -113 -89 -41 c-76
-35 -276 -111 -352 -135 -24 -7 -32 12 -14 30 9 9 -18 178 -30 190 -9 8 -99
-59 -99 -75 0 -8 7 -42 15 -75 25 -105 30 -98 -100 -129 -189 -44 -378 -73
-382 -59 -4 10 -10 10 -31 -1 -69 -34 -306 -54 -714 -62 -605 -11 -1127 48
-1638 188 -80 22 -149 43 -153 48 -5 4 -3 26 4 49 l12 42 -43 44 c-24 24 -47
42 -51 39 -4 -2 -13 -29 -20 -58 -6 -30 -15 -60 -19 -66 -12 -20 -316 106
-379 157 l-25 20 37 45 c20 25 63 69 94 98 l57 53 -25 19 c-35 28 -129 110
-154 133 -24 22 -152 136 -204 181 -39 33 -305 298 -369 367 -31 33 -39 47
-28 48 17 2 34 5 39 8 1 1 18 4 37 6 33 3 64 8 120 19 14 3 48 7 75 10 28 3
88 11 135 16 47 6 112 13 145 16 98 8 145 13 153 17 4 3 57 8 117 11 61 4 162
11 225 16 63 6 147 12 185 14 39 2 102 7 140 11 39 3 97 8 130 10 33 3 94 7
135 11 41 3 95 7 120 8 25 1 51 5 58 9 7 5 12 3 12 -3 0 -6 4 -9 9 -6 12 8
261 21 570 31 96 3 176 7 178 9 1 1 22 0 45 -3 l43 -6 14 -95z m-4246 -92 l66
-128 -27 -14 c-73 -38 -371 -170 -482 -214 -142 -56 -271 -95 -281 -84 -3 4
-14 39 -23 77 -9 39 -19 77 -22 86 -3 12 8 21 43 34 27 10 111 47 187 82 77
34 174 72 215 84 173 47 166 42 179 107 14 67 37 104 62 100 11 -2 41 -49 83
-130z m212 -378 c0 -7 -25 -23 -55 -36 -30 -13 -163 -69 -295 -125 -397 -168
-498 -208 -507 -203 -4 3 -8 13 -8 23 0 13 21 24 93 45 125 37 322 116 557
224 107 50 200 89 205 88 6 -2 10 -9 10 -16z m3726 -2029 c16 -16 29 -36 29
-44 0 -11 24 -16 113 -22 115 -7 137 -14 137 -45 0 -35 -21 -39 -140 -30 -112
8 -115 8 -143 -16 -20 -17 -41 -24 -69 -24 -34 0 -46 6 -75 36 -30 32 -43 38
-116 51 -113 19 -153 49 -112 83 11 9 35 8 112 -7 l98 -19 31 33 c42 44 93 46
135 4z"/>
<path d="M11830 19076 c0 -2 18 -36 40 -74 165 -286 247 -707 211 -1081 -6
-63 -9 -116 -8 -118 2 -1 38 4 81 12 175 34 380 29 557 -13 l76 -18 12 184
c25 386 108 713 247 971 25 46 43 85 41 87 -2 2 -21 -3 -43 -12 -220 -92 -551
-123 -798 -74 -114 22 -265 69 -329 102 -45 23 -87 39 -87 34z"/>
<path d="M4980 18797 c-118 -51 -182 -92 -258 -162 -113 -105 -171 -207 -192
-340 -11 -70 3 -195 22 -195 12 0 62 53 99 107 l30 43 -22 29 c-39 53 -23 86
93 193 56 51 126 126 156 167 30 41 79 97 108 126 79 77 75 80 -36 32z"/>
<path d="M19325 18620 c-55 -10 -161 -30 -235 -44 -231 -43 -488 -86 -515 -86
-15 0 -40 -9 -56 -21 -24 -17 -40 -19 -96 -16 -58 4 -202 -8 -211 -18 -1 -1 5
-19 14 -39 20 -41 25 -42 127 -22 40 8 133 22 207 31 74 10 223 32 331 50 200
33 287 61 490 154 75 35 74 35 -56 11z"/>
<path d="M5045 18080 c-77 -33 -180 -71 -230 -85 -91 -26 -155 -60 -155 -82 0
-30 189 -163 233 -163 23 0 130 121 177 201 23 39 61 92 86 120 41 47 54 70
37 68 -5 0 -71 -27 -148 -59z"/>
<path d="M18216 16758 c10 -295 15 -476 15 -503 -1 -42 -19 -73 -50 -83 -38
-13 -67 2 -82 42 -15 41 -24 46 -26 14 -4 -47 -15 -95 -43 -178 -15 -47 -38
-134 -50 -195 -12 -60 -29 -122 -36 -137 -14 -26 -13 -28 7 -28 21 0 21 -1 6
-18 -54 -59 39 -78 228 -47 152 25 240 85 171 116 -23 11 -18 15 83 65 268
134 417 371 380 605 -21 134 -119 274 -251 359 -51 34 -88 49 -88 37 0 -1 13
-34 30 -72 35 -83 37 -114 10 -143 -58 -62 -100 -33 -180 121 -67 129 -87 157
-110 157 -17 0 -18 -8 -14 -112z"/>
<path d="M15725 11178 c-458 -798 -1069 -1435 -1480 -1542 -116 -31 -339 -102
-375 -121 -62 -32 -171 -128 -208 -185 -52 -77 -78 -147 -108 -289 -14 -63
-30 -121 -36 -128 -16 -20 -40 -16 -34 5 5 15 0 18 -30 17 -24 -1 -42 -9 -51
-21 -8 -10 -16 -18 -18 -17 -10 5 -74 -31 -69 -39 3 -4 0 -8 -7 -8 -7 0 -27
-11 -45 -25 -18 -14 -37 -25 -41 -25 -12 0 -96 -61 -106 -77 -4 -7 -15 -9 -24
-6 -10 4 -14 2 -10 -4 3 -5 -22 -24 -56 -41 -34 -18 -57 -32 -52 -32 6 0 2 -5
-7 -11 -14 -8 -18 -23 -18 -69 0 -32 -3 -61 -7 -63 -5 -3 -41 -8 -82 -12 l-74
-7 20 28 c25 37 35 64 23 64 -5 0 -12 -5 -15 -10 -4 -6 -15 -8 -26 -5 -10 4
-19 3 -19 -2 0 -5 -14 -10 -32 -11 -37 -3 -58 -18 -58 -42 0 -16 -21 -18 -257
-22 -170 -3 -260 -1 -265 6 -4 6 -12 5 -22 -3 -9 -8 -16 -9 -16 -3 0 19 30 36
42 24 8 -8 16 -6 29 10 21 24 17 38 -12 38 -11 0 -18 3 -16 8 3 4 -17 7 -43 7
-27 0 -52 -3 -56 -7 -12 -13 -27 -9 -21 5 3 9 -11 18 -42 27 -34 11 -40 15
-23 18 24 4 31 22 8 22 -8 0 -17 7 -20 16 -4 9 -13 14 -21 10 -14 -5 -20 5
-16 27 1 4 -11 6 -26 4 -16 -3 -27 -10 -26 -16 2 -6 -6 -11 -17 -11 -24 0 -24
-2 -4 67 9 30 14 56 12 57 -1 2 -54 7 -117 12 -104 9 -115 8 -135 -9 -53 -47
-110 -44 -153 7 -25 28 -39 34 -123 50 -52 10 -100 22 -107 28 -9 7 -14 3 -18
-14 -21 -93 -75 -355 -75 -365 0 -7 11 -13 24 -13 13 0 59 -7 102 -16 75 -16
78 -16 93 4 42 52 108 56 154 10 l32 -32 -40 -7 c-22 -4 -67 -9 -100 -13 -33
-3 -90 -13 -127 -22 l-68 -16 -88 89 c-107 109 -145 128 -248 118 -135 -12
-338 -17 -400 -10 -53 5 -64 10 -64 25 0 15 -6 18 -37 13 -130 -18 -232 4
-395 86 -93 46 -93 46 -126 114 -22 45 -39 102 -52 175 -26 150 -55 261 -101
379 -73 187 -156 283 -296 344 -315 137 -744 398 -979 596 -28 24 -54 43 -57
43 -4 0 -20 -29 -36 -64 -32 -71 -79 -145 -121 -191 l-28 -30 70 -160 c38 -88
87 -209 109 -269 181 -491 154 -1072 -71 -1545 -81 -169 -192 -304 -289 -353
-25 -13 -47 -23 -48 -24 -2 0 -9 -38 -18 -85 -39 -223 -152 -434 -329 -613
-157 -159 -287 -230 -476 -260 -33 -6 -37 -11 -55 -62 -85 -251 -400 -503
-745 -597 -260 -71 -470 -44 -657 85 l-42 29 -38 -24 c-114 -69 -299 -138
-423 -158 -171 -26 -393 21 -585 126 -211 114 -315 196 -575 450 -182 178
-201 191 -241 175 -18 -8 -49 -10 -80 -7 -45 6 -69 16 -159 68 -110 63 -238
187 -358 346 -26 34 -52 64 -58 67 -24 10 113 -221 194 -329 76 -100 282 -345
290 -345 5 0 17 -8 28 -18 10 -10 35 -28 54 -42 19 -13 37 -27 40 -30 11 -13
300 -200 309 -200 5 0 11 -4 13 -8 4 -11 279 -165 403 -225 22 -11 51 -26 65
-34 14 -7 41 -21 60 -30 19 -9 71 -33 115 -54 45 -21 93 -41 108 -44 15 -4 30
-11 33 -16 3 -5 11 -9 18 -9 8 0 31 -8 52 -17 22 -9 41 -17 44 -18 3 -1 17 -7
33 -13 15 -7 39 -17 55 -24 15 -6 29 -12 32 -13 15 -5 49 -19 77 -31 17 -8 33
-14 37 -14 3 0 47 -20 98 -44 222 -105 697 -279 826 -302 14 -3 31 -9 37 -13
5 -5 21 -11 35 -13 14 -3 68 -17 120 -31 274 -74 591 -123 920 -141 52 -3 118
-9 145 -12 28 -4 62 -7 78 -8 15 -1 27 -3 27 -6 0 -3 12 -5 28 -6 15 0 45 -4
67 -8 22 -4 60 -9 85 -11 50 -6 104 -13 140 -20 13 -3 71 -7 129 -10 57 -3
107 -8 111 -10 4 -2 49 -7 101 -10 52 -4 101 -9 109 -12 8 -2 157 -7 330 -9
173 -3 320 -7 327 -9 7 -2 15 0 17 4 3 5 25 5 48 1 24 -5 45 -8 47 -9 2 0 50
-105 107 -233 115 -256 184 -477 184 -582 0 -31 7 -73 15 -93 8 -20 14 -37 13
-38 -2 -1 -39 -24 -83 -50 -44 -26 -96 -62 -116 -79 -20 -17 -59 -51 -88 -76
-65 -55 -152 -186 -174 -260 -9 -30 -17 -85 -19 -121 -3 -65 -2 -66 37 -102
58 -54 108 -75 224 -94 89 -14 113 -15 179 -4 167 28 483 127 743 234 165 67
458 243 534 320 118 121 125 154 61 325 -57 154 -68 174 -99 191 l-25 13 5
182 c6 202 -8 341 -54 526 -31 128 -32 132 -13 136 40 8 64 14 166 43 60 18
123 38 139 45 17 8 48 19 70 26 45 14 45 14 170 66 115 47 185 72 365 129 80
26 176 60 214 76 37 16 76 29 86 29 10 0 20 4 22 10 2 5 12 11 23 13 11 2 30
9 43 15 12 7 22 9 22 5 0 -4 20 -145 44 -313 25 -168 50 -361 56 -430 l12
-125 -80 -400 c-45 -220 -110 -542 -145 -715 -74 -357 -121 -612 -139 -749
-11 -85 -16 -101 -54 -155 -62 -92 -77 -125 -89 -202 -11 -65 -10 -74 6 -95
10 -13 19 -28 19 -32 0 -4 5 -13 10 -20 20 -23 59 -82 90 -137 53 -90 98 -149
204 -265 160 -176 510 -520 584 -574 18 -14 46 -37 62 -52 68 -66 239 -128
350 -129 70 0 189 46 227 89 18 20 32 40 33 45 0 5 7 17 15 26 11 12 15 48 17
151 2 115 -1 143 -19 195 -27 77 -60 143 -108 214 -20 30 -43 66 -50 80 -7 14
-43 63 -79 108 -40 52 -71 104 -81 135 -9 29 -25 70 -35 92 -10 23 -23 59 -29
80 -6 22 -15 46 -20 54 -15 23 41 163 171 436 153 321 242 540 308 763 11 40
30 87 40 105 145 247 242 978 257 1933 l6 402 61 7 c114 13 441 76 518 100 42
13 109 27 148 31 39 3 73 10 75 14 4 7 -38 25 -119 50 -22 7 -53 21 -70 31
-55 32 -299 103 -529 154 -28 6 -28 6 30 50 32 24 66 51 76 59 10 9 39 33 64
52 204 155 504 442 673 644 30 36 62 72 70 80 9 8 26 30 39 47 12 18 44 59 72
90 27 32 49 63 49 70 0 6 3 13 8 15 4 2 27 30 51 63 25 33 49 63 55 67 6 4 8
8 3 8 -4 0 13 28 36 63 63 89 182 299 266 467 39 80 111 222 159 315 121 235
250 529 328 748 34 94 125 368 129 387 2 8 15 53 28 100 48 164 105 376 122
455 9 44 19 86 21 93 9 28 72 360 78 407 4 28 9 61 11 75 13 66 38 340 33 346
-3 2 -44 -64 -93 -148z m-5790 -2908 c178 -56 288 -89 370 -111 112 -30 110
-28 106 -83 -2 -33 1 -46 8 -42 7 5 11 -12 10 -51 0 -32 -3 -52 -6 -45 -2 6
-9 9 -14 6 -6 -4 -6 -10 0 -18 6 -7 15 -45 22 -85 10 -67 31 -111 52 -111 9 0
4 29 -9 64 -5 12 -2 15 10 10 9 -3 16 -1 16 5 0 6 -4 11 -10 11 -5 0 -10 5
-10 11 0 8 5 7 15 -1 9 -7 14 -19 11 -27 -3 -7 -2 -13 2 -13 5 0 19 -24 32
-52 43 -98 69 -195 130 -488 31 -149 87 -365 101 -392 8 -14 3 -19 -28 -27
-191 -51 -490 -32 -705 45 -105 38 -258 118 -346 182 -225 163 -223 163 -567
207 -66 8 -140 22 -165 30 -90 30 -159 114 -160 193 0 35 -43 0 490 395 168
125 341 263 444 355 43 39 83 69 90 67 6 -2 56 -18 111 -35z m3625 -327 c59
-65 157 -162 217 -215 83 -73 130 -124 188 -205 75 -106 76 -108 53 -117 -243
-101 -453 -223 -633 -371 l-80 -65 -203 0 -203 0 -62 -53 c-117 -99 -153 -119
-197 -112 -22 4 -42 11 -46 16 -3 5 -13 9 -23 9 -10 0 -49 15 -87 34 -38 19
-79 37 -91 41 -13 3 -23 11 -23 16 0 5 -8 9 -17 9 -10 0 -38 16 -63 35 -25 19
-49 38 -55 42 -5 5 -35 24 -65 44 -30 20 -86 65 -125 99 -82 75 -70 62 -165
170 -41 47 -78 87 -81 90 -3 3 -23 24 -44 48 -30 33 -36 45 -25 52 7 4 19 6
26 3 8 -3 21 2 29 11 19 19 35 21 35 5 0 -8 6 -7 17 2 11 10 14 10 9 2 -5 -9
1 -13 18 -13 14 0 26 4 26 8 0 5 -28 50 -62 102 l-62 93 28 82 c16 46 25 88
22 94 -4 6 -2 11 4 11 7 0 10 6 7 14 -8 21 14 26 85 18 79 -9 340 -8 568 1
157 6 225 13 340 32 19 3 49 7 65 9 17 2 41 6 55 9 14 3 48 9 77 12 28 2 63 9
76 14 14 5 28 7 31 4 3 -3 11 -2 18 4 7 5 29 10 48 11 45 3 125 19 174 36 54
19 69 9 196 -131z m-2159 -793 c32 -41 58 -78 59 -82 0 -3 -9 -4 -20 -1 -12 3
-31 -5 -51 -21 -47 -40 -102 -36 -145 10 -22 22 -46 38 -67 40 -50 7 -53 10
-75 53 -24 46 -25 46 62 30 l62 -12 32 32 c49 50 74 41 143 -49z m194 -250 c3
-11 10 -20 15 -20 4 0 32 -30 62 -67 30 -38 73 -85 94 -106 l39 -39 -62 7
c-34 4 -85 12 -115 19 l-53 11 -3 108 c-2 64 1 107 7 107 5 0 13 -9 16 -20z"/>
<path d="M5609 9576 c-2 -3 -63 -10 -134 -17 -72 -6 -138 -16 -149 -21 -13 -7
-16 -7 -12 1 5 8 -18 11 -76 11 -46 0 -111 5 -145 10 -54 9 -69 8 -120 -11
-32 -12 -63 -26 -69 -30 -6 -5 -14 -6 -18 -2 -4 4 -4 0 -1 -9 4 -9 1 -19 -6
-24 -8 -5 -10 -3 -4 7 8 12 6 12 -8 0 -18 -14 -22 -22 -9 -20 26 4 41 -3 36
-16 -4 -8 -1 -15 4 -15 6 0 9 12 6 26 -3 16 -1 23 6 19 5 -3 10 -13 10 -22 0
-9 8 -22 18 -30 10 -8 11 -11 2 -7 -13 7 -13 6 -1 -10 13 -15 13 -19 0 -27
-12 -7 -11 -9 3 -9 9 0 20 -5 24 -12 4 -7 3 -8 -4 -4 -8 5 -11 1 -9 -11 4 -29
18 -45 33 -39 9 3 14 0 13 -7 -3 -16 17 -63 25 -59 15 6 18 1 6 -13 -17 -20
-6 -19 15 1 14 15 15 14 11 -8 -5 -29 8 -56 18 -39 4 6 2 11 -5 11 -7 0 -9 3
-6 7 4 3 16 -3 27 -15 12 -12 16 -22 11 -22 -6 0 1 -11 15 -25 14 -14 29 -25
35 -25 6 0 7 -5 4 -10 -3 -6 1 -13 10 -16 12 -5 13 -9 4 -20 -9 -12 -9 -13 4
-9 8 4 18 1 23 -6 4 -8 3 -10 -4 -5 -14 8 -16 -13 -3 -33 7 -11 11 -10 21 5 8
14 10 14 7 3 -9 -27 21 -61 46 -54 18 5 19 4 7 -5 -11 -9 -12 -13 -2 -17 6 -2
10 -8 8 -12 -3 -4 5 -7 17 -6 34 3 42 -3 45 -32 1 -15 7 -32 14 -38 8 -7 9 -7
4 2 -3 6 0 10 9 9 18 -3 47 -41 38 -50 -3 -3 0 -6 7 -6 7 0 11 -3 7 -6 -9 -10
17 -32 31 -27 7 3 12 2 11 -3 -4 -21 2 -35 11 -29 6 4 8 10 6 14 -3 4 1 8 9 8
12 0 12 -3 2 -15 -9 -12 -9 -16 1 -19 6 -3 10 -9 6 -14 -3 -5 -2 -9 3 -8 17 3
53 -14 47 -22 -3 -5 1 -9 8 -9 8 -1 6 -6 -6 -15 -15 -11 -16 -15 -5 -15 8 0
20 5 26 11 8 8 11 7 10 -2 -1 -39 3 -46 27 -42 18 4 26 0 31 -17 6 -18 9 -19
23 -8 12 10 14 10 8 0 -4 -7 -1 -19 8 -27 8 -9 12 -23 9 -31 -5 -14 -1 -15 25
-9 25 5 32 3 32 -9 0 -9 5 -16 11 -16 5 0 7 6 3 13 -5 8 -2 8 9 -2 19 -15 23
-26 5 -15 -7 4 -8 3 -4 -4 4 -6 14 -8 22 -5 13 5 15 1 9 -18 -4 -13 -4 -21 0
-17 9 8 35 -16 35 -33 0 -8 3 -9 13 0 17 13 28 5 20 -15 -4 -10 0 -12 10 -8
12 4 15 1 12 -16 -3 -18 -2 -20 10 -10 11 9 19 5 41 -20 15 -17 33 -29 39 -26
7 2 18 0 26 -5 12 -7 12 -9 -1 -9 -13 0 -13 -1 0 -10 8 -5 15 -17 15 -27 0
-12 8 -18 22 -18 12 0 25 -3 29 -7 4 -5 16 -8 26 -8 11 0 17 -4 14 -9 -3 -5 1
-12 10 -15 8 -3 12 -11 9 -16 -4 -7 3 -8 21 -4 23 6 26 4 21 -10 -4 -10 -1
-16 8 -16 8 0 22 -11 31 -26 10 -14 23 -23 31 -20 8 3 11 1 8 -4 -3 -6 -1 -10
4 -10 6 0 11 -7 11 -15 0 -8 6 -15 14 -15 8 0 21 -6 28 -13 23 -22 67 -47 82
-47 9 0 13 -6 10 -14 -4 -11 0 -13 15 -9 16 4 20 2 15 -10 -8 -23 6 -43 17
-26 7 11 10 9 15 -8 4 -13 14 -23 24 -23 12 0 21 -10 25 -30 4 -17 11 -27 16
-24 6 3 5 12 -3 22 -11 15 -11 15 2 6 8 -6 23 -10 33 -9 10 2 16 -2 14 -8 -3
-7 -10 -11 -16 -9 -7 1 -10 -1 -7 -6 13 -21 -275 -139 -442 -182 -139 -36
-341 -50 -426 -30 l-40 9 40 -35 c78 -68 86 -74 95 -74 5 0 9 -4 9 -10 0 -5 7
-10 15 -10 9 0 18 -7 21 -15 4 -8 10 -15 15 -15 5 0 17 -7 26 -15 10 -8 21
-14 25 -13 3 2 16 -9 27 -23 11 -15 33 -30 48 -34 16 -3 36 -14 45 -22 10 -8
24 -13 33 -9 9 3 14 2 11 -3 -3 -4 12 -14 34 -21 22 -7 37 -16 35 -20 -2 -4 1
-7 8 -7 7 0 21 -4 32 -8 16 -5 17 -5 5 4 -13 9 -13 11 2 11 9 0 18 -5 20 -12
2 -6 13 -12 24 -13 17 -1 19 6 20 59 1 34 8 77 16 96 15 34 141 185 272 325
l66 70 23 -27 c12 -16 30 -28 38 -28 8 0 25 -9 36 -19 16 -15 23 -17 33 -8 10
9 11 9 6 -1 -4 -7 -2 -19 4 -27 7 -8 9 -15 5 -15 -5 0 -1 -8 8 -18 10 -10 14
-22 10 -26 -4 -4 0 -4 10 -1 15 6 15 9 2 22 -9 8 -12 19 -9 25 7 11 34 -17 34
-35 0 -5 9 -18 21 -28 12 -10 18 -24 14 -31 -4 -7 2 -4 12 7 10 11 32 21 48
22 17 0 22 -1 12 -4 -10 -3 -14 -9 -10 -16 4 -7 -1 -6 -10 2 -15 12 -17 12
-11 -3 3 -9 16 -21 27 -27 17 -10 19 -9 13 7 -7 17 -6 17 14 -1 21 -19 27 -30
10 -20 -15 9 -12 -4 5 -21 12 -12 15 -12 15 -2 1 9 5 8 14 -4 8 -11 20 -15 36
-11 19 5 22 3 17 -10 -3 -9 -2 -19 4 -22 5 -4 7 -10 4 -15 -3 -4 2 -10 10 -14
8 -3 15 -1 15 4 0 6 7 10 16 10 38 0 359 360 382 430 2 5 -20 -1 -50 -14 -213
-94 -387 -79 -447 37 -48 94 -40 250 24 438 l32 96 -56 -34 c-85 -52 -226
-118 -321 -149 -73 -25 -101 -29 -195 -29 -98 0 -116 3 -166 26 -69 32 -96 73
-111 165 -19 113 14 224 103 342 22 28 35 52 30 52 -6 0 -45 -11 -88 -26 -212
-69 -377 -99 -490 -89 -135 13 -181 29 -269 96 -28 22 -55 39 -61 39 -5 0 -21
13 -36 28 -57 59 -58 224 -3 290 13 15 33 46 45 70 12 23 72 92 134 152 61 60
109 110 106 110 -3 0 -8 -2 -10 -4z"/>
<path d="M5585 8204 c-107 -26 -238 -42 -338 -40 -53 0 -93 0 -87 -2 5 -2 10
-8 10 -14 0 -5 7 -16 15 -24 8 -9 15 -12 15 -8 0 4 9 -1 20 -11 11 -10 20 -24
20 -32 0 -7 7 -13 15 -13 8 0 21 -13 30 -30 9 -16 22 -30 31 -30 8 0 13 -4 10
-8 -6 -10 30 -52 45 -52 6 0 8 -4 5 -9 -3 -5 1 -12 10 -15 8 -3 12 -11 8 -17
-4 -7 -3 -9 4 -6 5 4 22 -7 36 -24 14 -17 26 -27 26 -23 0 5 5 3 12 -4 21 -21
23 -14 23 66 1 65 6 87 32 142 16 36 53 89 81 118 28 28 48 52 44 51 -4 0 -34
-7 -67 -15z"/>
<path d="M17881 8110 c-6 -18 -11 -61 -11 -96 0 -133 -52 -307 -164 -548 -46
-100 -96 -214 -110 -255 -15 -41 -48 -104 -73 -140 -25 -36 -58 -93 -73 -127
-62 -137 -111 -180 -145 -128 -21 32 -86 64 -130 64 -20 0 -57 -6 -83 -14 -26
-8 -130 -33 -232 -56 -263 -60 -509 -138 -553 -177 -28 -25 -57 -92 -57 -133
0 -45 36 -108 77 -136 l31 -21 -62 -22 c-126 -45 -178 -148 -126 -251 11 -22
29 -44 40 -50 21 -11 27 -30 9 -30 -21 0 -155 -63 -177 -84 -75 -68 -70 -197
10 -258 l23 -17 -55 -24 c-85 -38 -130 -96 -130 -168 0 -39 22 -91 51 -117 27
-25 29 -22 -42 -54 -88 -40 -132 -116 -114 -198 9 -39 60 -99 100 -116 l30
-12 -45 -20 c-86 -37 -131 -115 -116 -198 10 -50 69 -112 122 -126 l43 -12
-38 -17 c-68 -30 -110 -111 -97 -184 8 -42 63 -107 105 -125 28 -11 28 -13 15
-38 -31 -59 -10 -137 49 -189 51 -45 105 -51 215 -25 77 18 176 34 297 47 l40
4 -35 -16 c-19 -9 -84 -41 -143 -70 -60 -29 -121 -53 -136 -53 -68 0 -138 -42
-175 -105 -14 -22 -45 -60 -71 -84 -50 -47 -53 -61 -7 -39 l29 15 -19 -61
c-10 -33 -18 -72 -16 -86 3 -24 4 -23 26 14 l23 39 22 -31 c30 -42 86 -72 135
-72 23 0 45 -6 52 -15 17 -21 53 -19 100 5 43 22 48 34 25 60 -14 15 -7 21 77
68 51 28 182 90 291 138 109 47 213 97 231 109 l33 22 -24 -42 c-26 -48 -43
-145 -25 -145 6 0 26 18 43 40 18 22 36 40 39 40 23 0 36 -290 16 -346 -19
-57 -5 -384 22 -474 l19 -65 6 40 c4 22 11 112 17 199 6 87 15 177 20 200 5
23 10 71 10 109 l0 67 29 0 c43 0 45 13 6 34 -38 21 -45 38 -45 120 0 51 2 57
18 51 27 -11 132 -19 132 -10 0 16 -113 110 -138 115 -23 4 -27 13 -38 70 -7
36 -13 81 -13 100 l-1 35 20 -42 c10 -24 24 -43 30 -43 6 0 9 4 5 9 -3 5 -9
30 -14 56 -8 45 -8 46 13 32 11 -8 30 -38 41 -68 11 -32 36 -70 60 -94 22 -22
53 -58 69 -80 68 -92 236 -297 315 -384 97 -107 147 -137 210 -126 52 9 98 39
123 81 17 29 25 34 45 29 56 -14 147 35 178 96 8 15 15 49 15 74 0 76 -41 130
-134 177 -22 11 -83 45 -135 76 l-94 55 34 14 c65 27 109 90 109 155 0 43 -33
100 -85 146 l-46 40 32 23 c35 24 68 89 69 132 0 40 -32 98 -79 140 -23 20
-41 39 -41 41 0 2 14 6 31 10 41 8 94 63 109 113 19 61 6 104 -46 162 -25 28
-39 48 -30 45 28 -11 106 17 141 50 74 70 69 165 -14 247 l-46 47 53 4 c85 7
141 62 150 146 3 34 -1 60 -12 83 -9 17 -16 33 -16 35 0 2 18 8 41 14 88 24
147 114 129 196 -8 33 -56 114 -69 114 -3 1 -24 16 -46 35 l-40 34 46 -16
c139 -50 261 102 193 239 -8 15 -73 78 -146 141 -73 63 -215 198 -315 300
-100 102 -191 191 -203 197 -12 6 -42 12 -67 13 l-45 2 5 50 c2 28 23 102 46
165 23 63 53 160 67 214 16 67 31 108 48 125 13 15 26 45 30 69 4 24 20 69 35
101 16 31 46 104 66 162 35 98 38 113 42 254 4 117 2 157 -10 184 l-14 33 -12
-32z m-478 -1723 c-22 -14 -53 -84 -53 -122 0 -45 19 -90 54 -133 l28 -32 -27
10 c-38 15 -92 12 -126 -6 -17 -8 -32 -14 -34 -12 -1 2 32 80 73 175 68 152
77 169 87 150 9 -17 8 -24 -2 -30z m-531 -1814 c5 -26 13 -71 17 -99 l7 -50
-55 0 c-31 1 -92 -3 -136 -7 -181 -18 -317 -28 -321 -24 -2 2 42 15 99 30 189
50 232 63 274 85 46 24 93 78 93 107 0 31 12 8 22 -42z"/>
<path d="M3984 7895 c10 -8 22 -12 27 -10 4 3 11 0 15 -6 5 -8 -1 -10 -19 -7
-15 3 -24 1 -21 -3 3 -5 -1 -9 -8 -9 -10 0 -9 -3 2 -11 12 -9 11 -10 -6 -6
-13 3 -21 -1 -21 -10 0 -8 7 -12 16 -8 11 3 10 0 -3 -10 -11 -8 -23 -15 -27
-15 -4 0 -10 -11 -13 -25 -4 -14 -11 -25 -16 -25 -6 0 -3 -11 6 -25 16 -24 16
-25 -1 -18 -15 5 -17 2 -13 -15 4 -13 2 -19 -6 -16 -7 3 -21 -5 -32 -17 -10
-13 -14 -19 -8 -16 14 8 27 -20 14 -28 -6 -4 -10 -11 -10 -16 0 -6 5 -7 10 -4
6 3 10 2 10 -3 0 -5 -11 -15 -25 -22 -22 -12 -23 -15 -10 -23 8 -4 13 -13 10
-18 -4 -5 -12 -6 -18 -2 -9 5 -9 3 -1 -8 6 -8 10 -22 9 -31 -2 -10 0 -20 5
-23 4 -2 6 9 5 25 -1 17 2 27 7 24 6 -4 8 -22 6 -40 -2 -19 0 -34 5 -34 5 0 4
-7 -3 -15 -10 -12 -9 -15 4 -15 10 0 15 -4 11 -9 -3 -5 -1 -12 5 -16 11 -7 43
-73 44 -90 1 -5 6 -15 12 -22 15 -16 190 -134 249 -168 28 -16 52 -32 55 -35
14 -18 287 -143 369 -170 52 -16 95 -30 97 -30 1 0 -5 15 -14 33 -21 41 -28
159 -12 216 14 54 81 128 139 153 24 11 39 23 35 28 -5 4 -59 12 -120 19 -196
20 -296 60 -331 131 -25 50 -29 177 -9 236 8 26 13 51 10 55 -3 5 0 8 7 7 6
-2 12 6 13 17 2 14 -4 21 -15 21 -10 0 -15 -5 -12 -11 4 -5 -3 -2 -14 8 -11 9
-35 17 -54 17 -62 1 -213 39 -279 72 -71 35 -108 46 -76 23z"/>
<path d="M15295 4549 c-14 -22 7 -59 57 -102 65 -54 148 -110 154 -104 2 2
-26 46 -62 98 -36 51 -68 99 -71 106 -6 16 -69 17 -78 2z"/>
<path d="M6038 4482 c-31 -4 -58 -35 -58 -68 0 -68 99 -95 146 -41 30 36 30
52 -1 81 -29 27 -48 33 -87 28z"/>
<path d="M19120 4055 c-52 -7 -135 -14 -185 -16 -98 -2 -141 -11 -164 -33 -12
-12 -12 -18 -1 -30 18 -22 61 -20 165 10 50 14 101 27 115 30 72 15 200 47
200 50 0 6 -22 4 -130 -11z"/>
<path d="M14752 3833 c-26 -46 36 -86 202 -128 103 -27 132 -27 75 -1 -19 8
-76 45 -127 81 -94 66 -133 79 -150 48z"/>
<path d="M16667 3684 c-4 -4 -2 -13 4 -20 22 -26 -62 -128 -116 -143 -22 -5
-32 -17 -42 -48 -12 -34 -22 -44 -54 -57 -23 -9 -44 -27 -51 -41 -8 -17 -19
-25 -36 -25 -39 0 -108 -37 -144 -78 l-32 -37 43 -3 c36 -3 41 -6 30 -18 -6
-8 -20 -14 -30 -14 -10 0 -30 -18 -46 -42 -15 -23 -73 -80 -128 -126 -134
-113 -338 -312 -464 -452 -213 -238 -196 -237 40 4 206 211 430 422 476 449 7
5 3 -13 -8 -39 -23 -52 -19 -131 7 -141 24 -9 71 17 135 73 48 43 67 54 94 54
31 0 35 -3 35 -26 0 -27 6 -28 52 -9 15 6 16 3 8 -27 -25 -84 -14 -84 68 -1
42 43 101 99 130 125 54 49 66 84 42 128 -9 17 -7 18 21 10 51 -15 122 -53
145 -77 12 -13 28 -21 36 -18 23 9 50 63 43 86 -9 27 -56 22 -71 -8 l-11 -23
-49 31 c-84 53 -103 75 -94 112 12 53 29 76 73 97 23 12 35 15 27 8 -48 -42
-45 -45 54 -46 97 -2 114 6 100 42 -6 16 -47 36 -74 36 -17 0 -20 7 -20 44 0
43 2 45 45 66 47 23 54 43 18 48 -15 2 -22 13 -27 43 -5 30 -12 42 -32 49 -33
13 -94 13 -94 0 0 -16 -72 -12 -84 6 -6 8 -15 12 -19 8z"/>
<path d="M4690 3643 c-26 -10 -51 -37 -70 -73 -16 -32 -23 -69 -35 -183 -5
-43 -14 -64 -24 -50 -3 5 -17 17 -31 26 -64 44 -170 -5 -185 -85 -6 -30 -12
-33 -38 -19 -59 31 -124 14 -160 -43 -15 -24 -27 -49 -27 -55 0 -7 -17 1 -37
18 -63 52 -151 33 -189 -40 l-16 -32 -15 31 c-23 48 -57 65 -116 59 -54 -5
-79 -26 -111 -92 l-15 -29 -6 27 c-19 75 -130 104 -185 49 l-28 -29 -11 24
c-14 30 -68 63 -104 63 -56 0 -93 -27 -121 -88 -14 -31 -26 -49 -26 -38 0 31
-38 83 -70 96 -34 14 -91 8 -124 -14 -21 -13 -65 -107 -119 -256 -23 -61 -90
-208 -143 -311 -26 -50 -30 -80 -14 -109 8 -14 5 -20 -18 -28 -21 -9 -319 -18
-407 -13 -49 2 -186 4 -247 3 -80 -2 -239 -50 -284 -87 l-29 -24 26 -1 c15 0
46 7 70 16 24 8 67 19 94 22 110 15 558 -1 640 -23 28 -7 84 -16 127 -20 66
-6 77 -9 81 -27 3 -12 0 -33 -8 -47 -23 -46 -11 -83 64 -195 39 -59 71 -111
71 -116 0 -5 4 -10 8 -12 5 -1 34 -39 65 -83 31 -45 84 -111 119 -148 59 -63
66 -67 107 -67 57 0 108 36 117 84 l6 34 48 -49 c42 -43 53 -49 90 -49 62 0
119 39 120 83 0 23 17 22 25 -3 3 -10 27 -37 52 -60 36 -32 54 -40 84 -40 57
0 85 15 112 61 23 39 26 40 36 21 17 -33 74 -62 120 -62 35 0 47 6 80 40 l38
39 24 -25 c23 -25 54 -42 90 -49 24 -5 94 30 113 56 9 13 16 34 16 46 0 13 5
23 10 23 6 0 10 -4 10 -10 0 -5 18 -19 41 -30 39 -20 80 -22 119 -6 25 10 61
72 62 105 l1 30 29 -21 c39 -27 117 -21 153 12 25 24 49 86 39 102 -3 4 10 6
29 4 25 -3 42 2 67 22 68 53 72 125 12 208 -38 53 -115 194 -109 200 3 3 14
-10 25 -28 12 -18 40 -49 63 -68 23 -19 53 -53 67 -75 36 -58 65 -82 109 -89
21 -4 57 -17 81 -28 46 -22 68 -18 36 7 -18 13 -16 14 22 15 22 0 48 6 59 13
17 13 16 14 -15 20 l-32 7 17 26 c9 15 17 45 17 68 -1 22 -1 57 -1 76 -1 60
-67 109 -83 61 -3 -10 -18 -1 -53 30 -49 44 -187 182 -259 258 l-38 41 28 1
c16 1 33 1 37 0 13 -2 47 19 47 29 0 5 -19 14 -42 20 l-41 12 59 30 c32 16 67
31 76 33 9 2 27 9 39 16 12 6 39 12 58 13 20 1 41 5 47 9 6 3 47 20 90 36 99
37 151 63 189 97 23 20 25 24 10 21 -17 -5 -79 -19 -95 -22 -3 0 -27 -8 -55
-17 -76 -24 -127 -38 -158 -42 -15 -3 -37 -7 -50 -10 -12 -3 -16 -3 -9 0 15 7
16 56 1 71 -7 7 -2 12 18 16 42 9 103 64 103 92 0 22 -3 24 -32 19 -50 -10
-118 -41 -119 -56 -1 -7 -3 -20 -3 -28 -2 -25 -29 -90 -38 -90 -4 0 -8 -13 -8
-29 0 -25 -7 -33 -43 -50 -54 -26 -57 -26 -57 3 0 30 -17 76 -27 76 -12 0 -55
-105 -51 -124 2 -10 -9 -24 -27 -34 -16 -9 -32 -20 -35 -23 -3 -4 -16 -10 -30
-14 l-25 -7 23 17 c35 26 26 37 -13 15 l-36 -20 12 22 c7 13 25 35 41 49 15
15 37 46 48 70 11 24 45 85 76 134 31 50 83 139 116 199 54 98 60 114 55 153
-6 56 -38 91 -89 99 -30 5 -38 11 -38 28 0 21 -21 51 -53 75 -19 15 -83 23
-107 14z"/>
<path d="M6865 3565 c-45 -44 -22 -109 42 -121 27 -5 37 -1 74 33 51 48 48 65
-13 93 -57 26 -74 25 -103 -5z"/>
<path d="M17109 3489 c-24 -46 29 -88 90 -72 19 5 21 3 12 -20 -17 -45 27
-160 70 -182 26 -14 27 -14 33 23 3 20 6 65 6 99 0 55 -3 64 -26 80 -14 10
-46 35 -70 56 -53 43 -97 49 -115 16z"/>
<path d="M13356 3409 c-42 -33 -34 -89 16 -115 51 -26 128 15 128 69 0 10 -11
29 -25 42 -30 31 -82 33 -119 4z"/>
<path d="M15750 3272 c-9 -4 -32 -19 -51 -34 -20 -16 -43 -28 -52 -28 -14 0
-72 -45 -167 -129 l-35 -31 50 6 c72 10 164 41 206 70 20 14 54 28 75 31 22 3
45 10 52 16 20 16 14 56 -13 82 -25 25 -38 29 -65 17z"/>
<path d="M7950 3193 c-52 -19 -65 -71 -28 -118 12 -15 67 -50 127 -79 104 -50
136 -71 269 -169 35 -26 66 -47 67 -45 9 9 -133 166 -164 182 -41 21 -95 75
-159 161 -57 77 -68 84 -112 68z"/>
<path d="M8535 3158 c-27 -15 -35 -28 -35 -60 0 -60 84 -75 151 -28 40 29 34
50 -21 78 -50 25 -66 27 -95 10z"/>
<path d="M17301 3094 c-38 -48 -20 -128 38 -177 58 -49 67 -40 69 68 1 83 -1
98 -18 115 -28 28 -64 25 -89 -6z"/>
<path d="M7070 2988 c-63 -43 -75 -84 -74 -246 0 -78 4 -145 8 -149 13 -14
165 156 200 224 9 18 16 53 16 79 0 39 -5 51 -34 80 -40 40 -70 43 -116 12z"/>
<path d="M5255 2917 c-21 -24 9 -68 34 -52 5 2 1 -21 -8 -53 -8 -31 -19 -59
-23 -60 -5 -2 -6 -7 -4 -11 8 -13 -73 1 -85 15 -10 12 -9 13 6 7 15 -5 17 -3
11 13 -4 10 -15 39 -23 64 -8 25 -20 48 -27 52 -18 13 -45 -28 -40 -62 5 -27
2 -30 -20 -30 -14 0 -35 9 -46 20 -26 26 -54 27 -47 1 3 -13 -3 -23 -19 -32
-31 -16 -32 -57 -3 -93 12 -15 22 -38 22 -51 0 -14 4 -22 9 -19 16 10 90 -17
118 -43 16 -14 34 -21 47 -18 14 2 30 -5 45 -20 13 -14 32 -25 43 -25 12 0 26
-13 36 -32 20 -42 119 -95 119 -64 0 26 85 -3 185 -63 87 -53 353 -181 374
-181 6 0 34 -11 61 -25 27 -14 56 -25 64 -25 8 0 35 -9 60 -20 27 -11 48 -15
51 -10 5 9 -30 28 -60 34 -5 1 -16 5 -22 9 -7 5 -13 6 -13 2 0 -3 -30 10 -67
29 -38 19 -86 41 -108 51 -73 31 -289 139 -324 162 -33 23 -33 23 -8 23 35 0
74 19 82 39 7 17 -61 85 -76 76 -4 -3 -25 11 -45 32 -36 36 -37 37 -14 45 21
8 22 9 6 27 -16 17 -15 19 24 25 22 3 40 11 40 16 0 6 -4 10 -10 10 -5 0 -12
0 -15 0 -10 0 -90 34 -95 40 -3 3 -27 19 -53 34 -38 22 -56 26 -82 22 -19 -4
-36 -12 -39 -19 -4 -7 -4 16 -2 51 2 34 10 70 17 78 11 14 10 18 -6 30 -23 17
-56 18 -70 1z"/>
<path d="M8505 2722 c-61 -20 -126 -84 -143 -140 -35 -116 18 -283 95 -298 46
-9 91 10 150 61 140 123 143 323 6 381 -40 17 -46 17 -108 -4z"/>
<path d="M6263 2718 c-59 -15 -76 -83 -35 -137 29 -39 82 -61 204 -82 62 -10
131 -26 153 -35 117 -47 129 -30 19 28 -45 24 -93 61 -140 110 -118 121 -139
133 -201 116z"/>
<path d="M15798 2563 c-24 -21 -49 -45 -56 -53 -25 -29 -64 -100 -60 -109 3
-10 164 93 206 132 32 30 25 61 -15 65 -25 3 -41 -5 -75 -35z"/>
<path d="M16193 2588 c-13 -6 -50 -50 -82 -99 -57 -84 -59 -87 -32 -79 86 24
177 80 207 125 33 50 -28 85 -93 53z"/>
<path d="M7875 2524 c-48 -25 -71 -51 -112 -128 -32 -61 -37 -80 -38 -137 0
-77 14 -100 80 -130 111 -51 218 1 281 135 61 131 -10 276 -135 276 -25 0 -59
-7 -76 -16z"/>
<path d="M5487 2172 c-9 -10 -17 -24 -18 -32 -4 -21 19 -60 36 -60 8 0 21 -10
29 -21 21 -30 159 -113 170 -102 14 14 -74 133 -120 164 -14 9 -31 27 -38 39
-14 29 -40 33 -59 12z"/>
<path d="M9553 2093 c-12 -2 -36 -17 -53 -33 -57 -53 -31 -148 52 -191 37 -19
52 -21 127 -15 47 3 86 8 88 10 3 2 -3 30 -11 61 -29 112 -117 185 -203 168z"/>
<path d="M15698 2031 c-13 -11 -45 -62 -71 -114 -26 -52 -61 -112 -78 -133
-17 -22 -35 -47 -40 -56 -21 -39 22 -4 75 60 30 37 80 94 111 127 56 60 72 92
61 120 -7 20 -28 19 -58 -4z"/>
<path d="M14534 2032 c-33 -11 -80 -54 -114 -105 -18 -27 -30 -50 -28 -53 3
-2 36 11 74 30 38 19 86 38 107 41 48 9 63 48 27 77 -23 19 -32 20 -66 10z"/>
<path d="M16358 1991 c-74 -59 -19 -175 75 -157 41 8 117 70 117 96 0 30 -64
72 -118 77 -37 4 -53 1 -74 -16z"/>
<path d="M10567 1639 c-11 -6 -25 -27 -33 -45 -12 -29 -12 -39 -2 -62 37 -77
151 -57 164 30 5 30 2 41 -19 62 -28 28 -77 34 -110 15z"/>
<path d="M7718 1564 c-31 -16 -44 -51 -34 -90 9 -33 64 -58 100 -44 52 19 63
95 20 129 -31 25 -49 26 -86 5z"/>
<path d="M13119 1321 c-36 -36 -37 -73 -5 -106 45 -45 119 -42 203 7 18 11 33
23 33 27 0 11 -84 70 -124 86 -51 22 -74 19 -107 -14z"/>
</g>
</svg>
